<svg xmlns="http://www.w3.org/2000/svg" width="69" height="78" style="background-color: ##9aa482; opacity: 0.1;" fill="none"><path fill="#737561" fill-rule="evenodd" d="M57 7c-3.2-.4-5.9.6-8 3 4 1.7 5.6 4.7 5 9h-3v-3h-3c-.3 2.2.3 4 2 5.5a29 29 0 0 0-4 1.5c-.8-1.2-1.3-2.6-1.5-4-.3.8-.8 1.5-1.5 2-1.6-2.4-2.4-5-2.5-8 0 7.4-1 14.8-2.5 22 1.8.3 3.1 1.8 4 4.5-2.3 1.8-2.6 4-1 6.5-2.5 1.7-2.3 3.4.5 5a76 76 0 0 0 2-19c1.7-2.1 3.9-3 6.5-2.5-1.4 3-2 6.2-2 9.5h3a50 50 0 0 0 0-10.5 24 24 0 0 0 9-5.5c1 1.7 1 3.4 0 5 1.3 1.1 2.3 2.5 3 4-.8 1.7-1.8 3.4-3 5a3 3 0 0 0 3 1c-.3 3.7 1.3 5.3 5 5-.2 2.7.1 5.4 1 8a123 123 0 0 1-2 8 19.6 19.6 0 0 1-3-12c-.8 1.2-1.3 2.6-1.5 4a5 5 0 0 1-.5-3h-3c-.3-3-1-6-2-9-.5 2.5-1.5 4.6-3 6.5l3 1c-2 .7-4 .5-6-.5a11.6 11.6 0 0 0-2.5 11c1.8-2 3-4.3 3.5-7 1.2 3.2 2.6 6.4 4 9.5a15 15 0 0 1-3 3.5c-1.2-.8-1.2-1.6 0-2.5-.9-1-1.9-1.9-3-2.5-1.7 1.3-3.3 1.3-5 0l-1 1c4 2 3.6 2.9-1 2.5-2-1.2-2.4-2.7-1-4.5-.6-1.3-1.1-2.6-1.5-4a3.3 3.3 0 0 1-3.5 2v4a9.3 9.3 0 0 1 1-9.5c-2.3-1.8-2-3.5 1-5a8.4 8.4 0 0 0-4-.5c.1 1.6-.5 2.8-2 3.5 2 .6 2.3 1.6 1 3-2.3.5-3.7-.5-4-3 1-2 2.3-3.6 4-5A31.9 31.9 0 0 1 34 27c-1 0-1.6-.5-2-1.5 1.4-1.3 1.9-2.8 1.5-4.5-.4.5-1 .8-1.5 1-1.3-4-1.3-8 0-12a3 3 0 0 1 3-1c-.2-1.6.1-3.1 1-4.5 2.7-.2 5-1 7-2.5 5.7-1.3 10.3.3 14 5Z" clip-rule="evenodd"/><path fill="#90927C" fill-rule="evenodd" d="M5 0h15a77 77 0 0 1 1 10 9 9 0 0 0-9 5.5 7 7 0 0 1 3.5 2.5c.8 2.7.7 5.4-.5 8l-2-6c-2 2.5-3.6 5.1-5 8a3 3 0 0 0 3 1c.1 2.2-.4 4.2-1.5 6a5 5 0 0 1-.5-3c-2.3 0-4.3-.8-6-2.5 4.2-4 4-5-.5-3.5-1.6-.8-1.7-2-.5-3.5A5.4 5.4 0 0 1 .5 17 9 9 0 0 0 9 14.5c-3.5-.4-6.5-1.7-9-4C1.8 7.5 4.2 5 7 3c-1.2-.8-2.6-1.3-4-1.5C4 1.2 4.6.7 5 0Z" clip-rule="evenodd"/><path fill="#727461" fill-rule="evenodd" d="M21 16c1 4.5 1.3 9.1 1 14h3v-3c2.7-.1 3.4.9 2 3 1.5 1.7 3.2 3.2 5 4.5-1.9.2-3.4 1-4.5 2.5.8 5.6.2 11-2 16a6.5 6.5 0 0 0-4.5-1 76.8 76.8 0 0 0 3.5 22c.7-2.1 1.6-2.3 2.5-.5l-3 4c-1 .6-1.8.5-2.5-.5a33.4 33.4 0 0 0-5-15l-4 11c-1.8 1.1-2.6.4-2.5-2H4a7.2 7.2 0 0 0-2-4.5L4.5 58l1 4c1.3.7 2.3 1.7 3 3l1-4 1 2c2.4-3.7 3.9-7.7 4.5-12-1.3.2-2.3-.1-3-1 2.7 0 5.4-.4 8-1-.2-3 0-6 1-9l-2-3c1-1.8 1-3.6 0-5.5 1.7-5 2.4-10.2 2-15.5Z" clip-rule="evenodd"/></svg>