<svg xmlns="http://www.w3.org/2000/svg" width="75" height="60" style="background-color: #9aa482;opasity:0.5;" fill="none"><path fill="#453938" d="M1.5 2.8c0-1.2 9.3.9 15.3.6 4.5-.2 7-.9 11.4-1.3 17.3-1.5 42.7-.6 44.5.7 1.2 1.5.5 24.5 0 25.8-6.8 1.5-40.4 0-66.2 0-2 0-3.3.2-5 0 .5-5.4-.6-16 0-25.8ZM0 32s9.4 1 15.4.7c4.4-.3 6.9-1.3 11.3-1.3 4 0 5.3-.7 7 .6 1.2 1.6.6 24.5 0 25.8-6.7 1.6-2.8 0-28.7 0H0V32ZM41.3 32c1.3-1.7 9.3.9 15.3.6 4.5-.2 7-1.3 11.4-1.3 4 0 7 .7 7 .7v25.8H41.3s-1.4-24.2 0-25.8Z"/></svg>