<svg xmlns="http://www.w3.org/2000/svg" width="280" height="283" fill="none"><g fill="#000" clip-path="url(#alogoasd890-213sdjk)"><path d="M127.2 1C6.5 16.3-42.8 158.8 43.6 243.3c88 86.1 236.7 22.8 236.4-100.6C279.8 59.7 205.8-9 127.2 1Zm32 5.3c121.3 20.9 157.3 177.4 57.4 248.9-68.9 49.3-172 16.8-200-63a87.1 87.1 0 0 0-3.3-8.4c-5.6-10.4-8-49.1-4.2-68.6C22.7 44.2 91.2-5.4 159.3 6.3Z"/><path d="M118.5 10.6C65.4 20.3 23.3 61.2 12.9 113.3c-1.4 7-3.3 40.3-2 34.3.5-2 .9-2.3 1.6-1.1.6 1 1-1.6 1-7.1C13.6 70.9 71.5 13 140.2 13A131 131 0 0 1 268 126.3l1.5 12.5c.3 2 .3-1.8.1-8.6C267.3 56 193-2.8 118.5 10.6Z"/><path d="M122.4 24.3c-4.2.6-7.8 1.2-8 1.4-1.6 1.6 4.8 28.7 6.8 28.6 10.3-.3 19.6-2.7 19.9-5 .5-3.4-1.6-4-9.5-2.5-7.6 1.4-7.5 1.4-7.9-2.2-.3-2.4.2-2.6 6.6-3.7 7-1.1 7.3-1.3 6.3-5-.4-1.6-1.2-2-2.5-1.7-8.1 2.3-12.3 2-12.3-.8 0-2.7.5-3 12-4.1 2-.3 2.7-1 3-3.3.4-3.4-.7-3.6-14.4-1.7Zm25.9 8c-1.6 18-1.5 19.4 2 19.7 2.7.4 3 .1 3-3.6 0-3.6.1-4 2.4-3.3 1.3.3 3 .7 3.6.7.6 0 2 2 2.9 4.3 1.5 3.8 2.1 4.3 5.1 4.3 2.9 0 3.4-.3 2.7-1.9-3.3-7.8-3.3-7.6-.5-10.5 3.6-4 3.5-9.3-.5-13.4-2.9-3.1-4.4-3.6-14.9-5l-5-.8-.8 9.6Zm12.7-1.6c8.6 2.3 6.1 10.4-2.9 8.9-3.5-.6-3.8-.9-3.8-4.6 0-5.8.4-6 6.7-4.3Zm-75 5.6L78.8 40c-1 .4 13 26.3 14.1 26.3a45 45 0 0 0 18-11c1.9-4-.6-10-4.6-11-2.4-.7-2.7-1.2-2.2-3.4 2-7.5-7.1-9.9-18-4.6Zm12 5.1c0 1.4-1.5 2.9-4.3 4.4l-4.3 2.1-1.2-2.2c-1.4-2.6-1.5-2.4 2.7-4.6 4.5-2.4 7-2.3 7 .3Zm6.8 9c.8 2.2-.3 3.5-5.5 6l-4.6 2.4-1.3-3c-.8-1.8-1-3-.3-3.2.6-.2 2.3-1 3.8-1.9 3.5-2 7.2-2 8-.2Zm78.3-14.2c-3.6 5.1-1.8 8.6 8 16.1 4 3 3.8 5.4-.7 5.4-2 0-4.2-1.5-7-4.3-3.4-3.7-4.2-4-5.8-2.9-4.1 3 2 10 11.1 12.6 11.8 3.5 15.3-9 4.6-16.7-5.3-3.8-7-7.1-3.8-7.1 2.8 0 8 3 9.2 5.4 1.4 2.5 3.5 2.8 5.3.6 1.5-1.8-2.7-7.4-7.5-9.9-4.8-2.4-11.4-2-13.4.8Zm25.6 22.5c-8.3 10.4-9 12.3-5.7 14.1 1.8 1 2.5.6 5-3.2 3.5-5.2 3.3-5.2 8.3-.5l4.1 3.8-3.5 4.3-3.5 4.3 2.3 2.2 2.1 2.2 8.3-10.4c9.2-11.5 9.4-11.8 6-13.6-2.5-1.3-2.5-1.3-6.7 4.7-1.1 1.7-1.6 1.6-5.8-2l-4.7-4 3.3-3.6c3.9-4.5 3.4-8-1.3-8-.2 0-3.9 4.4-8.2 9.7ZM63.3 53.1a65 65 0 0 0-13.8 12.2c.2.4 4.7 5.4 10.1 11.2l9.9 10.4 2.6-2 2.6-2.2-2.4-2.6c-4.5-4.8.2-9.8 6.2-6.7 3.1 1.6 3.6 1.6 6 0 3.7-2.4 3.3-3.5-2-5.2-4.1-1.4-4.6-1.9-5.2-5.8-1-7.5-7.5-11.9-14-9.3Zm6.3 7c2.2 2.2 1.5 5.7-2 9l-3.2 3-2.7-2.5c-3.5-3.3-3.4-4.6.7-8 3.6-3.2 5.3-3.5 7.2-1.6Zm61.8-.2c-10.7 1.5-14.1 3.5-13.4 7.7.8 5.4 4.7 27 5.4 30.6.7 3 .4 3.3-5.8 6.2-9.1 4.2-10 8.5-2.7 12 3.8 1.9 3.9 2 3.2 6.7-1 6.7.2 15 2 13.5 4-3.2 7.4 7 6.2 18-1 9.3-1 9.5 2.3 16.2l3.3 6.7 7.8 1.1a37.2 37.2 0 0 0 22.3-2.3c4.1-1.3 6.7-13 5-23.2-1.7-9.9.8-21.8 4-18.7.6.6 1.3 1.1 1.6 1.1.9 0 .6-8-.4-13.8-.6-3.9-.5-4.7 1.2-5.3 8.8-3.4 6.7-10.8-3.9-14l-3.8-1v-7c.1-3.9.5-9.2.9-11.9.5-3.2 1-6.5 1.3-9.7.2-2.5.6-4.9 1-7.3 1.3-5.4-18.7-8.4-37.5-5.6Zm35.5 7.3a68.2 68.2 0 0 1-19.8 5.5c-5.9 1-5.6 1 3.4.6 5.4-.2 11.1-.8 12.7-1.1 2.4-.6 3-.4 3 1 0 2.2-4.9 4.4-14 6.4-4.7 1-6 1.6-3.9 1.7 1.8 0 6.3-.6 10-1.3 8.4-1.8 9.5.2 1.7 3l-5.2 1.7 4.6-.6c4.4-.5 4.6-.4 4.6 2.2 0 1.5 0 2.7-.2 2.7l-4.6 1.7-4.4 1.6 4.7-.4 4.6-.5-.7 4c-.8 5-4.6 8.2-12.9 11-5.5 1.7-5.8 2-2.2 1.5 2.4-.3 6.3-1.6 8.6-2.7 5.8-2.8 6.2-1.9.8 1.6-8.8 5.9-15.4 5.9-24.5 0-7.4-4.7-8.5-6.2-8.4-12.2 0-4.9-2-18.3-3.6-22.1-.5-1.5-.2-1.9 1.8-2h2.6l-2.7-1.6-2.7-1.7 2.7.6a73 73 0 0 0 37.3.3c5.1-1.9 7.4-2.2 6.7-1ZM134 108.7c4.4 2.5 6.3 5.2 3.8 5.2-1.7 0-9.6-5.4-9.6-6.7 0-1.4 1.2-1 5.8 1.5Zm33.2-1.4c0 1.3-2.3 3-5.4 3.9l-2.7.8 2.6-2.9c2.6-2.7 5.5-3.7 5.5-1.8Zm-4.7 17a23 23 0 0 1-.1 16.9c-1 2.2-1.7 6.1-1.7 8.7 0 3.6-.7 5.3-2.7 7.3-3 2.8-2.9 2.9-5.3-2-1.6-3-2.4-3.4-6-3.4-6.2 0-6.8-2.6-2.2-3.3.9-.1 1.1.9 2.2.8 1 0 1.5-2 3.7-.5 3.6 1.7 3.6 1.7.7-1.5-1.6-2.2-2-1.6-1.1-3.3 1.8-3.3 4.9-2.4 6.7 2l1.7 4.1v-3.7c.1-2.3-.7-4.6-2.2-6.1l-2.2-2.4 2.8-4.8c3.7-6.3 4.9-10.6-1.3-10.6-6.3 0-9.8.4-7.4 4.2.1-1.2 2.2-2 3.3-1-.2-1.2 2.7-.5 4.1-.5 2.6 0-.1 7.6-2.7 10.2-.3.3-2.7-5.2-3-5.2 3.3-.3 6.5-2 6.4-2.3-.4-.8-1.8-1.4-4.1-1.4-1.4 0-3.3.7-4.2 2a6 6 0 0 1 3.4-1s-1.4.5-.4 1.2c.8.3 1.2.4 1.7 0 .5-.2 1-1.1.9-1.2H152v1.2c.2 0 .1-1.3.1-1.3l1.2.2c-.3.7-.4.9-.9 1.1-.6.3-1.6-.2-1.7-.5 0-.3.7-.8.7-.8 1.5 0 3 0 4.4.5-2.3 2-7.8.7-7.9.8-.2.4 4.7 7 4.9 7.2.3.3.7 2 .7 3.5.4 2.4-1.4 2-2.4.4-.9-1.6-1.8-1-1.2.1.3.6.5 1 .4 1.6-.2.7-.7.6-1.2 1.5-1.4 3-5.7 2-5.7-1.9 0-1.5-.3-1.5-1-.3-2.4 3.8-5-3.6-3-8.5 1-2.2 1.9-2.7 4.4-2.6 3 .3 2.7 0-2.3-2.9-7.6-4.3-10.4-4.1-13 .6-1.2 2-1.3 2-1.3.2-.1-5.3 1.8-6.4 10-5.7a77 77 0 0 0 22.2-1.4c.7 0 2.2 1.7 3 3.8Zm-25.7 2c.7.8 1.1 2.7 1 4-.7 4.6-8.5 3.5-8.5-1.2 0-4 5-5.9 7.5-2.8Zm-5.2 8c3.3 2 3.3 2.1.8 2.7-1.4.3-.8.4 1.4.3l4-.3-2.1 5.3c-2.6 6.5-2.7 10.2-.2 5.1 2-4 5.1-5.4 7.2-3.2.9.9.6 1.8-1.4 3.3-4.5 3.7-2.4 2.3-.8 3.5 3.5 2.5-.6 10-4.2 7.7-2.8-1.9-3.2-2.8-4.4-10.2a32 32 0 0 0-2-7.6c-1.6-3.2-3-8.6-2.3-8.6.3 0 2 .9 4 2ZM162 165c-1.3 2.6-2 3.5-1.6 2 1.1-4.7 2.6-7.9 3.2-7.3.3.3-.4 2.7-1.6 5.3Zm71.8-83.5c-9.8 4-10.8 20.7-1.6 25.5C243 112.4 253 105 252 92.3c-.8-8.5-10-14-18.1-10.9Zm9.7 6.6c5.7 4.5 2.3 15.1-5 15.1-8.6 0-9.3-13.5-.8-16.5 2.6-1 2.8-1 5.8 1.4Zm-210 1.5c-2.3 3.5-2.6 3 8.2 16.8 9.9 12.8 10.9 13.4 12.9 9 1-2.4 1-3-1-5.2l-2.3-2.4 3-5.8c2.7-5 3.6-5.8 6.1-5.6 2.7.1 7.4-4.2 6-5.6-.2-.3-5.7-1-12.3-1.6-5.1-.5-10.2-1-15.4-1.7-2.8-.5-3.7-.1-5.2 2.1ZM50.2 95c.3.3-.3 2.3-1.3 4.5l-2 3.9-3.6-4.2c-2-2.3-3.7-4.6-3.7-5.2 0-.9 9.5 0 10.6 1ZM248 115.3c-13.9 3.7-13.2 3.3-11.6 6.7 1 2.4 1.6 2.6 4 1.7l3.2-1.1c.2 0 .6 1.8 1 4 1.8 11 13 14.4 17.6 5.4 1.7-3.2.4-18.5-1.7-19.6-.3-.1-6 1.2-12.5 2.9Zm9.6 8.5c.8 4.9-.5 7.4-3.8 7.4-4.2 0-6-9.7-2-10.9 4.7-1.3 5.1-1 5.8 3.5Zm-231.8-4.2c-3 1.4-8.7 19.1-6.7 20.8 1 .7 27.6 5.6 28.6 5.2 1.2-.4 3-11.3 3-18 0-5.8-9.3-10.8-13-7-.8.7-2.1.6-4.5-.6-3.8-2-4.2-2-7.4-.4Zm5.9 10.1c.3 5.1-1 7.6-3.6 6.6-2.9-1.2-.9-12.2 2-11.3.7.3 1.4 2.3 1.6 4.7Zm11.8-2.2c1.4 3.8-.7 11.5-3.2 11.1-3.7-.5-2.9-12.8.8-12.8 1 0 2 .8 2.4 1.7ZM185.7 140c-2.4 4.4 2.8 9.6 9.5 9.6a6 6 0 0 1 3.9 2c2 2.2 1.4 2.7-6.9 5.7-9.5 3.4-8.8 13.4.8 11.2 5.6-1.3 7.9-3.5 7.9-7.5 0-5.7 2-6.2 15.1-3.2 20.2 4.6 24.3 3.3 6.8-2.2l-10.4-3.3 10.7-4.2c20.9-8 13.8-8.4-11-.5-8.5 2.7-11.6 1.8-11.7-3.4-.1-6-12-9.5-14.7-4.2Zm8.5 1c5.3 2 4.8 6-.5 5-4.7-.7-6.4-2-5.4-4.4.7-2 1.4-2 6-.5Zm3.9 19.3c1 1.7-2 4.4-5.6 5.1-3.1.6-3.5.5-3.5-1.6 0-3.2 7.5-6 9-3.5Zm-148.8-4.4c0 1 1 4.5 2 7.8l1.9 6h1.3v-11.4h1l.2 11.3h.8l.2-11.3h.8l.3 11.2h1.1l.1-11.2h.9v11.2h1.2c.2 0 0-11.2.1-11.2h1.2l-.2 11.1h1c.2 0 .2-11.1.4-11.1h.8c.1 0 0 11 .2 11h1s0-11 .2-11h.8v11h1c.2 0 0-11 .2-11H69s-.2 11 0 11h1l.3-11h.9l.1 11h1v-11h1.2v11h1.2v-11h.8c.1 0 0 10.9.2 10.9h1v-10.9h1v10.9H79c.3 0-.1-10.9.2-10.9h1.5c.1 0 .1 10.7.3 10.7 2.7-.2 3-.8 3-2.1 0-5.8 5.5-8 23.6-9.6 5-.4 8.4-1.2 8.6-2 .4-1-6.7-1.3-33.2-1.3-31.4 0-33.6 0-33.6 1.9Zm163.8 28.3c-12 7.4-8 22.2 7.4 27.6 9 3 10.7 4.4 10.7 8.7 0 8.5-12.2 11.3-19.2 4.3-4-4-8.7-5.2-7.4-2 .3 1 .6 3.5.6 5.8v4l11.6-.1c17.3-.2 23-4.4 23-16.6 0-7.4-2-9.6-14-14.4-11-4.5-13.3-7.2-10.1-11.6 4.1-5.5 14.5-3.9 16.1 2.5 1.6 6 5.8 3.5 5.7-3.2l-.2-6h-3.9c-2.1 0-6.8-.2-10.3-.6-5.3-.5-7.2-.2-10 1.6Zm-38.5.6c-17.3 6-13.4 23.9 6.5 29.8 8.9 2.7 11 7 6.1 12.8-4.4 5.3-14.3 4.4-18.3-1.6-3.4-5.3-6.6-3.4-6 3.6.5 4.9 1 6.2 2.2 5.9 1-.2 6.3-.5 12-.6 15-.3 21.6-5.3 21.6-16.2 0-7.8-4.5-12-18.2-16.4-6.4-2-8.5-5-7.4-9.7 1.7-6.6 11.3-6.1 15.7.8 4.1 6.2 6.7 5.5 6.7-1.9v-6l-4.1.2c-2.2 0-5.8-.5-7.9-1.1-4.5-1.4-3.9-1.5-8.9.4Z"/><path d="M118.7 188.3c-26.3 12.9-16 52.3 13 49.7 33.8-3 32.2-51.5-1.8-51.5-4.9 0-8.9.6-11.2 1.8Zm19 4.8c4.3 4 6.9 19.2 4.7 29.4-2.7 13.2-16.3 16-22.5 4.7-3-5.5-2.7-27.6.4-31.7 4.2-5.7 12.4-6.8 17.3-2.4Z"/><path d="M51.4 191.7c0 1.1 1 2.3 2 2.6 1.8.5 2.1 2 2.8 15l1.3 21c.5 5.2.3 7-1.1 8.3-3.6 3.6-2.1 4.2 8.3 3.6 17.6-1.1 21.6-1.7 26.5-3.8 11.4-5.1 9-21-3.6-23.4-3.7-.7-5.2-2.6-2-2.6 9 0 11.7-15.5 3.5-20.6-5.3-3.2-37.7-3.3-37.7 0Zm26.8 4c4.7 3.2 3.8 14-1.4 16-5.5 2.2-6.6 1-7.2-6.6-.4-4-1-8.2-1.4-9.2-1-2.5 6.5-2.7 10-.2Zm.8 22.1c9.4 3.5 6.6 17.8-3.6 19.2l-4.5.6v-6.4c0-3.5-.3-8.2-.7-10.4-.8-4.5 2.2-5.5 8.8-3Z"/></g><defs><clipPath id="alogoasd890-213sdjk"><path fill="#fff" d="M0 0h280v283H0z"/></clipPath></defs></svg>