<svg xmlns="http://www.w3.org/2000/svg" width="512" height="512" fill="none"><path fill="#8E8F91" fill-rule="evenodd" d="M239.5 100.5c28.2-1.2 56.5-1.2 85 0v1c-8.6.8-17.3.7-26-.5-19.7-.5-39.3-.7-59-.5Z" clip-rule="evenodd"/><path fill="#040202" fill-rule="evenodd" d="M239.5 100.5c19.7-.2 39.3 0 59 .5 8.7 1.2 17.4 1.3 26 .5h9l2 30c0 3 .7 5.8 2 8 .6 4.5 1.2 9 2 13.5-1.9 1-2.2 2.4-1 4 8.8 2 13.5-1.5 14-10.5.8-.8 1.3-1.8 1.5-3 .5.6.6 1.3.5 2-1.2 9-1.2 18 0 27a7.5 7.5 0 0 0 6 2.5 15.9 15.9 0 0 1-7 2 7.5 7.5 0 0 1-3 3.5h-3v-3c-1.4 0-2.8-.3-4-1a82.4 82.4 0 0 1-3-6.5c-5.2-3.4-10.5-6.5-16-9.5-1-5-1.3-10-1-15-.3-1.6 0-3 1-4 2.6-1 3-2.3 1.5-4a936 936 0 0 0-19.5 2h-3a569.3 569.3 0 0 1-64 0c-7.5-1.5-15.1-2.1-23-2v18c-.5 2.6-2.2 3.6-5 3a7 7 0 0 1-2-3.5c1-4.1 1.2-8.3.5-12.5-.5-1.2-1.3-2-2.5-2.5 1.8-.2 3.4-.7 5-1.5a3 3 0 0 0-3-1v-10c1-8.4 2.4-16.7 4-25 3.5.3 6.9 0 10-1 5.5.3 10.9 0 16-1Z" clip-rule="evenodd"/><path fill="#837569" fill-rule="evenodd" d="M223.5 101.5c-3.1 1-6.5 1.3-10 1-17.4-.3-34.7.4-52 2 3-1.6 6.3-2.5 10-2.5a324 324 0 0 1 52-.5Z" clip-rule="evenodd"/><path fill="#5E4634" fill-rule="evenodd" d="M364.5 100.5c10.4 1.3 20.7 3.3 31 6l10 2c2.1 1.2 4.1 2.5 6 4-.8 1.2-1.8 2.2-3 3h-1c.2-1.3-.1-2.3-1-3-6.4-2.2-13.1-4-20-5.5-5.5-.3-11-.8-16.5-1.5l-5.5-2.5c-7-.7-14-1-21-1-2.8.2-4.3 1.7-4.5 4.5-.3 4.7 0 9.4 1 14 3.7 1 7.6 1.3 11.5 1 .8.3 1.2 1 1 2 .2 1-.2 1.7-1 2v-3c-4.2-.1-8.2.7-12 2.5a20 20 0 0 0-1 8.5c-1 .1-1.8.8-2 2 0 1 .4 1.6 1 2l2 2h-2c-1.3-2.2-2-5-2-8l-2-30h-9v-1a302 302 0 0 1 23-2 68 68 0 0 1 17 2Z" clip-rule="evenodd"/><path fill="#B5ABA1" fill-rule="evenodd" d="M364.5 100.5c11.1-1 21.4 1 31 6a233.7 233.7 0 0 0-31-6Z" clip-rule="evenodd"/><path fill="#594333" fill-rule="evenodd" d="M213.5 102.5c-1.6 8.3-3 16.6-4 25 .5-8.2-.2-16.2-2-24-18.7 1-37.4 2.3-56 4 2.8-.6 5.5-1.6 8-3h2c17.3-1.6 34.6-2.3 52-2Z" clip-rule="evenodd"/><path fill="#76563B" fill-rule="evenodd" d="M209.5 127.5a11.3 11.3 0 0 0-2 9c-2.9-1.4-5.5-3-8-5 1 0 2 .4 3 1 1.5-8.5-2.1-12.1-11-11v3c-.9-.7-1.2-1.7-1-3 2.4-1 5.1-1.3 8-1h3c-.8-4.4-2.8-8.2-6-11.5-6.7-.6-13.4-.2-20 1-5.5 1-10.8 2.2-16 3.5v-4c-3 .4-5.7-.3-8-2 18.6-1.7 37.3-3 56-4a83.5 83.5 0 0 1 2 24Z" clip-rule="evenodd"/><path fill="#775539" fill-rule="evenodd" d="M406.5 112.5c-9-.7-17.7-.7-26.5 0a129 129 0 0 1-14.5-6c-7-1.6-14-2-21-1.5-1 .4-1.8.9-2.5 1.5-.8 4.2-.6 8.2.5 12 2.9 1.5 5.9 2.5 9 3-4 .3-7.8 0-11.5-1-1-4.6-1.3-9.3-1-14 .2-2.8 1.7-4.3 4.5-4.5 7 0 14 .3 21 1 1.8 1 3.6 1.7 5.5 2.5 5.5.7 11 1.2 16.5 1.5 6.9 1.4 13.6 3.3 20 5.5Z" clip-rule="evenodd"/><path fill="#8C6B4D" fill-rule="evenodd" d="M159.5 104.5a27.6 27.6 0 0 1-8 3c2.3 1.7 5 2.4 8 2v4c5.2-1.3 10.5-2.5 16-3.5a75.7 75.7 0 0 1 20-1c3.2 3.3 5.2 7.1 6 11.5h-3a20.1 20.1 0 0 0-5-7.5c-2.8 0-5.5-.2-8-.5-7.5 1.5-8.8 5-4 10.5 1.6.5 3.3.7 5 .5-.2 1.7-.8 3-2 4a86.5 86.5 0 0 0-23-4c-4.7 0-9.4.6-14 1.5-1.3.4-2 1.3-2 2.5-.6-.1-1.1-.4-1.5-1-1-6.2-2.5-12.2-4.5-18 3 .2 5.7-.5 8-2 4-1 8-1.6 12-2Z" clip-rule="evenodd"/><path fill="#886545" fill-rule="evenodd" d="M406.5 112.5c.9.7 1.2 1.7 1 3-7.7-3-15-2.3-22 2a5 5 0 0 1-2.5-1c-4.9 2.3-9.4 2-13.5-1-1.4-1-2-2.4-2-4l-18-3c-6.2.5-8.6 3.8-7 10a24.8 24.8 0 0 1-.5-12c.8-.6 1.6-1.1 2.5-1.5 7-.6 14 0 21 1.5a129 129 0 0 0 14.5 6c8.8-.7 17.6-.7 26.5 0Z" clip-rule="evenodd"/><path fill="#C8C8C8" fill-rule="evenodd" d="M412.5 110.5a99.8 99.8 0 0 0 18 3c.6 1 1 2 1 3-2.3 0-4.3-.8-6-2l-12-2-1-2Z" clip-rule="evenodd"/><path fill="#57544C" fill-rule="evenodd" d="M127.5 114.5c-4.5 0-8.8.6-13 2 4-3 8.3-3.7 13-2Z" clip-rule="evenodd"/><path fill="#9B7B5C" fill-rule="evenodd" d="M407.5 115.5h1l-10 11a3 3 0 0 0 3 1v1c-1 0-2 .4-3 1a10 10 0 0 0-7-4.5 45.7 45.7 0 0 0-33 3.5c-1-.5-1.8-1.1-2.5-2-.4.2-.6.6-.5 1-.6-1.6-1.6-3-3-4 .2-1-.2-1.7-1-2-3.1-.5-6.1-1.5-9-3-1.6-6.2.8-9.5 7-10l18 3c0 1.6.6 3 2 4 4.1 3 8.6 3.3 13.5 1a5 5 0 0 0 2.5 1c7-4.3 14.3-5 22-2Z" clip-rule="evenodd"/><path fill="#59554E" fill-rule="evenodd" d="M114.5 116.5c-1.1 1.7-2.8 2.4-5 2 1.1-1.7 2.8-2.4 5-2Z" clip-rule="evenodd"/><path fill="#988676" fill-rule="evenodd" d="M147.5 106.5c-2.3 1.5-5 2.2-8 2 2 5.8 3.5 11.8 4.5 18 .4.6.9.9 1.5 1a6.6 6.6 0 0 1 .5 6 12 12 0 0 0-4.5-6c-2.3-3.6-5-7-8-10l-4-3a5 5 0 0 0 3-3.5 30 30 0 0 1 15-4.5Z" clip-rule="evenodd"/><path fill="#A38465" fill-rule="evenodd" d="M198.5 120.5c-2.9-.3-5.6 0-8 1-1.7-1.2-2.4-.5-2 2h-2a13 13 0 0 1-5-.5c-4.8-5.5-3.5-9 4-10.5 2.5.3 5.2.5 8 .5 2.2 2.1 3.9 4.6 5 7.5Z" clip-rule="evenodd"/><path fill="#BFB2A5" fill-rule="evenodd" d="M405.5 108.5c2.6-.1 5 .6 7 2l1 2 12 2h-10c-5.3 3.6-10 8-14 13a3 3 0 0 1-3-1l10-11c1.2-.8 2.2-1.8 3-3a41.4 41.4 0 0 0-6-4Z" clip-rule="evenodd"/><path fill="#564438" fill-rule="evenodd" d="M184.5 127.5c-1 3.5-3.3 4.7-7 3.5l-6-5c-7-.7-14-.7-21 0a8.1 8.1 0 0 0-2 5.5 55 55 0 0 0 2.5 10c2 1 4.2 1.3 6.5 1v1c-2.9-.5-5.2.2-7 2-2-6.2-5-11.9-9-17v-1a12 12 0 0 1 4.5 6c.8-2.2.6-4.2-.5-6 0-1.3.7-2 2-2.5 4.6-1 9.3-1.4 14-1.5 7.9.3 15.6 1.6 23 4Z" clip-rule="evenodd"/><path fill="#17110D" fill-rule="evenodd" d="M351.5 125.5a38.9 38.9 0 0 1-9 8.5c-1.6.8-2.9.6-4-.5-.3-3 0-5.8 1-8.5 3.8-1.8 7.8-2.6 12-2.5v3Z" clip-rule="evenodd"/><path fill="#5D4839" fill-rule="evenodd" d="M401.5 128.5c-2.1 4.5-4.4 8.9-7 13 0-2.2-.6-2.5-2-1l3-8.5c-.8-3.6-3.1-5.6-7-6-6.3-.7-12.7-.7-19 0a45 45 0 0 0-12 5.5c-.2 3.7.2 7.4 1 11l-2-1-2 4c.1-.7 0-1.4-.5-2a5.5 5.5 0 0 1-1.5 3c-1.1.6-2.1 1.5-3 2.5-1.3.7-2.7.7-4 0a66.5 66.5 0 0 1-3-9.5c4.4.3 8.7 0 13-1a11 11 0 0 0 0-9v-2c0-.4.1-.8.5-1 .7.9 1.5 1.5 2.5 2a45.7 45.7 0 0 1 33-3.5c3 .5 5.4 2 7 4.5 1-.6 2-1 3-1Z" clip-rule="evenodd"/><path fill="#8B8581" fill-rule="evenodd" d="M441.5 122.5a11 11 0 0 1 6 5 11 11 0 0 1-6-5Z" clip-rule="evenodd"/><path fill="#110A07" fill-rule="evenodd" d="M186.5 123.5h2v1a20 20 0 0 0 2.5 9c3.4 3 6.4 6.4 9 10 .5 2 .7 4 .5 6h-5a34.8 34.8 0 0 0 10 20c-1.8-.3-3.5 0-5 1-2.8 3.3-4.8 7-6 11-1.7-1.6-2.7-1.3-3 1a7 7 0 0 1-4 1c-.7-3-1-6-1-9 .2-7.3 0-14.7-.5-22-.4-.6-.9-.9-1.5-1-.2-2-.7-4-1.5-6-.5 3.3-.7 6.7-.5 10-1 5.1-1.3 10.5-1 16h-4c.6-7.5 1.6-15 3-22.5 0-1.7-.3-3.2-1-4.5-1-1-2.4-1.3-4-1v-4a4 4 0 0 0-2-3.5c-7.8-3.6-13.2-1.4-16 6.5-2.3.3-4.5 0-6.5-1a55 55 0 0 1-2.5-10c0-2 .7-4 2-5.5 7-.7 14-.7 21 0l6 5c3.7 1.2 6 0 7-3.5 1.2-1 1.8-2.3 2-4Z" clip-rule="evenodd"/><path fill="#271913" fill-rule="evenodd" d="M199.5 131.5c-3.3-1.6-6-4-8-7v-3c8.9-1.1 12.5 2.5 11 11-1-.6-2-1-3-1Z" clip-rule="evenodd"/><path fill="#0D0604" fill-rule="evenodd" d="M392.5 140.5c-.9.6-1.9 1-3 1-1.4.2-2.7 0-4-.5l2-1a5 5 0 0 1-4-3.5 28.4 28.4 0 0 0-14.5 0l-8 8a25 25 0 0 0-.5 7h-1c.2-3.1-.1-6.1-1-9-.8-3.6-1.2-7.3-1-11a45 45 0 0 1 12-5.5c6.3-.7 12.7-.7 19 0 3.9.4 6.2 2.4 7 6l-3 8.5Z" clip-rule="evenodd"/><path fill="#090606" fill-rule="evenodd" d="M127.5 114.5h2l4 3c0 1 .4 2 1 3-8.9 1.2-17.6 3.4-26 6.5-6 4.1-10.5 9.6-13.5 16.5l-6 20c-.7 3-.7 6 0 9 4.8 1.2 9.6 1 14.5-.5a153 153 0 0 1 18-8c.8-1.1 1.5-2.3 2-3.5 1.2-.5 2.4-1.2 3.5-2a125 125 0 0 1 14.5-30c4 5.1 7 10.8 9 17 .2 1.7.8 3 2 4 .3 3.8 0 7.4-1 11a1998 1998 0 0 0-75 39.5 21 21 0 0 1-10 3.5c-.7-4-1-8-1-12a41 41 0 0 1 5-7 6.5 6.5 0 0 0 3-3c1.5 0 2.5-.6 3-2a5 5 0 0 0 2.5-4c.2-8.4.7-16.7 1.5-25 3-7 7.3-13.3 12.5-19 4.6-5.8 10-10.1 16.5-13 2.2.4 3.9-.3 5-2 4.2-1.4 8.5-2 13-2Z" clip-rule="evenodd"/><path fill="#0B0808" fill-rule="evenodd" d="M415.5 114.5h10c1.7 1.2 3.7 2 6 2l10 6a11 11 0 0 0 6 5v1c1 2.3 2.7 4 5 5 3.7 3.3 6.3 7.3 8 12 .3 3.9 1.5 7.5 3.5 11l1 27c.1 2.2 1 3.8 2.5 5l5 6v6c.3 3-1 4.8-4 5-4.8-3-9.4-6-14-9.5a3687.8 3687.8 0 0 1-68-35.5c-1.1-2-1.3-4-.5-6 1.5-2.5 2.5-5.1 3-8 1.8-1.8 3.6-3.5 5.5-5 2.6-4.1 4.9-8.5 7-13l6-5c1.7 7.9 3.8 15.5 6.5 23 1 6.3 1.8 12.6 2.5 19 1.9 2.2 4.2 3.6 7 4 3.1 3.6 7.1 5.6 12 6h1l3 2a34 34 0 0 0 16 3c1-15.9-2.4-30.6-10.5-44-3.2-2.2-6-4.7-8.5-7.5a8.4 8.4 0 0 0-4-.5c-5.7-1.3-10.7-4-15-8a4.9 4.9 0 0 0-4-1c-.7.1-1.4 0-2-.5 1.5-1.4 2.9-2.9 4-4.5Z" clip-rule="evenodd"/><path fill="#646663" fill-rule="evenodd" d="M447.5 128.5c2.7.7 4.3 2.3 5 5-2.3-1-4-2.7-5-5Z" clip-rule="evenodd"/><path fill="#B2A193" fill-rule="evenodd" d="M190.5 121.5c-.2 1.3.1 2.3 1 3 2 3 4.7 5.4 8 7 2.5 2 5.1 3.6 8 5-.7 1.2-1.8 1.9-3.5 2-4.1-1.3-8-3.1-11.5-5.5-1.2-3-2.6-5.8-4-8.5v-1c-.4-2.5.3-3.2 2-2Z" clip-rule="evenodd"/><path fill="#E3DDD0" fill-rule="evenodd" d="M352.5 123.5c1.4 1 2.4 2.4 3 4v7c-1.6.2-3.1-.1-4.5-1a7 7 0 0 1-2.5 3.5 61 61 0 0 1-11 .5c-.6-.4-1-1-1-2 .2-1.2 1-1.9 2-2 1.1 1.1 2.4 1.3 4 .5 3.5-2.4 6.5-5.2 9-8.5.8-.3 1.2-1 1-2Z" clip-rule="evenodd"/><path fill="#B0B0AA" fill-rule="evenodd" d="M452.5 133.5c2.5.5 4.5 1.9 6 4 3.1 5.4 5.8 11 8 17h-1a20 20 0 0 0-5-9 29.3 29.3 0 0 0-8-12Z" clip-rule="evenodd"/><path fill="#AA9D8B" fill-rule="evenodd" d="M355.5 129.5a11 11 0 0 1 0 9c-4.3 1-8.6 1.3-13 1h-3l-2-2c3.7.2 7.3 0 11-.5a7 7 0 0 0 2.5-3.5c1.4.9 2.9 1.2 4.5 1v-5Z" clip-rule="evenodd"/><path fill="#444442" fill-rule="evenodd" d="M324.5 141.5c-1-1.8-2.7-2.4-5-2h-13a936 936 0 0 1 19.5-2c1.6 1.7 1 3-1.5 4Z" clip-rule="evenodd"/><path fill="#6E6F6C" fill-rule="evenodd" d="M239.5 139.5c-7.3-.2-14.7-.6-22-1v17h-1v-18c7.9-.1 15.5.5 23 2Z" clip-rule="evenodd"/><path fill="#3C291D" fill-rule="evenodd" d="M415.5 114.5a25.1 25.1 0 0 1-4 4.5c.6.5 1.3.6 2 .5l-2 4c-.6.4-1 1-1 2 1 3.7 2.4 7 4.5 10 .8 11 2.8 21.6 6 32 1 .6 1.8 1.2 2.5 2-2.8-.4-5.1-1.8-7-4-.7-6.4-1.6-12.7-2.5-19-2.7-7.5-4.8-15.1-6.5-23l-6 5v-1c4-5 8.7-9.4 14-13Z" clip-rule="evenodd"/><path fill="#866549" fill-rule="evenodd" d="M413.5 127.5c2 1.8 4.1 3.4 6.5 5 4 7.2 6.7 14.9 8 23a77 77 0 0 0 1.5 11c-.2.6-.5 1-1 1.5 2.2 1.4 3.9 3.2 5 5.5-1.6-.1-3-.8-4-2-2-2.4-3.7-5.1-5-8a353 353 0 0 0-4.5-23c-1.7-4.7-3.9-9-6.5-13Z" clip-rule="evenodd"/><path fill="#9FA5A3" fill-rule="evenodd" d="M239.5 139.5c21.3 1.2 42.7 1.2 64 0-2.5.8-5.1 1.3-8 1.5a625 625 0 0 1-50 0c-2.2-.2-4.2-.7-6-1.5Z" clip-rule="evenodd"/><path fill="#959495" fill-rule="evenodd" d="M157.5 143.5c1.3-.2 2.3.1 3 1-3-.3-6 0-9 1 .7 1.2 1 2.6 1 4a5.8 5.8 0 0 1-2-4c1.8-1.8 4.1-2.5 7-2Z" clip-rule="evenodd"/><path fill="#765A46" fill-rule="evenodd" d="M435.5 131.5a24 24 0 0 1 10.5 11c4.9 11.2 6.7 23 5.5 35-4 1-8 1-12 0l-3-2h3a25 25 0 0 0 8 1c.3-2.9 0-5.6-1-8-.9-10.2-2.7-20.2-5.5-30l-5.5-7Z" clip-rule="evenodd"/><path fill="#312117" fill-rule="evenodd" d="M133.5 117.5c3 3 5.7 6.4 8 10v1a125 125 0 0 0-14.5 30c-1.1.8-2.3 1.5-3.5 2-.5 1.2-1.2 2.4-2 3.5a153 153 0 0 0-18 8 26.7 26.7 0 0 1-14.5.5c-.7-3-.7-6 0-9l6-20c3-6.9 7.5-12.4 13.5-16.5 8.4-3.1 17.1-5.3 26-6.5-.6-1-1-2-1-3Z" clip-rule="evenodd"/><path fill="#523D2D" fill-rule="evenodd" d="M133.5 135.5c-2.9 8.5-6.2 16.8-10 25l-10 5c1.9-1.3 3.2-3 4-5 2-.5 4-1.5 5.5-3 3.7-6.2 6-12.8 7-20a4 4 0 0 1 3.5-2Z" clip-rule="evenodd"/><path fill="#755C48" fill-rule="evenodd" d="M133.5 125.5c1.4.6 2.1 1.8 2 3.5-1 2-1.6 4.3-2 6.5a4 4 0 0 0-3.5 2c-1 7.2-3.3 13.8-7 20a12.5 12.5 0 0 1-5.5 3c4-7.4 7.5-15 10.5-23a19 19 0 0 0 5.5-12Z" clip-rule="evenodd"/><path fill="#7A5E45" fill-rule="evenodd" d="M123.5 125.5c-3.4 2.9-7 5.6-11 8a46.5 46.5 0 0 0-12 34c2 .2 4 0 6-.5 1.6-.2 2.6-1 3-2.5l2-1 6-3c-.8 2-2.1 3.7-4 5a66 66 0 0 1-12 5c-2 .2-3.7-.5-5-2a41 41 0 0 1 0-17c3.4-2.3 5.2-5.6 5.5-10 2.5-1.7 4-4 4.5-7 2.8-2 5.5-4 8-6.5 3.2-.4 6.2-1.2 9-2.5Z" clip-rule="evenodd"/><path fill="#563E2B" fill-rule="evenodd" d="M127.5 123.5a5.8 5.8 0 0 1-4 2 31.6 31.6 0 0 1-9 2.5 58.8 58.8 0 0 1-8 6.5c-.5 3-2 5.3-4.5 7-.3 4.4-2.1 7.7-5.5 10 2-8.2 5.7-15.7 11-22.5 6.6-2.2 13.3-4 20-5.5Z" clip-rule="evenodd"/><path fill="#A7886D" fill-rule="evenodd" d="M127.5 123.5c2.5-.4 4.5.2 6 2a19 19 0 0 1-5.5 12c-3 8-6.5 15.6-10.5 23l-6 3 5-6c3.9-10.7 8.5-21 14-31-1.4-1-3-1-4.5 0a60.4 60.4 0 0 0-20 21c-.5 3.3-1.3 6.4-2.5 9.5a6.4 6.4 0 0 1 0 6.5l1 2a9.1 9.1 0 0 1 5-1c-.4 1.4-1.4 2.3-3 2.5-2 .5-4 .7-6 .5-.5-13 3.5-24.4 12-34 4-2.4 7.6-5.1 11-8 1.7-.2 3-.8 4-2Z" clip-rule="evenodd"/><path fill="#9C7E63" fill-rule="evenodd" d="M413.5 119.5c1.5-.3 2.8 0 4 1 4.3 4 9.3 6.7 15 8 .8 1.2 1.8 2.2 3 3l5.5 7c2.8 9.8 4.6 19.8 5.5 30-4.8-10.4-8-21.4-9.5-33-6.6-3.4-12.7-7.4-18.5-12l-2 1c2.5 1.7 4 4 4.5 7a8 8 0 0 0 5.5 2c2.9 11.5 4.7 23.1 5.5 35 2 2.9 4.6 5.2 7.5 7h-4l-2-2a13.2 13.2 0 0 0-5-5.5c.5-.4.8-1 1-1.5a77 77 0 0 1-1.5-11c-1.3-8.1-4-15.8-8-23a59.6 59.6 0 0 1-6.5-5 5.8 5.8 0 0 1-2-4l2-4Z" clip-rule="evenodd"/><path fill="#B09475" fill-rule="evenodd" d="M446.5 168.5c1 2.4 1.3 5.1 1 8a25 25 0 0 1-8-1c-3-1.8-5.4-4.1-7.5-7-.8-11.9-2.6-23.5-5.5-35-2 0-4-.6-5.5-2-.5-3-2-5.3-4.5-7l2-1c5.8 4.6 12 8.6 18.5 12 1.5 11.6 4.7 22.6 9.5 33Z" clip-rule="evenodd"/><path fill="#4A3527" fill-rule="evenodd" d="M188.5 124.5c1.4 2.7 2.8 5.5 4 8.5 3.5 2.4 7.4 4.2 11.5 5.5 1.7-.1 2.8-.8 3.5-2-.6-3.5.1-6.5 2-9v10a3 3 0 0 1 3 1c-1.6.8-3.2 1.3-5 1.5 1.2.5 2 1.3 2.5 2.5.7 4.2.5 8.4-.5 12.5a7 7 0 0 0 2 3.5h-7c0 3.2 1 6 3 8.5-.1 1.3-.8 2.1-2 2.5a34.8 34.8 0 0 1-10-20h5c.2-2 0-4-.5-6-2.6-3.6-5.6-7-9-10a20 20 0 0 1-2.5-9Z" clip-rule="evenodd"/><path fill="#A9A9A4" fill-rule="evenodd" d="M319.5 139.5c2.3-.4 4 .2 5 2-1 1-1.3 2.4-1 4l-2 14-2 1v-2a46.5 46.5 0 0 0 0-19Z" clip-rule="evenodd"/><path fill="#7F7A78" fill-rule="evenodd" d="m152.5 149.5 2 5a25 25 0 0 0-1 8l-2-2c1-3.6 1.3-7.2 1-11Z" clip-rule="evenodd"/><path fill="#2D1D15" fill-rule="evenodd" d="M337.5 139.5h5c.8 3.2 1.8 6.4 3 9.5 1.3.7 2.7.7 4 0 .9-1 1.9-1.9 3-2.5-.5 9-5.2 12.5-14 10.5-1.2-1.6-.9-3 1-4-.8-4.5-1.4-9-2-13.5Z" clip-rule="evenodd"/><path fill="#5B3E2D" fill-rule="evenodd" d="M411.5 123.5c.2 1.7.8 3 2 4 2.6 4 4.8 8.3 6.5 13a353 353 0 0 1 4.5 23c1.3 2.9 3 5.6 5 8 1 1.2 2.4 1.9 4 2l2 2c-4.9-.4-8.9-2.4-12-6a9.6 9.6 0 0 0-2.5-2c-3.2-10.4-5.2-21-6-32-2-3-3.6-6.3-4.5-10 0-1 .4-1.6 1-2Z" clip-rule="evenodd"/><path fill="#CCAB8D" fill-rule="evenodd" d="m111.5 163.5-2 1c-1.8-.1-3.4.2-5 1l-1-2a6.4 6.4 0 0 0 0-6.5c1.2-3 2-6.2 2.5-9.5 5-8.6 11.6-15.6 20-21 1.6-1 3-1 4.5 0-5.5 10-10.1 20.3-14 31l-5 6Z" clip-rule="evenodd"/><path fill="#8F7E61" fill-rule="evenodd" d="m319.5 160.5 2-1-1 4c-2.3 1.7-5 2.4-8 2-3.8-1.8-7.8-3-12-3.5-1.2-2-3-3.5-5-4.5l-31.5-2-15.5 2.5c-.6.4-.9.9-1 1.5-5.4-.2-10.7.1-16 1a199 199 0 0 1-15 7.5c1.2.9 1.2 1.7 0 2.5-2 .6-4 .7-6 .5a7 7 0 0 0-2 2.5 31.3 31.3 0 0 0-14 24c-1.4.2-2.7 0-4-.5 2.2-1.9 2.5-4 1-6.5 2-2.5 3.7-5.1 5-8 1.7-3.6 4-6.8 7-9.5 4.4-4.2 9.2-7.7 14.5-10.5.5-1 .6-2 .5-3 3.7 2.7 7.3 2.7 11 0 4-1.6 8-2.9 12-4 5.6-.6 11-1.6 16.5-3 12.5 0 25 .9 37.5 2.5 4.2 4.4 9.2 5.7 15 4 1.8 1 3.4 2.2 5 3.5 1.6-.3 3-1 4-2Z" clip-rule="evenodd"/><path fill="#B0966F" fill-rule="evenodd" d="M312.5 165.5c2.1 1.2 4.1 2.7 6 4.5-.6 1-1.2 1.8-2 2.5a19 19 0 0 0-3 5 22.8 22.8 0 0 1-7.5 3c-1-.9-1.9-1.9-2.5-3a9 9 0 0 0 3-3c1.2-3.2-.2-4.9-4-5a13 13 0 0 0-6 4c-.9.7-1.2 1.7-1 3-1.3.2-2.5-.2-3.5-1-.3-2.8.2-5.4 1.5-8a5 5 0 0 0-2-4.5c-4.9-1.4-8.9-.2-12 3.5-.6.1-1.1.4-1.5 1-.5 2.6-.7 5.3-.5 8h-3l-1-9.5c0-2-.7-3.5-2-4.5-1.5-1.3-3.2-1.3-5 0 .6 3 2 5.3 4 7 .1.9-.2 1.5-1 2-1.2-.7-2.6-1-4-1h-4l1-8a14 14 0 0 0-7.5 2c-.7 3.6-.2 7 1.5 10-.2 2.4.4 4.4 2 6h-3c-1 .2-1.7-.2-2-1 0-4-1-7.7-3-11l-3-8c.1-.6.4-1.1 1-1.5l15.5-2.5 31.5 2c2 1 3.8 2.5 5 4.5 4.2.5 8.2 1.7 12 3.5Z" clip-rule="evenodd"/><path fill="#553D2B" fill-rule="evenodd" d="M96.5 151.5a41 41 0 0 0 0 17c1.3 1.5 3 2.2 5 2a15.9 15.9 0 0 1-11 0c1.8-5.5 3-11.1 3.5-17 .4-1.3 1.3-2 2.5-2Z" clip-rule="evenodd"/><path fill="#24170D" fill-rule="evenodd" d="M378.5 147.5c1.2 1.5 2.2 3.1 3 5 .2 3 0 6-.5 9a6 6 0 0 1-4.5 4c-.5 0-.9-.4-1-1l3-2.5c-.8-4.1-1.4-8.3-2-12.5.2-1.2 1-1.9 2-2Z" clip-rule="evenodd"/><path fill="#A48660" fill-rule="evenodd" d="m247.5 159.5 3 8a10 10 0 0 0-12-3c-6.2 1.8-7.2 5.2-3 10a42.3 42.3 0 0 0 10 6.5l-8 .5c-2-4-5.4-6-10-6l-4-1c-4.8-1-9.8-1.3-15-1a7 7 0 0 1 2-2.5c2 .2 4 0 6-.5 1.2-.8 1.2-1.6 0-2.5a199 199 0 0 0 15-7.5c5.3-.9 10.6-1.2 16-1Z" clip-rule="evenodd"/><path fill="#A39E96" fill-rule="evenodd" d="M184.5 151.5c-.7 3.7-1 7.5-1 11.5 0 4.2.7 8 2 11.5a3 3 0 0 1-1 3c-2-.8-4-1.2-6-1v-3h4v-18c-.2-3.3 0-6.7.5-10 .8 2 1.3 4 1.5 6Z" clip-rule="evenodd"/><path fill="#493D2D" fill-rule="evenodd" d="M323.5 145.5c-.3 5 0 10 1 15 5.5 3 10.8 6.1 16 9.5.9 2.2 1.9 4.4 3 6.5 1.2.7 2.6 1 4 1v3h3c-4.3 4.4-5.6 3.7-4-2l-6-1c.2-1.6-.1-3.1-1-4.5-3-2-6.4-3-10-3.5.4-3-.6-4-3-3l-6-3 1-4 2-14Z" clip-rule="evenodd"/><path fill="#A0A4A5" fill-rule="evenodd" d="M184.5 151.5c.6.1 1.1.4 1.5 1 .5 7.3.7 14.7.5 22h-1c.2-7.7-.1-15.4-1-23Z" clip-rule="evenodd"/><path fill="#593E1D" fill-rule="evenodd" d="M271.5 161.5c1.6 2.7 1.3 5-1 7a12 12 0 0 1-4-7c1.8-1.3 3.5-1.3 5 0Z" clip-rule="evenodd"/><path fill="#29231F" fill-rule="evenodd" d="M80.5 150.5a340 340 0 0 0-1.5 25 5 5 0 0 1-2.5 4c-.4-9.4.3-18.8 2-28 .3-.8 1-1.2 2-1Z" clip-rule="evenodd"/><path fill="#A38465" fill-rule="evenodd" d="M394.5 141.5a81.3 81.3 0 0 0-5.5 5c-.5 2.9-1.5 5.5-3 8-.8 2-.6 4 .5 6 22.7 12.1 45.3 24 68 35.5 4.6 3.4 9.2 6.6 14 9.5l-.5 8a5 5 0 0 1-2.5 4l1-4c1.5-2.4 1.2-4.6-1-6.5-6.2-2.3-12.2-4.8-18-7.5a21.8 21.8 0 0 0-9-6c-8.2-3.2-16.2-6.7-24-10.5a108 108 0 0 0-19-11.5c-4-2.8-8.2-5.4-12.5-8-.2-3.9-.7-7.5-1.5-11-.8-1.9-1.8-3.5-3-5a6.5 6.5 0 0 0-3-3c1.4-1.8 3.4-2.5 6-2 2.9.3 5.6 0 8-1 1.1 0 2.1-.4 3-1 1.4-1.5 2-1.2 2 1Z" clip-rule="evenodd"/><path fill="#706863" fill-rule="evenodd" d="M381.5 152.5c.8 3.5 1.3 7.1 1.5 11 4.3 2.6 8.5 5.2 12.5 8a186 186 0 0 1-14-6 3217 3217 0 0 0-8 5c-.3-.8-1-1.2-2-1 1.8-1 3.5-2.4 5-4a6 6 0 0 0 4.5-4c.5-3 .7-6 .5-9Z" clip-rule="evenodd"/><path fill="#8C8D84" fill-rule="evenodd" d="M76.5 154.5c.2 2.7-.6 5-2.5 7-.5 6.7-.7 13.3-.5 20a6.5 6.5 0 0 1-3 3c-.2-7.4.3-14.7 1.5-22 .8-3.2 2.3-5.9 4.5-8Z" clip-rule="evenodd"/><path fill="#4D4B43" fill-rule="evenodd" d="M78.5 151.5c-1.7 9.2-2.4 18.6-2 28-.5 1.4-1.5 2-3 2-.2-6.7 0-13.3.5-20 1.9-2 2.7-4.3 2.5-7a7 7 0 0 1 2-3Z" clip-rule="evenodd"/><path fill="#311F10" fill-rule="evenodd" d="M179.5 144.5c.7 1.3 1 2.8 1 4.5-1.4 7.5-2.4 15-3 22.5a3 3 0 0 0-3 1c.9 2.1 1.9 4.1 3 6-5.6.5-9.6-2.2-12-8 3.1-1 6.5-1.3 10-1 .5-7.8 1.9-16.2 4-25Z" clip-rule="evenodd"/><path fill="#5F4F3D" fill-rule="evenodd" d="M216.5 155.5h1c-.3 1.6 0 3 1 4 .1 1 0 2-.5 3a64.5 64.5 0 0 0-14.5 10.5c-3 2.7-5.3 5.9-7 9.5l-2-1c1.2-4 3.2-7.7 6-11 1.5-1 3.2-1.3 5-1 1.2-.4 1.9-1.2 2-2.5-2-2.5-3-5.3-3-8.5h7c2.8.6 4.5-.4 5-3Z" clip-rule="evenodd"/><path fill="#553D1D" fill-rule="evenodd" d="M306.5 174.5h-4a3 3 0 0 0-1-3 21.6 21.6 0 0 1-4 5 3 3 0 0 1-1-3 13 13 0 0 1 6-4c3.8.1 5.2 1.8 4 5Z" clip-rule="evenodd"/><path fill="#6A4C2C" fill-rule="evenodd" d="M265.5 169.5v3c-2.2 0-4.2.7-6 2-1-.2-2-.5-3-1-1.7-3-2.2-6.4-1.5-10a14 14 0 0 1 7.5-2l-1 8h4Z" clip-rule="evenodd"/><path fill="#32231B" fill-rule="evenodd" d="M432.5 128.5c1.4-.2 2.7 0 4 .5 2.5 2.8 5.3 5.3 8.5 7.5a73.7 73.7 0 0 1 10.5 44 34 34 0 0 1-16-3c4 1 8 1 12 0 1.2-12-.6-23.8-5.5-35a24 24 0 0 0-10.5-11c-1.2-.8-2.2-1.8-3-3Z" clip-rule="evenodd"/><path fill="#3A2215" fill-rule="evenodd" d="M316.5 172.5c2.3 0 3.7 1.1 4 3.5-1.3 1.8-3 3-5 3.5-1.3 0-2-.7-2-2a19 19 0 0 1 3-5Z" clip-rule="evenodd"/><path fill="#554432" fill-rule="evenodd" d="M182.5 155.5v18h-4v3c2-.2 4 .2 6 1a3 3 0 0 0 1-3h1c0 3 .3 6 1 9a7 7 0 0 0 4-1c-.3 1.5-1.3 2.2-3 2-2.6-.5-3.6-2.2-3-5-2.7 0-5.4-.4-8-1a43.5 43.5 0 0 1-3-6 3 3 0 0 1 3-1h4c-.3-5.5 0-10.9 1-16Z" clip-rule="evenodd"/><path fill="#33261D" fill-rule="evenodd" d="M460.5 145.5a20 20 0 0 1 5 9c1.7 11.3 2.4 22.6 2 34a6.3 6.3 0 0 1-2.5-5l-1-27c-2-3.5-3.2-7.1-3.5-11Z" clip-rule="evenodd"/><path fill="#816746" fill-rule="evenodd" d="M208.5 173.5c5.2-.3 10.2 0 15 1-4.3-.5-8.3.2-12 2-.4-1-1-1.2-2-.5-.6 1.2-1.2 2.4-2 3.5-1.6-1-2.4-.4-2.5 2l-1-1a8.4 8.4 0 0 0-.5 4 3 3 0 0 0-3 1 39 39 0 0 0-1 27h4c-.1 1 0 2 .5 3 .7 1.3 1.3 1.3 2 0 1.1 1.3 1.3 2.4.5 3.5 1 .5 2 .6 3 .5.6 4.3 2.9 7 7 8.5a14 14 0 0 1 3 4c3.8 1.4 7.6 2.5 11.5 3.5-1-2.2-1.5-4.3-1.5-6.5-2.8.6-5.5.5-8-.5 4 .3 7.4-1 10-4 3-2 6.1-3.6 9.5-5a16 16 0 0 1 8.5 4.5c-1.3.5-2.6.7-4 .5 0 1.6-.6 3-2 4l-6 2c-5.6 1.2-6.3 3.5-2 7l18 6.5c6.3.2 12.5 0 18.5-.5 2 2.4 4.5 3.3 7.5 2.5-1.4-1-2.7-1.8-4-2.5 2 .2 4 0 6-.5a8.8 8.8 0 0 1-4-1.5c2.1.3 4.1 0 6-1a4.5 4.5 0 0 0-2-1.5c1.2-1.5 1.2-3 0-4.5 1.7 1.2 3 3 4 5l2-2c-.7 2.4-2 4.4-4 6l1.5 1c3-3.4 6.1-3.7 9.5-1 3-.7 6-1.2 9-1.5l2-2c4 .2 8 0 12-.5v1c-.7 0-1 .3-1 1a44 44 0 0 0-2 3c-1.6-.6-3.3-1-5-1-7 .7-14 1.2-21 1.5-2.5.9-4.5 2.4-6 4.5a6.7 6.7 0 0 1 2 4h-2c0-.7-.3-1-1-1-2-2.6-4.6-4.3-8-5-7.9-.7-15.9-1.6-24-2.5a446.8 446.8 0 0 0-33-9.5 17.7 17.7 0 0 0-6-6c-2.3-.4-4.3-1.4-6-3v-3a13 13 0 0 1-5-.5c3.6-1.5 3.9-3.7 1-6.5a9.9 9.9 0 0 0-6-1c.3-1.8 0-3.5-1-5l-1 2.5 1.5 9.5a13 13 0 0 1 4.5 6c-.6 2.6-1.4 2.6-2.5 0l-.5 2.5c1.1 2 1.8 4.2 2 6.5h-3v-3c-3.3 0-4-1.3-2-4-.7-3.4-2.4-3.8-5-1-.8-.5-1.1-1.1-1-2 1.8 0 3.5-.5 5-1.5a3.8 3.8 0 0 0-4 .5l-1-1c3.9-1.1 3.9-2 0-2.5l2-1a8.8 8.8 0 0 1-4-1.5v-1c-.6-4.4-.6-8.7 0-13l-2-4c1.7-2.8 2.2-5.8 1.5-9a10 10 0 0 1-9.5-.5c1.7-2.3 3-4.8 4-7.5 2.5 0 5 .3 7.5 1 1.4-.2 2.2-.9 2.5-2 1.7.2 2.7-.5 3-2 .3-2.3 1.3-2.6 3-1l2 1c-1.3 2.9-3 5.5-5 8 1.5 2.5 1.2 4.6-1 6.5 1.3.5 2.6.7 4 .5 1-10.3 5.7-18.3 14-24Z" clip-rule="evenodd"/><path fill="#8A7150" fill-rule="evenodd" d="M271.5 161.5c1.3 1 2 2.5 2 4.5l1 9.5h3c-.2-2.7 0-5.4.5-8 .4-.6.9-.9 1.5-1 3.1-3.7 7.1-5 12-3.5a5 5 0 0 1 2 4.5 13.4 13.4 0 0 0-1.5 8c1 .8 2.2 1.2 3.5 1-.2-1.3.1-2.3 1-3a3 3 0 0 0 1 3c1.6-1.4 2.9-3.1 4-5a3 3 0 0 1 1 3h4a9 9 0 0 1-3 3c.6 1.1 1.5 2.1 2.5 3 2.7-.6 5.2-1.6 7.5-3 0 1.3.7 2 2 2-1.6.8-3 2-4 3.5l3 1.5a22.6 22.6 0 0 1 16-2c-5.7.4-10.7 2.4-15 6-.8.8-1.3 1.8-1.5 3-.7-.8-1.5-1-2.5-1-3.7-4-8-7.4-13-10-.6.1-1 .5-1 1h-3a80 80 0 0 0-34-2h-2a7.1 7.1 0 0 1-2-6c1 .5 2 .8 3 1 1.8-1.3 3.8-2 6-2v-3c1.4 0 2.8.3 4 1 .8-.5 1.1-1.1 1-2 2.3-2 2.6-4.3 1-7Z" clip-rule="evenodd"/><path fill="#513311" fill-rule="evenodd" d="M279.5 166.5c1 2.1 1.3 4.4 1 7a25 25 0 0 1 7 .5c-7.9 3.2-10.5.7-8-7.5Z" clip-rule="evenodd"/><path fill="#56381A" fill-rule="evenodd" d="M284.5 164.5c7.1-1.4 8.5 1 4 7-1.4 1.1-2.7 1.1-4 0a3 3 0 0 1 3-1c0-2.6-1-4.6-3-6Z" clip-rule="evenodd"/><path fill="#6D5134" fill-rule="evenodd" d="M238.5 164.5c2.9-.2 5.6.4 8 2 1.1 3 2.4 5.8 4 8.5-.5 1.8-1.3 2-2.5.5-.7 3-2.5 4.3-5.5 4-2.5-1.4-4.8-3-7-5-4.2-4.8-3.2-8.2 3-10Z" clip-rule="evenodd"/><path fill="#A0845F" fill-rule="evenodd" d="m320.5 163.5 6 3c2.4-1 3.4 0 3 3a11 11 0 0 1 6 4.5l-1 1c1.3.5 2.6.7 4 .5-.2 2 0 4 .5 6l6.5 9c-2.6 1-5.3 1.3-8 1-2.2-.3-4.2 0-6 1-4.9.1-9.5 1.1-14 3-1.8-.8-2.3-2.2-1.5-4 1.6-.6 3.1-1.3 4.5-2 3.7-.6 7.4-1.4 11-2.5 1.5-2 1.2-3.5-1-4.5a22.6 22.6 0 0 0-16 2l-3-1.5c1-1.6 2.4-2.7 4-3.5 2-.6 3.7-1.7 5-3.5-.3-2.4-1.7-3.5-4-3.5.8-.7 1.4-1.5 2-2.5a32.5 32.5 0 0 0-6-4.5c3 .4 5.7-.3 8-2Z" clip-rule="evenodd"/><path fill="#1C1006" fill-rule="evenodd" d="M227.5 176.5a6.6 6.6 0 0 1 4 6 77 77 0 0 1-10 1c-1.3-2.5-2-5.2-2-8 2.7 0 5.4.4 8 1Z" clip-rule="evenodd"/><path fill="#5A473A" fill-rule="evenodd" d="M465.5 154.5h1c1.5 4.4 3.2 8.7 5 13 .7 9 1 18 1 27l-5-6c.4-11.4-.3-22.7-2-34Z" clip-rule="evenodd"/><path fill="#56432C" fill-rule="evenodd" d="m223.5 174.5 4 1v1c-2.6-.6-5.3-1-8-1 0 2.8.7 5.5 2 8-3.4 0-6.4-1-9-3-1-1-1.3-2.4-1-4 3.7-1.8 7.7-2.5 12-2Z" clip-rule="evenodd"/><path fill="#876F53" fill-rule="evenodd" d="M238.5 164.5a10 10 0 0 1 12 3c2 3.3 3 7 3 11a59.8 59.8 0 0 0-17.5 13 31.8 31.8 0 0 0-1.5 12c-.6-2-1.6-3.6-3-5 1.7-5 3.8-9.7 6.5-14a29 29 0 0 0-7.5 10c-3 1.1-6 1.1-9 0v-1c2.4.3 4.7-.2 7-1.5a7 7 0 0 1-6-6c-5-.5-10-.7-15-.5.1-1 .8-1.8 2-2 1.7.7 3.3.9 5 .5a4 4 0 0 1-2-3.5c2.6 2 5.6 3 9 3a77 77 0 0 0 10-1 6.6 6.6 0 0 0-4-6v-1c4.6 0 8 2 10 6l8-.5a5.5 5.5 0 0 1-3-1.5c3 .3 4.8-1 5.5-4 1.2 1.5 2 1.3 2.5-.5a58.9 58.9 0 0 1-4-8.5 12.7 12.7 0 0 0-8-2Z" clip-rule="evenodd"/><path fill="#100705" fill-rule="evenodd" d="M294.5 181.5c1.1 1 2.1 2.1 3 3.5a34 34 0 0 1 10.5 6.5c.4-.6.9-.9 1.5-1 2.1 2.8 3.8 5.8 5 9 .3 2.9 0 5.6-1 8-5.1-4.8-10.1-9.6-15-14.5-3.9-1.8-8-2.7-12.5-2.5-10.2.5-20.3 1.2-30.5 2-7 3.6-13.3 8-19 13a20 20 0 0 1 3-14 98.7 98.7 0 0 1 21-12 80 80 0 0 1 34 2Z" clip-rule="evenodd"/><path fill="#624E41" fill-rule="evenodd" d="M401.5 188.5c-4.2-.7-8.2-2-12-4l-1 .5a7 7 0 0 1 2 2.5c-2.3-.8-4.3-2.2-6-4 2-3.5 4.7-4 8-1.5 3.1 2.1 6.1 4.3 9 6.5Z" clip-rule="evenodd"/><path fill="#5B4A3E" fill-rule="evenodd" d="M255.5 179.5h5a98.7 98.7 0 0 0-21 12c4.4-5.5 9.7-9.5 16-12Z" clip-rule="evenodd"/><path fill="#382318" fill-rule="evenodd" d="M330.5 182.5c2.2 1 2.5 2.5 1 4.5-3.6 1-7.3 2-11 2.5-2 .3-3.6 0-5-1 4.3-3.6 9.3-5.6 15-6Z" clip-rule="evenodd"/><path fill="#77665B" fill-rule="evenodd" d="M154.5 177.5c.9-.1 1.5.2 2 1l-3 4a55 55 0 0 1-14 5.5c-2.8 2.2-2.5 3.7 1 4.5 1.4 1.5.9 2.2-1.5 2-2.5-.7-5-1-7.5-1-.4-.6-1-1-2-1a27 27 0 0 1-9 3l34-18Z" clip-rule="evenodd"/><path fill="#3D352C" fill-rule="evenodd" d="M294.5 181.5h3c4.6 2.2 8.6 5.2 12 9-.6.1-1.1.4-1.5 1a34 34 0 0 0-10.5-6.5c-.9-1.4-1.9-2.5-3-3.5Z" clip-rule="evenodd"/><path fill="#A38465" fill-rule="evenodd" d="m151.5 160.5 2 2a3 3 0 0 0 2 2 5.5 5.5 0 0 1-3 3 3584.3 3584.3 0 0 0-59 31c-4.6.5-8.6 2.2-12 5-4 1.2-7.8 3.2-11 6a9.1 9.1 0 0 1 1 5 23 23 0 0 0-5-5c-1.7-6.1-2-12.1-1-18 0 4 .3 8 1 12a21 21 0 0 0 10-3.5c24.7-13.7 49.7-26.8 75-39.5Z" clip-rule="evenodd"/><path fill="#856C4E" fill-rule="evenodd" d="M329.5 169.5c3.6.4 7 1.6 10 3.5a6.5 6.5 0 0 1 1 4.5l6 1c-1.6 5.7-.3 6.4 4 2 1.3-.8 2.3-2 3-3.5 2.5-.1 4.9-.8 7-2-2.6 0-4.6-.8-6-2.5 2.3.4 4-.2 5-2 4 .1 8-.2 12-1 1-.2 1.7.2 2 1a16 16 0 0 0-8 4.5c1.4 2.5 2.8 5 4 7.5a8.2 8.2 0 0 0-6 7c-1-1-1.3-2.4-1-4-3.7.4-7.3.8-11 1-.3 1.6 0 3 1 4 1.4 2 2.4 4.4 3 7 1.2.7 2.6 1 4 1v5h3c-1 3-1 6 0 9a9 9 0 0 1-2.5 5 6.8 6.8 0 0 0-1.5-3l-6 8c-.7 0-1 .3-1 1-1.7-.7-2.3-2-2-4 1 .1 2 0 3-.5-2.5-.2-4.9-.7-7-1.5 2.6.3 4.9 0 7-1 .6-.1 1.1-.4 1.5-1 1.1-3.6 1.4-7.3 1-11a4.6 4.6 0 0 0-4.5-2c.4-.7 1-1.2 2-1.5a13 13 0 0 0-5-.5c.2-2 0-4-.5-6a3.3 3.3 0 0 0-3.5-2v4c-1.3 1.6-3 2.1-5 1.5 1.3-1.3 1.3-2.5 0-3.5 0-1.1-.4-2.1-1-3 2.7.3 5.4 0 8-1l-6.5-9c-.5-2-.7-4-.5-6-1.4.2-2.7 0-4-.5l1-1a11 11 0 0 0-6-4.5Z" clip-rule="evenodd"/><path fill="#88796E" fill-rule="evenodd" d="M401.5 188.5c4.3 1.5 8.3 3.5 12 6-3.4-.6-6.8-1.6-10-3-1 0-1.6.4-2 1-4-1.3-7.6-3-11-5a7 7 0 0 0-2-2.5l1-.5c3.8 2 7.8 3.3 12 4Z" clip-rule="evenodd"/><path fill="#503B21" fill-rule="evenodd" d="M352.5 190.5h7c.7 2.7 2 5 4 7-.8 2-1.2 4-1 6h-3v-5c-1.4 0-2.8-.3-4-1-.6-2.6-1.6-5-3-7Z" clip-rule="evenodd"/><path fill="#25160B" fill-rule="evenodd" d="M337.5 191.5c.6.9 1 1.9 1 3 0 1.3-.7 2-2 2.5a14 14 0 0 1-10-1 70 70 0 0 1 5-3.5c1.8-1 3.8-1.3 6-1Z" clip-rule="evenodd"/><path fill="#8E877B" fill-rule="evenodd" d="M471.5 167.5a8.8 8.8 0 0 1 1.5 4c.8 9.8.7 19.5-.5 29v-6c0-9-.3-18-1-27Z" clip-rule="evenodd"/><path fill="#7A7781" fill-rule="evenodd" d="M438.5 193.5c3.5 1.3 6.5 3.3 9 6a11 11 0 0 1-9-6Z" clip-rule="evenodd"/><path fill="#110F0F" fill-rule="evenodd" d="M152.5 167.5c1.3-.2 2.5.2 3.5 1 1 3.3.4 6.3-1.5 9l-34 18a546.2 546.2 0 0 0-45 21.5c-1.7.5-3 0-4-1.5v-1c.1-1.8-.2-3.4-1-5 3.2-2.8 7-4.8 11-6a13 13 0 0 0 5.5-1c2.4-1.3 4.5-2.6 6.5-4a3586 3586 0 0 1 59-31Z" clip-rule="evenodd"/><path fill="#483223" fill-rule="evenodd" d="M313.5 207.5c-.8 1.2-1.8 1.2-3 0a33.5 33.5 0 0 0-23-13c-8-.2-16 0-24 .5-4.9 1-9.2 3-13 6l-10 4.5c-1 7.7-2.3 7.7-4 0 5.7-5 12-9.4 19-13 10.2-.8 20.3-1.5 30.5-2 4.4-.2 8.6.7 12.5 2.5 4.9 4.9 9.9 9.7 15 14.5Z" clip-rule="evenodd"/><path fill="#C6AC8F" fill-rule="evenodd" d="M287.5 195.5c4.8 2.2 9.1 5.2 13 9-3 1.1-6 1.1-9 0a25.7 25.7 0 0 0-22-4.5c-2.3.7-4.6 1.2-7 1.5-3.7 1.5-7 3.7-10 6.5-1.4.8-2.8.6-4-.5 2-6.2 6.4-9.7 13-10.5 8.6-1.3 17.3-1.8 26-1.5Z" clip-rule="evenodd"/><path fill="#67513E" fill-rule="evenodd" d="M287.5 195.5v-1c9.4 1.1 17 5.5 23 13 1.2 1.2 2.2 1.2 3 0 1-2.4 1.3-5.1 1-8 1.1 2.8 1.3 5.8.5 9-2.5 3-5.3 5.3-8.5 7 .2-1.9-.5-3.4-2-4.5a9 9 0 0 1-7-3.5 9 9 0 0 1 6.5 2l1.5-1c-3.9-7.6-9.9-12-18-13Z" clip-rule="evenodd"/><path fill="#AB9883" fill-rule="evenodd" d="M330.5 200.5a7 7 0 0 0-4 2c-1.5.3-2.2 1.3-2 3-2 0-3.4-1-4-3 1.7-1 3-2.3 4-4 1.7 1.3 3.3 1.3 5 0 .8.5 1.1 1.1 1 2Z" clip-rule="evenodd"/><path fill="#636767" fill-rule="evenodd" d="M93.5 198.5c-2 1.4-4.1 2.7-6.5 4a13 13 0 0 1-5.5 1c3.4-2.8 7.4-4.5 12-5Z" clip-rule="evenodd"/><path fill="#423221" fill-rule="evenodd" d="M229.5 200.5c-3 .7-6 1-9 1 .5 3.8-1.2 5.8-5 6 3-1.6 3.6-3.9 2-7a6 6 0 0 0-6.5 0c-.4 2-1.2 3.6-2.5 5l1 2c-2-.6-3.6-1.6-5-3 .4-3 2-4.7 5-5.5 6.9-.7 13.6-.2 20 1.5Z" clip-rule="evenodd"/><path fill="#0F0603" fill-rule="evenodd" d="M215.5 207.5h-6l-1-2c1.3-1.4 2.1-3 2.5-5a6 6 0 0 1 6.5 0c1.6 3.1 1 5.4-2 7Z" clip-rule="evenodd"/><path fill="#2F1E11" fill-rule="evenodd" d="M347.5 200.5c-5.7 1.5-11.4 3.2-17 5-1.8.3-3.5 0-5-1l1-2a7 7 0 0 1 4-2c4.3-.8 8.6-1.3 13-1.5 1.3-1 1.3-1.8 0-2.5v-4c1.6-.1 2.8.5 3.5 2 .5 2 .7 4 .5 6Z" clip-rule="evenodd"/><path fill="#6F5D49" fill-rule="evenodd" d="M315.5 188.5c1.4 1 3 1.3 5 1-1.4.7-2.9 1.4-4.5 2-.8 1.8-.3 3.2 1.5 4 4.5-1.9 9.1-2.9 14-3a70 70 0 0 0-5 3.5 14 14 0 0 0 10 1c1.3-.4 2-1.3 2-2.5 1.3 1 1.3 2.2 0 3.5 2 .6 3.7.1 5-1.5 1.3.7 1.3 1.5 0 2.5-4.4.2-8.8.7-13 1.5.1-.9-.2-1.5-1-2-1.7 1.3-3.3 1.3-5 0-1 1.7-2.3 3-4 4 .6 2 2 3 4 3-.2-1.7.5-2.7 2-3l-1 2c1.5 1 3.2 1.3 5 1v1h-1c-3.3.1-6.3 1.1-9 3l-2-2a28.4 28.4 0 0 0-7-17c1 0 1.8.2 2.5 1 .2-1.2.7-2.2 1.5-3Z" clip-rule="evenodd"/><path fill="#94846E" fill-rule="evenodd" d="M347.5 200.5a13 13 0 0 1 5 .5c-1 .3-1.6.8-2 1.5-.1 1.8.2 3.4 1 5a9 9 0 0 0-2.5 5 5 5 0 0 1-.5-3v-5c-4.4-.2-8.4.8-12 3 .1-.9-.2-1.5-1-2a9.1 9.1 0 0 1-5 1v-1c5.6-1.8 11.3-3.5 17-5Z" clip-rule="evenodd"/><path fill="#A38465" fill-rule="evenodd" d="M413.5 194.5c7 3.8 14.4 7 22 9.5 1.9 1.8 3.9 3.3 6 4.5.1.6.4 1.1 1 1.5a13 13 0 0 1-5 .5c-12.7-5-24.7-11-36-18 .4-.6 1-1 2-1 3.2 1.4 6.6 2.4 10 3Z" clip-rule="evenodd"/><path fill="#8E775C" fill-rule="evenodd" d="M229.5 200.5h2c.8 5.2 2.5 10.2 5 15a3.5 3.5 0 0 1-3 3c-4 .9-8 2-12 3.5a6.9 6.9 0 0 0-3 4.5c-.7-1.4-1.4-2.9-2-4.5 1.6-1 3.2-1.8 5-2.5a3 3 0 0 0-3-1c2-1.3 4.4-2.1 7-2.5a4.6 4.6 0 0 0 2-4.5 22 22 0 0 0-16 1.5c-1.2 1.5-1.2 3 0 4.5h-3c.2-2 0-4-.5-6a11 11 0 0 1-3.5-7c1.4 1.4 3 2.4 5 3h6c3.8-.2 5.5-2.2 5-6 3 0 6-.3 9-1Z" clip-rule="evenodd"/><path fill="#8D785E" fill-rule="evenodd" d="M287.5 195.5c8.1 1 14.1 5.4 18 13l-1.5 1a9 9 0 0 0-6.5-2 8.9 8.9 0 0 1-6-3c3 1.1 6 1.1 9 0a47.1 47.1 0 0 0-13-9Z" clip-rule="evenodd"/><path fill="#F5EFE4" fill-rule="evenodd" d="M336.5 207.5c-.6.1-1.1.4-1.5 1l-.5 7h-1c0-.7-.3-1-1-1a35 35 0 0 1-4-6l1-2h1c1.8.1 3.4-.2 5-1 .8.5 1.1 1.1 1 2Z" clip-rule="evenodd"/><path fill="#211A14" fill-rule="evenodd" d="M348.5 209.5a19.5 19.5 0 0 1-6 3l6 2c-.5.8-1.1 1.1-2 1h-9c.2-2-.5-3.7-2-5 .6-1 1-2 1-3 3.6-2.2 7.6-3.2 12-3v5Z" clip-rule="evenodd"/><path fill="#A38465" fill-rule="evenodd" d="M131.5 193.5a51.5 51.5 0 0 0-14 9h-3a444 444 0 0 0-25 13c-5 .3-9.3 2-13 5a7 7 0 0 0-2 4c-1.2-1.2-1.2-2.5 0-4a3 3 0 0 0-3-1v-4c1 1.5 2.3 2 4 1.5 14.7-7.9 29.7-15 45-21.5a27 27 0 0 0 9-3c1 0 1.6.4 2 1Z" clip-rule="evenodd"/><path fill="#979AA2" fill-rule="evenodd" d="M441.5 208.5a7 7 0 0 1 7 3c-1.4-.2-2.7 0-4 .5 2.2 1.3 4.2 2.8 6 4.5a38.7 38.7 0 0 1-13-6c1.7.2 3.4 0 5-.5-.6-.4-.9-.9-1-1.5Z" clip-rule="evenodd"/><path fill="#424343" fill-rule="evenodd" d="M114.5 202.5a64.1 64.1 0 0 1-25 13 444 444 0 0 1 25-13Z" clip-rule="evenodd"/><path fill="#1C120C" fill-rule="evenodd" d="M218.5 218.5c-2.4.2-4.8-.1-7-1-1.2-1.5-1.2-3 0-4.5a22 22 0 0 1 16-1.5c.2 1.9-.5 3.4-2 4.5-2.6.4-5 1.2-7 2.5Z" clip-rule="evenodd"/><path fill="#997F65" fill-rule="evenodd" d="M253.5 178.5c.3.8 1 1.2 2 1a38.4 38.4 0 0 0-16 12 20 20 0 0 0-3 14c1.7 7.7 3 7.7 4 0l10-4.5c3.8-3 8.1-5 13-6 8-.5 16-.7 24-.5v1c-8.7-.3-17.4.2-26 1.5-6.6.8-11 4.3-13 10.5 1.2 1.1 2.6 1.3 4 .5 3-2.8 6.3-5 10-6.5-4.3 3.8-8.5 7.8-12.5 12 .3 3.2.5 6.2.5 9-4.3-2.4-8.4-5-12.5-8-1.8-3.5-3-7.2-3.5-11-.3-4.1.2-8.1 1.5-12 5.1-5.4 11-9.8 17.5-13Z" clip-rule="evenodd"/><path fill="#1B0E0A" fill-rule="evenodd" d="m280.5 202.5 11 2a8.9 8.9 0 0 0 6 3 9 9 0 0 0 7 3.5 4.6 4.6 0 0 1 2 4.5 19 19 0 0 0-5 3 14 14 0 0 0-3.5 1c-5.7-1-11-3.2-15.5-6.5-5.7-1-11.3-1.8-17-2.5l-1-1 4-6.5c4-.5 8-.7 12-.5Z" clip-rule="evenodd"/><path fill="#4F3C27" fill-rule="evenodd" d="M350.5 202.5c1.9-.2 3.4.5 4.5 2 .4 3.7.1 7.4-1 11-.4.6-.9.9-1.5 1-2.2.3-4.2 0-6-1 .9.1 1.5-.2 2-1l-6-2c2.3-.7 4.3-1.7 6-3-.1 1 0 2 .5 3a9 9 0 0 1 2.5-5 9.1 9.1 0 0 1-1-5Z" clip-rule="evenodd"/><path fill="#472E1E" fill-rule="evenodd" d="M280.5 202.5c-4-.2-8 0-12 .5l-4 6.5 1 1c5.7.7 11.3 1.6 17 2.5 4.6 3.3 9.8 5.5 15.5 6.5a14 14 0 0 1 3.5-1c-.1.6-.4 1.1-1 1.5-7 1.1-13.3-.2-19-4l-7.5-.5c-5.6.4-11 1-16.5 2-.3-2.7 0-5.4 1-8a7 7 0 0 0 3-4 12 12 0 0 0 6-3.5 29 29 0 0 1 13 .5Z" clip-rule="evenodd"/><path fill="#857B72" fill-rule="evenodd" d="M336.5 207.5c0 1-.4 2-1 3 1.5 1.3 2.2 3 2 5h9c1.8 1 3.8 1.3 6 1-2.1 1-4.4 1.3-7 1-4 .4-7.7-.3-11-2l.5-7c.4-.6.9-.9 1.5-1Z" clip-rule="evenodd"/><path fill="#5A4328" fill-rule="evenodd" d="M362.5 203.5c2.4 3.1 3.4 6.8 3 11l-2 8v-4h-3c0 1.4-.3 2.8-1 4-2.3.9-4.6.9-7 0l6-8c.8.9 1.3 1.9 1.5 3a9 9 0 0 0 2.5-5c-1-3-1-6 0-9Z" clip-rule="evenodd"/><path fill="#66686A" fill-rule="evenodd" d="M89.5 215.5a114 114 0 0 1-13 5c3.7-3 8-4.7 13-5Z" clip-rule="evenodd"/><path fill="#6E5B47" fill-rule="evenodd" d="M332.5 214.5c.7 0 1 .3 1 1-5.3-.2-10.7 0-16 .5-2.8 5-7.1 7.6-13 7.5 3.4-2 6.8-4.1 10-6.5.8-1 1.2-2.2 1-3.5 5.6.8 11.3 1.1 17 1Z" clip-rule="evenodd"/><path fill="#54565D" fill-rule="evenodd" d="m466.5 213.5-1 4c-3 1.2-5.7.5-8-2 2.5-.4 4.7.3 6.5 2a5 5 0 0 1 2.5-4Z" clip-rule="evenodd"/><path fill="#674E33" fill-rule="evenodd" d="M231.5 198.5c1.4 1.4 2.4 3 3 5 .6 3.8 1.7 7.5 3.5 11 4 3 8.2 5.6 12.5 8 .3.8 1 1.2 2 1 .1.6.4 1.1 1 1.5a17.5 17.5 0 0 0-11 9.5v-4h-5l6-2c1.4-1 2-2.4 2-4 1.4.2 2.7 0 4-.5a16 16 0 0 0-8.5-4.5c-3.4 1.4-6.5 3-9.5 5-4.3-2.9-8.3-2.4-12 1.5a7 7 0 0 1 2 2.5c-1.5 0-2.5-.6-3-2a6.9 6.9 0 0 1 3-4.5c4-1.5 8-2.6 12-3.5a3.5 3.5 0 0 0 3-3 45.8 45.8 0 0 1-5-15v-2Z" clip-rule="evenodd"/><path fill="#140D09" fill-rule="evenodd" d="M333.5 215.5h1c3.3 1.7 7 2.4 11 2 2.1.8 4.5 1.3 7 1.5a5 5 0 0 1-3 .5c-.3 2 .3 3.3 2 4 3.7 0 6 1.7 7 5-.6.1-1.1.4-1.5 1l-1 14c-.2-2.2-.7-4.2-1.5-6 0-3.1-1-5.8-3-8-4.9-1.8-9.2-.8-13 3 1.3-2 1.3-4.3 0-7-2.9-.3-5.6 0-8 1a8.8 8.8 0 0 1-4 1.5c2.2.2 4.2.7 6 1.5 1 2 1 4 0 6-5-2-10-3.4-15-4 2.7-.7 5.3-1.6 8-2.5-4.6 0-9.3.2-14 .5a13 13 0 0 0-10 0h-12c0-.7-.3-1-1-1 .1-.6.4-1.1 1-1.5 5-1.3 10-2.5 15-3.5 5.9 0 10.2-2.4 13-7.5 5.3-.5 10.7-.7 16-.5Z" clip-rule="evenodd"/><path fill="#1B100A" fill-rule="evenodd" d="m204.5 226.5-3.5 3c-.9-.2-1.7-.6-2.5-1a13 13 0 0 0-4.5-6c-.4-3.2-1-6.3-1.5-9.5l1-2.5c1 1.5 1.3 3.2 1 5 2.1-.3 4.1 0 6 1 2.9 2.8 2.6 5-1 6.5 1.6.5 3.3.7 5 .5v3Z" clip-rule="evenodd"/><path fill="#A48661" fill-rule="evenodd" d="M211.5 176.5c-.3 1.6 0 3 1 4a4 4 0 0 0 2 3.5c-1.7.4-3.3.2-5-.5-1.2.2-1.9 1-2 2-.8.3-1.2 1-1 2-3 1.8-3.7 4.3-2 7.5 5.7.7 11.4.6 17-.5 3 1.1 6 1.1 9 0a29 29 0 0 1 7.5-10c-2.7 4.3-4.8 9-6.5 14v2h-2a55.6 55.6 0 0 0-20-1.5c-3 .8-4.6 2.6-5 5.5a11 11 0 0 0 3.5 7c.5 2 .7 4 .5 6h3c2.2.9 4.6 1.2 7 1a3 3 0 0 1 3 1c-1.8.7-3.4 1.5-5 2.5.6 1.6 1.3 3.1 2 4.5.5 1.4 1.5 2 3 2 2.5 1 5.2 1.1 8 .5 0 2.2.5 4.3 1.5 6.5-3.9-1-7.7-2.1-11.5-3.5a14 14 0 0 0-3-4 9.7 9.7 0 0 1-7-8.5c-1 .1-2 0-3-.5.8-1 .6-2.2-.5-3.5-.7 1.3-1.3 1.3-2 0a5 5 0 0 1-.5-3h-4a39 39 0 0 1 1-27 3 3 0 0 1 3-1c-.2-1.4 0-2.7.5-4l1 1c0-2.4.9-3 2.5-2 .8-1.1 1.4-2.3 2-3.5 1-.7 1.6-.5 2 .5Z" clip-rule="evenodd"/><path fill="#1A1009" fill-rule="evenodd" d="M221.5 193.5v1c-5.6 1-11.3 1.2-17 .5-1.7-3.2-1-5.7 2-7.5 4-1.1 8-1.3 12-.5 2 1.7 3 3.9 3 6.5Z" clip-rule="evenodd"/><path fill="#513C29" fill-rule="evenodd" d="M207.5 185.5c5-.2 10 0 15 .5a7 7 0 0 0 6 6 11.5 11.5 0 0 1-7 1.5c0-2.6-1-4.8-3-6.5-4-.8-8-.6-12 .5-.2-1 .2-1.7 1-2Z" clip-rule="evenodd"/><path fill="#645548" fill-rule="evenodd" d="M209.5 188.5a3 3 0 0 1 3 1c-.5 3-2.2 4.2-5 3.5a39 39 0 0 0 2-4.5Z" clip-rule="evenodd"/><path fill="#816A51" fill-rule="evenodd" d="m291.5 204.5-11-2a29 29 0 0 0-13-.5 12 12 0 0 1-6 3.5 7 7 0 0 1-3 4c-1 2.6-1.3 5.3-1 8 5.4-1 11-1.6 16.5-2l7.5.5c5.7 3.8 12 5.1 19 4 .6-.4.9-.9 1-1.5a19 19 0 0 1 5-3c-.3 1.7-1 3.2-2 4.5a31.4 31.4 0 0 1-19 5c1-1 1.2-2.2.5-3.5a19.3 19.3 0 0 0-16.5-3.5c-3 3.1-6.7 5.1-11 6l21 2c-1 1-2.1 1.5-3.5 1.5-3.8-.8-7.6-1.1-11.5-1 1 2.8 1 5.5 0 8 .6-3-.6-5-3.5-6a33 33 0 0 0-8.5 3c-.4-1.4-1.4-2.3-3-2.5 1.9-1.8 3.9-2 6-.5 2.3-.6 4.7-1 7-1.5l-10-3.5c-1 .2-1.7-.2-2-1 0-2.8-.2-5.8-.5-9 4-4.2 8.2-8.2 12.5-12 2.4-.3 4.7-.8 7-1.5 8.3-1.8 15.6-.3 22 4.5Z" clip-rule="evenodd"/><path fill="#433124" fill-rule="evenodd" d="M184.5 220.5c1.1.8 2.4 1.3 4 1.5l-2 1c3.9.6 3.9 1.4 0 2.5l1 1c1.3-1 2.6-1 4-.5a8.8 8.8 0 0 1-5 1.5l-2 2-5.5-2c0 2.6.3 5.3.5 8a17.8 17.8 0 0 1-3-9c-.8-6.3-1-12.6-1-19a6 6 0 0 1 2-6c.8 7.3 1.3 14.6 1.5 22 1 1.7 2.3 3 4 4 1.3-2.5 1.8-4.8 1.5-7Z" clip-rule="evenodd"/><path fill="#110503" fill-rule="evenodd" d="M231.5 224.5c-2.6 3-6 4.3-10 4a7 7 0 0 0-2-2.5c3.7-3.9 7.7-4.4 12-1.5Z" clip-rule="evenodd"/><path fill="#B9B9AB" fill-rule="evenodd" d="M330.5 226.5h4c.2 1.4 0 2.7-.5 4-.4-.6-.9-.9-1.5-1-1.8-.8-3.8-1.3-6-1.5 1.6-.2 2.9-.7 4-1.5Z" clip-rule="evenodd"/><path fill="#392714" fill-rule="evenodd" d="M363.5 222.5v1c-1 4.2-1.7 8.5-2.5 13-1.5-1.6-1.7-3.3-.5-5a6.9 6.9 0 0 0-2-3c-1-3.3-3.3-5-7-5 0-.7.3-1 1-1 2.4.9 4.7.9 7 0 .7-1.2 1-2.6 1-4h3v4Z" clip-rule="evenodd"/><path fill="#30251A" fill-rule="evenodd" d="M282.5 228.5c2.3 1.3 4.3 3 6 5 .3 1.6 0 3-1 4l-2 2a13 13 0 0 0-4-5c-2.5-.8-5.1-.8-8 0-.8 3.7.5 6 4 7 1.1.8 2.4 1.3 4 1.5-2 .5-4 .7-6 .5-4.1-3-5.6-7-4.5-12 .5-1.2 1.3-2 2.5-2.5 3-.5 6-.7 9-.5Z" clip-rule="evenodd"/><path fill="#1A110C" fill-rule="evenodd" d="M237.5 230.5h5v4c0 1-.2 1.8-1 2.5-2 .5-4 .7-6 .5-4.3-3.5-3.6-5.8 2-7Z" clip-rule="evenodd"/><path fill="#DEDBD6" fill-rule="evenodd" d="M317.5 231.5a6 6 0 0 0-5 2c-1.7 2.9-2.7 2.6-3-1 .1-1.5.8-2.5 2-3 4.7-.3 9.4-.5 14-.5-2.7 1-5.3 1.8-8 2.5Z" clip-rule="evenodd"/><path fill="#D6CEBF" fill-rule="evenodd" d="M288.5 228.5c.7 0 1 .3 1 1v1a8 8 0 0 1 3 4.5l-.5 2.5a5 5 0 0 0-3.5-4c-1.7-2-3.7-3.7-6-5 1.8-2.5 3.8-2.5 6 0Z" clip-rule="evenodd"/><path fill="#65523A" fill-rule="evenodd" d="M289.5 230.5v-1h12l-4 3c2.4.6 4.4 1.8 6 3.5a5.3 5.3 0 0 1-3 3.5c0-3.6-1.6-4.7-5-3.5-.8.7-1 1.5-1 2.5-1.5-2.4-1.2-4.5 1-6.5a7.8 7.8 0 0 0-6-1.5Z" clip-rule="evenodd"/><path fill="#61492D" fill-rule="evenodd" d="M363.5 223.5c-.2 2.7 0 5.4.5 8 2.2 1 4 2.3 5.5 4h-3c-1.6 8.3-6.6 12.6-15 13a384 384 0 0 0-7-4.5c1.1-.7 1.1-1.6 0-2.5 2.2-1 4.6-1.3 7-1 .2 1.6-.1 3.1-1 4.5 1 .5 2 .6 3 .5.6-2.6 1-5.3 1-8 .8 1.8 1.3 3.8 1.5 6l1-14c.4-.6.9-.9 1.5-1 .9.8 1.6 1.8 2 3-1.2 1.7-1 3.4.5 5l2.5-13Z" clip-rule="evenodd"/><path fill="#161110" fill-rule="evenodd" d="M210.5 229.5c2.6 1.6 4.6 3.6 6 6-4.2 7-7.6 6.6-10-1h-3v-5h7Z" clip-rule="evenodd"/><path fill="#A09582" fill-rule="evenodd" d="M281.5 234.5c1.2 1.5 1.2 3 0 4.5.8.3 1.5.8 2 1.5a9.9 9.9 0 0 1-6 1c-3.5-1-4.8-3.3-4-7 2.9-.8 5.5-.8 8 0Z" clip-rule="evenodd"/><path fill="#938160" fill-rule="evenodd" d="M311.5 229.5c-1.2.5-1.9 1.5-2 3 .3 3.6 1.3 3.9 3 1-.1.9.2 1.5 1 2 3.4-2.2 7.1-2.5 11-1a22.1 22.1 0 0 1-6 3l-1 2c-4 .5-8 .7-12 .5l-2 2c-3 .3-6 .8-9 1.5-3.4-2.7-6.6-2.4-9.5 1l-1.5-1c2-1.6 3.3-3.6 4-6 1-1 1.3-2.4 1-4 2 .6 3 2 3.5 4l.5-2.5a8 8 0 0 0-3-4.5c2.3-.3 4.3.2 6 1.5-2.2 2-2.5 4.1-1 6.5 1.6 2.2 3.6 2.6 6 1a5.3 5.3 0 0 0 3-3.5c-1.6-1.7-3.6-3-6-3.5l4-3a13 13 0 0 1 10 0Z" clip-rule="evenodd"/><path fill="#8B714D" fill-rule="evenodd" d="M351.5 229.5c2 2.2 3 4.9 3 8 0 2.7-.4 5.4-1 8-1 .1-2 0-3-.5a6.5 6.5 0 0 0 1-4.5c-2.4-.3-4.8 0-7 1 1.1 1 1.1 1.8 0 2.5l7 4.5c-4 .2-8-.1-12-1a49 49 0 0 1-5-7c-1-.7-2.2-1.4-3.5-2-.7-.8-.5-1.5.5-2 4.9-.4 9.2-2.6 13-6.5a25 25 0 0 1 7-.5Z" clip-rule="evenodd"/><path fill="#5A3F1B" fill-rule="evenodd" d="M348.5 232.5c3.4-.1 4.7 1.6 4 5l-6-2c.1 2.7-.9 3.4-3 2-1.7 2.6-2.2 2.2-1.5-1 1.8-2.1 4-3.5 6.5-4Z" clip-rule="evenodd"/><path fill="#5A4B39" fill-rule="evenodd" d="M330.5 226.5c2.4-1 5.1-1.3 8-1 1.3 2.7 1.3 5 0 7 3.8-3.8 8.1-4.8 13-3a25 25 0 0 0-7 .5c-3.8 3.9-8.1 6-13 6.5-1 .5-1.2 1.2-.5 2 1.3.6 2.5 1.3 3.5 2 0 1.3-.7 2-2 2-1.4.8-3 .8-5 0-1.3-3.8-4-5-8-3.5-.5.7-1.2 1.2-2 1.5v-1l1-2c2.2-.7 4.2-1.7 6-3a11.7 11.7 0 0 0-11 1c-.8-.5-1.1-1.1-1-2a6 6 0 0 1 5-2c5 .6 10 2 15 4 1-2 1-4 0-6 .6.1 1.1.4 1.5 1 .5-1.3.7-2.6.5-4h-4Z" clip-rule="evenodd"/><path fill="#9D886E" fill-rule="evenodd" d="M311.5 190.5a28.4 28.4 0 0 1 7 17l2 2c2.7-1.9 5.7-2.9 9-3l-1 2a35 35 0 0 0 4 6c-5.7.1-11.4-.2-17-1 .2 1.3-.2 2.5-1 3.5a94.6 94.6 0 0 1-10 6.5c-5 1-10 2.2-15 3.5-.6.4-.9.9-1 1.5-2.2-2.5-4.2-2.5-6 0-3-.2-6 0-9 .5-1.2.5-2 1.3-2.5 2.5-1.1 5 .4 9 4.5 12l4 2.5c-3 .8-5.5 0-7.5-2.5-6 .6-12.2.7-18.5.5l-18-6.5c2 .2 4 0 6-.5.8-.7 1-1.5 1-2.5 2.2-4.7 5.9-7.8 11-9.5-.6-.4-.9-.9-1-1.5l10 3.5-7 1.5c-2.1-1.4-4.1-1.3-6 .5 1.6.2 2.6 1 3 2.5l-2 6c2.9 3.6 6.5 4.6 11 3l3-6c1-2.5 1-5.2 0-8 3.9-.1 7.7.2 11.5 1 1.4 0 2.6-.5 3.5-1.5l-21-2c4.3-.9 8-2.9 11-6 6.1-1.3 11.6-.2 16.5 3.5.7 1.3.5 2.5-.5 3.5 6.9.4 13.2-1.3 19-5 1-1.3 1.7-2.8 2-4.5 3.2-1.7 6-4 8.5-7 .8-3.2.6-6.2-.5-9a36.2 36.2 0 0 0-5-9 39.6 39.6 0 0 0-12-9c0-.5.4-.9 1-1 5 2.6 9.3 6 13 10Z" clip-rule="evenodd"/><path fill="#3C2A1F" fill-rule="evenodd" d="m264.5 234.5-3 6c-4.5 1.6-8.1.6-11-3l2-6a33 33 0 0 1 8.5-3c3 1 4 3 3.5 6Z" clip-rule="evenodd"/><path fill="#979694" fill-rule="evenodd" d="m372.5 239.5 2 50h-1c-1-16.6-1.3-33.3-1-50Z" clip-rule="evenodd"/><path fill="#634C32" fill-rule="evenodd" d="M204.5 226.5c1.7 1.6 3.7 2.6 6 3h-7v5h3c2.4 7.6 5.8 8 10 1 11.1 2.7 22.1 6 33 9.5 8.1 1 16.1 1.8 24 2.5a13 13 0 0 0-5 .5c-1.1.8-1.1 1.6 0 2.5a5.5 5.5 0 0 0-3 3c0-1-.2-1.8-1-2.5-4-.5-8-.7-12-.5v6c-1.3-.3-2.3-1-3-2 .1-1.8-.2-3.4-1-5a28.3 28.3 0 0 0-13-2h-4c1.2-1.2 1.2-2.4 0-3.5-3.8-1.8-7.8-3-12-3.5.2 2.4.5 4.7 1 7 3.1 0 5.8 1 8 3-1.3 0-2 .7-2.5 2-.7-.8-1.5-1-2.5-1-.8-2.3-2.5-3.3-5-3-.2 1.3.2 2.5 1 3.5a5 5 0 0 1-3 .5v-4h-4c0-3.7-1.7-5-5-4a6.5 6.5 0 0 1 3 5h3c0 3.5 1.7 5.5 5 6-2.1.3-4.1 0-6-1-.7-1.5-1-2.8-1-4a9.1 9.1 0 0 1-5 1c-.5-3.9-2.5-5.2-6-4l-3-4c-1.1-1-2.1-1-3 0 .8 2.4 1.8 4.7 3 7 3 1.4 5.4 3.4 7.5 6a61.8 61.8 0 0 1 4.5 16c.5 2.8 1.8 5.1 4 7-4.3-1-6.3-3.6-6-8a22.1 22.1 0 0 0-12.5-20c-3.6-5.6-7.6-11-12-16 .4 12 .6 24 .5 36-.8-9.2-1.3-18.5-1.5-28a8.8 8.8 0 0 0-1.5-4c.3-1.6 0-3-1-4-.3-2.7-.4-5.4-.5-8l5.5 2 2-2c-.1.9.2 1.5 1 2 2.6-2.8 4.3-2.4 5 1-2 2.7-1.3 4 2 4v3h3c-.2-2.3-.9-4.4-2-6.5l.5-2.5c1 2.6 2 2.6 2.5 0 .8.4 1.6.8 2.5 1l3.5-3Z" clip-rule="evenodd"/><path fill="#A38465" fill-rule="evenodd" d="M365.5 214.5a100 100 0 0 1 2 8c-.2 2 .2 4 1 6 3 1.2 5.7 2.8 8 5 1.6 16.3 2.6 32.7 3 49l1 2a7 7 0 0 0 3 2v1c-2.3.5-4.5.5-6.5 0-.1 1.8.4 3.4 1.5 5h-2c0-1.5-.6-2.5-2-3l-2-50a4.7 4.7 0 0 0-3-4c-1.5-1.7-3.3-3-5.5-4-.5-2.6-.7-5.3-.5-8v-1l2-8Z" clip-rule="evenodd"/><path fill="#635142" fill-rule="evenodd" d="M376.5 233.5c.9 1 1.6 1 2 0 .8.7 1.4 1.5 2 2.5-1 15.4-1.3 31-1 46.5-.4-16.3-1.4-32.7-3-49Z" clip-rule="evenodd"/><path fill="#999280" fill-rule="evenodd" d="M387.5 287.5c10.3-.2 20.7 0 31 .5 1 .3 1.6.8 2 1.5l-33-2Z" clip-rule="evenodd"/><path fill="#4D4842" fill-rule="evenodd" d="M373.5 289.5h1c1.4.5 2 1.5 2 3 2 2 4.3 3.5 7 4.5 10.8.2 21.5.7 32 1.5-13.3.2-26.7 0-40-.5a12.5 12.5 0 0 1-2-8.5Z" clip-rule="evenodd"/><path fill="#BCBAB9" fill-rule="evenodd" d="M376.5 292.5h2l7 3.5 32 1a5 5 0 0 1 3 4.5h-1a3 3 0 0 0-2-2c-.3-.8-1-1.2-2-1-10.5-.8-21.2-1.3-32-1.5-2.7-1-5-2.5-7-4.5Z" clip-rule="evenodd"/><path fill="#584235" fill-rule="evenodd" d="M170.5 290.5v7c-13 .9-26 1.2-39 1 0-2.9 1.2-4.6 4-5h2l-2 3a70.2 70.2 0 0 0 30-1.5c2.2-1 3.8-2.6 5-4.5Z" clip-rule="evenodd"/><path fill="#785D4A" fill-rule="evenodd" d="M171.5 286.5a7 7 0 0 1-1 4c-1.2 2-2.8 3.4-5 4.5a70.2 70.2 0 0 1-30 1.5l2-3c8.4-.5 16.7-1.3 25-2.5 3.3-1 6.3-2.5 9-4.5Z" clip-rule="evenodd"/><path fill="#030102" fill-rule="evenodd" d="M417.5 299.5a3 3 0 0 1 2 2c-.8 3-1.8 6-3 9-3.6 1.4-6.6.6-9-2.5-15.2-.4-30.3-1-45.5-1.5-5-.1-9.8.4-14.5 1.5l15 1c-16 2.1-32 4-48 5.5h-38a14 14 0 0 1-4-2.5l-4.5-.5c-28.2 1.3-56.3 1-84.5-1l-15.5 1c-5.2-.4-10.4-1-15.5-2-3 .4-5.9.4-8.5 0a10.8 10.8 0 0 1-6 2c-6.7 0-8.2-2.9-4.5-8.5l14.5-1.5c80.3-.1 160.7.2 241 1 6.2-.2 12.4-.7 18.5-1.5l-26-1c12-.5 24-.7 36-.5Z" clip-rule="evenodd"/><path fill="#A38465" fill-rule="evenodd" d="M383.5 287.5h4l33 2a3 3 0 0 1 3 1c1.9 1.4 3.6 3.1 5 5l3 16c-.8 2.1-1 4.1-.5 6-.7-.8-1.5-1-2.5-1a8.7 8.7 0 0 0-7-2c.3-4.5 0-8.9-1-13a5 5 0 0 0-3-4.5l-32-1-7-3.5a7.5 7.5 0 0 1-1.5-5c2 .5 4.2.5 6.5 0Z" clip-rule="evenodd"/><path fill="#120A07" fill-rule="evenodd" d="M176.5 226.5c.2 3.3 1.2 6.3 3 9 1 1 1.3 2.4 1 4 .5 16.4 1.5 32.7 3 49-.1 3.4-.5 6.7-1 10 60.3.2 120.7 0 181-.5 1.1-8.5 2.8-16.8 5-25 0-5.6-1-11-3-16a31.2 31.2 0 0 0-6-3.5 16.4 16.4 0 0 1-10 5h-1c-1.6-.7-3.5-1-5.5-1-2.9-.2-5.4.5-7.5 2-2.8.6-5.1 1.9-7 4a3 3 0 0 1-1-3c3.3-5 7.3-9.3 12-13 4 .9 8 1.2 12 1 8.4-.4 13.4-4.7 15-13h3c1.8.8 2.8 2.1 3 4-.3 16.7 0 33.4 1 50-.3 3.1.3 6 2 8.5 13.3.5 26.7.7 40 .5 1-.2 1.7.2 2 1-12-.2-24 0-36 .5l26 1c-6.1.8-12.3 1.3-18.5 1.5a20489 20489 0 0 0-241-1l-14.5 1.5c-3.7 5.6-2.2 8.4 4.5 8.5 2.3-.1 4.3-.8 6-2 2.6.4 5.5.4 8.5 0 5.1 1 10.3 1.6 15.5 2l15.5-1c28.2 2 56.3 2.3 84.5 1l4.5.5c1.2 1 2.6 2 4 2.5v2c-1 1.3-2 1.3-3 0a335 335 0 0 0-37-2c-36.3-.7-72.7-1-109-1 1.6-4.3 2.6-8.8 3-13.5 13.7-.3 27.3-.8 41-1.5l3-16.5a45.5 45.5 0 0 0-4-15.5c.8-3.6 1.2-7.3 1-11a49 49 0 0 1 2-11.5c-.2-3.6-.9-7-2-10.5 1-1.3 1.8-2.8 2-4.5-1-3.5-1-7 0-10.5l3 8Z" clip-rule="evenodd"/><path fill="#4A3528" fill-rule="evenodd" d="M180.5 239.5a8.8 8.8 0 0 1 1.5 4c.2 9.5.7 18.8 1.5 28-.4 4.8.9 9 4 12.5 5.5 1.4 8.8 4.9 10 10.5l-2 2c52 1.2 104 1.3 156 .5 3.4-.2 6.7-.7 10-1.5a79.9 79.9 0 0 0 2.5-37l-2.5-2.5c-3.3.8-6.7 2-10 3.5-1 .2-1.7-.2-2-1 3.9-.5 7.2-2.2 10-5 2.1 1 4.1 2.1 6 3.5 2 5 3 10.4 3 16-2.2 8.2-3.9 16.5-5 25-60.3.5-120.7.7-181 .5.5-3.3.9-6.6 1-10a811.7 811.7 0 0 1-3-49Z" clip-rule="evenodd"/><path fill="#785E48" fill-rule="evenodd" d="M183.5 271.5c1 0 1.8.2 2.5 1a29 29 0 0 0 1.5 4l8.5 9c1.1 4 3 7.3 5.5 10 42 1.1 84 1.3 126 .5 2.5-1 5.2-1.8 8-2 .6-1.6.6-3.5 0-5.5 9.6 3.1 17.4.8 23.5-7v4c2.7-2.6 4.2-5.8 4.5-9.5a58.6 58.6 0 0 0-3.5-15.5l-.5 2.5a37.7 37.7 0 0 1 1.5 16.5 26.2 26.2 0 0 0-9.5-20c3.3-1.6 6.7-2.7 10-3.5l2.5 2.5c2 12.6 1.2 24.9-2.5 37-3.3.8-6.6 1.3-10 1.5-52 .8-104 .7-156-.5l2-2a12.8 12.8 0 0 0-10-10.5 16 16 0 0 1-4-12.5Z" clip-rule="evenodd"/><path fill="#977D62" fill-rule="evenodd" d="M207.5 271.5c-2-5.1-4.4-10.1-7.5-15-4-2.5-7.8-5.1-11.5-8-1 1.1-1.8 1.1-2.5 0-.8 6.4-.7 12.7.5 19 5.2 8.5 11.2 16.7 18 24.5l6 2c38-.2 76-.2 114 0 3.3-.8 6.3-2 9-4a50.7 50.7 0 0 1-8.5-12.5c-.2-3.5-.7-6.9-1.5-10 .3-2.4.8-4.7 1.5-7 1-1.3 1.8-1.3 2.5 0a3 3 0 0 0 1 3c1.9-2.1 4.2-3.4 7-4 .7-.1 1.4 0 2 .5-9.4 4.3-12 11.2-7.5 20.5 1.7 1.4 3.6 2.5 5.5 3.5 4.9.8 9.5.6 14-.5v-1c2.7.5 4.6-.5 5.5-3 .3 1 .8 1.6 1.5 2-5.8 5.4-12.6 7-20.5 5-1.7.2-1.9.9-.5 2 .6 2 .6 3.9 0 5.5-2.8.2-5.5 1-8 2-42 .8-84 .6-126-.5-2.5-2.7-4.4-6-5.5-10l-8.5-9a29 29 0 0 1-1.5-4c-.7-.8-1.5-1-2.5-1 0-12-.1-24-.5-36 4.4 5 8.4 10.4 12 16 8 4.2 12.1 10.8 12.5 20Z" clip-rule="evenodd"/><path fill="#A9917B" fill-rule="evenodd" d="M348.5 258.5h1c.3.8 1 1.2 2 1 6 5.2 9.2 11.8 9.5 20 .7-5.6.2-11.1-1.5-16.5l.5-2.5c1.9 5 3 10.1 3.5 15.5-.3 3.7-1.8 7-4.5 9.5v-4c-6 7.8-14 10.1-23.5 7-1.4-1.1-1.2-1.8.5-2 7.9 2 14.7.4 20.5-5 3.4-14.5-2.6-22-18-22.5 3.3-.5 6.6-.7 10-.5Z" clip-rule="evenodd"/><path fill="#180D08" fill-rule="evenodd" d="M217.5 275.5c3.4 3.9 7.8 5.9 13 6h3c4.4 1.5 9 2.1 14 2 1 1 2.4 1.3 4 1 5.4 1.5 11 2.2 17 2 3.8 0 7.5-.3 11-1 8-1.5 16-2.9 24-4 3-.8 6-1.8 9-3 1.6-3.9.6-6.9-3-9a6 6 0 0 1-2-5c3.6-.8 5.6-3.2 6-7 1.1 4.4 3.5 5 7 2l1 2a75.4 75.4 0 0 0-1 16 8.6 8.6 0 0 1-6 6.5c-5.7 1.3-11.3 2.4-17 3.5-13 1.6-26 2.2-39 2-5.2-1.3-10.6-2-16-2a103.6 103.6 0 0 0-22-3.5c-2.7-1-5-2.5-7-4.5a11.3 11.3 0 0 1-4-7v-14c5.2-1.9 8.9-.2 11 5-3.8 3.5-4.8 7.5-3 12Z" clip-rule="evenodd"/><path fill="#B09577" fill-rule="evenodd" d="M207.5 271.5c-.3 4.4 1.7 7 6 8 2 2 4.3 3.5 7 4.5 1.6.5 3.3.7 5 .5 5.3 2.4 11 3.4 17 3 5.4 0 10.8.7 16 2 8.5 1.2 17.2 1.3 26 .5 4.6-.3 9-1.1 13-2.5 5.7-1 11.3-2.2 17-3.5a8.6 8.6 0 0 0 6-6.5c1.2-3.2 2.2-6.5 3-10 .8 3.1 1.3 6.5 1.5 10 2.2 4.6 5 8.8 8.5 12.5-2.7 2-5.7 3.2-9 4-38-.2-76-.2-114 0l-6-2c-6.8-7.8-12.8-16-18-24.5a60.7 60.7 0 0 1-.5-19c.7 1.1 1.6 1.1 2.5 0 3.7 2.9 7.5 5.5 11.5 8 3 4.9 5.6 9.9 7.5 15Z" clip-rule="evenodd"/><path fill="#7D695A" fill-rule="evenodd" d="M297.5 287.5c-4 1.4-8.4 2.2-13 2.5-8.8.8-17.5.7-26-.5 13 .2 26-.4 39-2Z" clip-rule="evenodd"/><path fill="#5B493F" fill-rule="evenodd" d="M251.5 284.5c9.3.7 18.6 1 28 1-3.5.7-7.2 1-11 1-6 .2-11.6-.5-17-2Z" clip-rule="evenodd"/><path fill="#463E35" fill-rule="evenodd" d="M225.5 284.5c5.9.5 11.5 1.5 17 3-6 .4-11.7-.6-17-3Z" clip-rule="evenodd"/><path fill="#9F8770" fill-rule="evenodd" d="M303.5 281.5c-8 1.1-16 2.5-24 4-9.4 0-18.7-.3-28-1-1.2-.8-2.2-1.8-3-3l9-1a89.4 89.4 0 0 0 35-1.5c1.7-2 3.6-3.9 5.5-5.5 1.7.3 2.7 1.3 3 3 .4-.5 1-.8 1.5-1a9 9 0 0 0 5 2.5 5 5 0 0 0-4 3.5Z" clip-rule="evenodd"/><path fill="#7F6752" fill-rule="evenodd" d="M309.5 269.5c3.6 2.1 4.6 5.1 3 9-3 1.2-6 2.2-9 3 .6-2 2-3 4-3.5a9 9 0 0 1-5-2.5c-.6.2-1 .5-1.5 1a3.5 3.5 0 0 0-3-3c-2 1.6-3.8 3.5-5.5 5.5a89.4 89.4 0 0 1-35 1.5l-9 1c.8 1.2 1.8 2.2 3 3-1.6.3-3 0-4-1-1.3-1-1.3-2 0-3 3.4-.4 6.4-1.4 9-3h19a43.5 43.5 0 0 0 16 .5c2.7-3.7 5.7-7 9-10a11 11 0 0 1 9 1.5Z" clip-rule="evenodd"/><path fill="#675748" fill-rule="evenodd" d="M223.5 268.5a91 91 0 0 0 13 5 29 29 0 0 0 5 3.5c5 .5 10 .7 15 .5a21.6 21.6 0 0 1-9 3c-1.3 1-1.3 2 0 3-5 .1-9.6-.5-14-2 3 .2 6 0 9-.5a7 7 0 0 1-5-5c-4.9-1.7-9.7-3.5-14.5-5.5-1.9.9-3 2.4-3.5 4.5 3.7 2 7.4 4.2 11 6.5-5.2-.1-9.6-2.1-13-6-.8-4.8 1.2-7.2 6-7Z" clip-rule="evenodd"/><path fill="#8E7862" fill-rule="evenodd" d="M233.5 281.5h-3a251 251 0 0 0-11-6.5 6.1 6.1 0 0 1 3.5-4.5c4.8 2 9.6 3.8 14.5 5.5a7 7 0 0 0 5 5c-3 .5-6 .7-9 .5Z" clip-rule="evenodd"/><path fill="#0E0604" fill-rule="evenodd" d="M256.5 277.5c-5 .2-10 0-15-.5a29 29 0 0 1-5-3.5c-1.1-1.4-1.1-2.7 0-4 .7.5 1.2 1.2 1.5 2 .4-1.4 1-2.7 1.5-4 .8-.4 1.6-.8 2.5-1 4.7 1.5 9.4 3.2 14 5 .9-.2 1.7-.6 2.5-1 1 1.9 1.3 3.9 1 6-1.3-.2-2.3.1-3 1Z" clip-rule="evenodd"/><path fill="#48351F" fill-rule="evenodd" d="M313.5 257.5c-.4 3.8-2.4 6.2-6 7a6 6 0 0 0 2 5 11 11 0 0 0-9-1.5c-3.3 3-6.3 6.3-9 10-5.5.8-10.9.7-16-.5 5.9.4 11.6-.2 17-2 .6-2.6 1-5.3 1-8 1.3 1.3 2.3 1 3-1a33 33 0 0 0 1-8c1.9 2.5 3.7 2.5 5.5 0 .9.6 1.9 1 3 1 2.5-.8 5-1.5 7.5-2Z" clip-rule="evenodd"/><path fill="#0B0808" d="M400.5 192 373 169.5l10.5-6 84 43.5v10h-6l-61-25Z"/><path fill="#0B0403" fill-rule="evenodd" d="M292.5 265.5c.8.3 1.2 1 1 2 0 2.7-.4 5.4-1 8a43.5 43.5 0 0 1-17 2h-2c-3.3-1.8-7-2.8-11-3-.3-2.8.2-5.5 1.5-8 2.3 2.3 4.8 4.3 7.5 6 2.2-2.4 5-4.4 8-6 4.3-1 8.6-1.3 13-1Z" clip-rule="evenodd"/><path fill="#0E0806" fill-rule="evenodd" d="M349.5 282.5v1a20 20 0 0 1-16-4 17.2 17.2 0 0 1-.5-10c9.4-8.9 17.3-7.4 23.5 4.5l-.5 2.5c-2 2.2-4.2 4.2-6.5 6Z" clip-rule="evenodd"/><path fill="#68594A" fill-rule="evenodd" d="M348.5 258.5c-3.4-.2-6.7 0-10 .5 15.4.5 21.4 8 18 22.5-.7-.4-1.2-1-1.5-2-1 2.5-2.8 3.5-5.5 3 2.3-1.8 4.5-3.8 6.5-6l.5-2.5c-6.2-11.9-14-13.4-23.5-4.5-.8 3.4-.7 6.7.5 10a20 20 0 0 0 16 4 33.5 33.5 0 0 1-14 .5c-2-1-3.8-2.1-5.5-3.5-4.4-9.3-2-16.2 7.5-20.5-.6-.5-1.3-.6-2-.5 2.1-1.5 4.6-2.2 7.5-2 2 0 3.9.3 5.5 1Z" clip-rule="evenodd"/><path fill="#43301B" fill-rule="evenodd" d="M218.5 255.5c8.8 2.8 17.8 5.1 27 7 4 1.7 8.4 2.8 13 3.5 2 3.5 3.3 3.3 4-.5a9 9 0 0 1 5.5 1l12.5-3 12 2c-4.4-.3-8.7 0-13 1-3 1.6-5.8 3.6-8 6a47.6 47.6 0 0 1-7.5-6 14.7 14.7 0 0 0-1.5 8c4 .2 7.7 1.2 11 3h-17c.7-.9 1.7-1.2 3-1 .3-2.1 0-4.1-1-6-.8.4-1.6.8-2.5 1-4.6-1.8-9.3-3.5-14-5-.9.2-1.7.6-2.5 1-.4-1-1-1-2 0-1-2.3-2.7-4-5-5-.7.5-1.2 1.2-1.5 2-2-.5-3.7-1.5-5-3-.4 2.6-1.2 4.9-2.5 7-4.8-.2-6.8 2.2-6 7-1.8-4.5-.8-8.5 3-12-2.1-5.2-5.8-6.9-11-5v14a61.8 61.8 0 0 0-4.5-16c-2-2.6-4.6-4.6-7.5-6a45.8 45.8 0 0 1-3-7c.9-1 1.9-1 3 0l3 4c3.5-1.2 5.5.1 6 4 1.8.1 3.4-.2 5-1 0 1.2.3 2.5 1 4 1.9 1 3.9 1.3 6 1Z" clip-rule="evenodd"/><path fill="#2A1A10" fill-rule="evenodd" d="M239.5 267.5c-.6 1.3-1 2.6-1.5 4-.3-.8-.8-1.5-1.5-2-1.1 1.3-1.1 2.6 0 4a91 91 0 0 1-13-5c1.3-2.1 2.1-4.4 2.5-7 1.3 1.5 3 2.5 5 3 .3-.8.8-1.5 1.5-2 2.3 1 4 2.7 5 5 1-1 1.6-1 2 0Z" clip-rule="evenodd"/><path fill="#654F30" fill-rule="evenodd" d="M282.5 253.5h2c-1.4 1.1-1.2 2.1.5 3 .4-.2.6-.6.5-1h10l2 3a33 33 0 0 1-1 8c-.7 2-1.7 2.3-3 1 .2-1-.2-1.7-1-2l-12-2-12.5 3a9 9 0 0 0-5.5-1l4-2.5c-2.5-1.5-2.5-3 0-4.5 4.3-.8 8.6-1.3 13-1.5 2-.4 3-1.6 3-3.5Z" clip-rule="evenodd"/><path fill="#746046" fill-rule="evenodd" d="M231.5 247.5h4v6a66 66 0 0 0 9.5 2c1.7 0 3.2-.3 4.5-1 .7 1 1.7 1.7 3 2 4.1 1 8.5 1.3 13 1v-4a5.5 5.5 0 0 1 3-3c-.5 1.6-.9 3.3-1 5-.6.9-1 1.9-1 3-2.5 1.5-2.5 3 0 4.5-1.4 1-2.7 1.8-4 2.5-.7 3.8-2 4-4 .5-4.6-.7-9-1.8-13-3.5 1 .1 2 0 3-.5-5.5-2-11.2-3.6-17-5-2-.8-4-2-5.5-3.5a13 13 0 0 1-5.5 1v-3h3c1 0 1.8.2 2.5 1 .4-1.3 1.3-2 2.5-2 1.6-.3 2.6-1.3 3-3Z" clip-rule="evenodd"/><path fill="#49351F" fill-rule="evenodd" d="M334.5 240.5a49 49 0 0 0 5 7c-4.7 3.7-8.7 8-12 13-.7-1.3-1.5-1.3-2.5 0-.7 2.3-1.2 4.6-1.5 7-.8 3.5-1.8 6.8-3 10-.2-5.4.1-10.7 1-16l-1-2c-3.5 3-5.9 2.4-7-2 5.5-3.3 11.2-6.5 17-9.5l2-5.5c1.3 0 2-.7 2-2Z" clip-rule="evenodd"/><path fill="#947F58" fill-rule="evenodd" d="M223.5 251.5h-3v3a13 13 0 0 0 5.5-1c1.6 1.5 3.4 2.7 5.5 3.5 5.8 1.4 11.5 3 17 5a5 5 0 0 1-3 .5c-9.2-1.9-18.2-4.2-27-7-3.3-.5-5-2.5-5-6h-3a6.5 6.5 0 0 0-3-5c3.3-1 5 .3 5 4h4v4c1 .1 2 0 3-.5-.8-1-1.2-2.2-1-3.5 2.5-.3 4.2.7 5 3Z" clip-rule="evenodd"/><path fill="#1F1815" fill-rule="evenodd" d="M265.5 253.5v4c-4.5.3-8.9 0-13-1v-6c4-.2 8 0 12 .5.8.7 1 1.5 1 2.5Z" clip-rule="evenodd"/><path fill="#170A05" fill-rule="evenodd" d="M281.5 252.5c.7 0 1 .3 1 1 0 2-1 3-3 3.5-4.4.2-8.8.7-13 1.5 0-1.1.4-2.1 1-3 4-1.7 8.1-3 12.5-4 .4.6.9.9 1.5 1Z" clip-rule="evenodd"/><path fill="#422915" fill-rule="evenodd" d="M273.5 247.5c3.4.7 6 2.4 8 5-.6-.1-1.1-.4-1.5-1-4.4 1-8.5 2.3-12.5 4 .1-1.7.5-3.4 1-5-1.1-.9-1.1-1.7 0-2.5a13 13 0 0 1 5-.5Z" clip-rule="evenodd"/><path fill="#100B09" fill-rule="evenodd" d="M235.5 247.5c4.5-.4 8.8.3 13 2a9.1 9.1 0 0 1 1 5c-1.3.7-2.8 1-4.5 1a66 66 0 0 1-9.5-2v-6Z" clip-rule="evenodd"/><path fill="#190E09" fill-rule="evenodd" d="M313.5 249.5c-3.6 1.5-7.2 2.8-11 4-1.2-.2-1.9-1-2-2 1-5 4-7.4 9.5-7a9 9 0 0 1 5.5 3l-2 2Z" clip-rule="evenodd"/><path fill="#786544" fill-rule="evenodd" d="m332.5 242.5-2 5.5c-5.8 3-11.5 6.2-17 9.5-2.5.5-5 1.2-7.5 2-1.1 0-2.1-.4-3-1-1.8 2.5-3.6 2.5-5.5 0l-2-3h3c-1-2.7-1-5.4 0-8l2 4c.1 1 .8 1.8 2 2 3.8-1.2 7.4-2.5 11-4h3c-.3-1.6 0-3 1-4l10-3c2 .8 3.6.8 5 0Z" clip-rule="evenodd"/><path fill="#755B44" fill-rule="evenodd" d="M420.5 301.5c1 4.1 1.3 8.5 1 13 2.7-.3 5 .3 7 2 1.4 1.4 2.4 3 3 5a6 6 0 0 0-5-2c-.4-1.4-1.4-2.3-3-2.5-21.2-.8-42.4-1.3-63.5-1.5-20.5 1.9-41 3-61.5 3.5a23 23 0 0 0 5 2c-3.4.3-6.7.8-10 1.5-3.3-1.8-5.7-1-7 2.5 5.2.2 10.2.7 15 1.5h-45c4.6-.7 9.2-1.5 14-2.5 1.3-.7 1.3-1.3 0-2l-25-1c-7.7-.6-15-1.7-22-3.5 24 1 48 1.3 72 .5a74.1 74.1 0 0 0-19-1.5v-2h38c35.3-.7 70.7-1 106-1v-12Z" clip-rule="evenodd"/><path fill="#513A21" fill-rule="evenodd" d="M316.5 241.5a7 7 0 0 0 1 4c-1 1-1.3 2.4-1 4h-3l2-2a9 9 0 0 0-5.5-3c-5.4-.4-8.6 2-9.5 7l-2-4c-1 2.6-1 5.3 0 8h-8a7 7 0 0 0 1-4h3c-.1 1 0 2 .5 3 .8-2 1.3-4 1.5-6-4-.3-7.6.4-11 2v5c0 .4-.1.8-.5 1-1.7-.9-1.9-1.9-.5-3a6.7 6.7 0 0 0-2-4c1.5-2.1 3.5-3.6 6-4.5 7-.3 14-.8 21-1.5 1.7 0 3.4.4 5 1a44 44 0 0 1 2-3Z" clip-rule="evenodd"/><path fill="#130602" fill-rule="evenodd" d="M290.5 255.5h-5v-5c3.4-1.6 7-2.3 11-2-.2 2-.7 4-1.5 6a5 5 0 0 1-.5-3h-3a7 7 0 0 1-1 4Z" clip-rule="evenodd"/><path fill="#110701" fill-rule="evenodd" d="M231.5 247.5c-.4 1.7-1.4 2.7-3 3-2.2-2-4.9-3-8-3-.5-2.3-.8-4.6-1-7 4.2.5 8.2 1.7 12 3.5 1.2 1.1 1.2 2.3 0 3.5Z" clip-rule="evenodd"/><path fill="#150A04" fill-rule="evenodd" d="m327.5 242.5-10 3a7 7 0 0 1-1-4c0-.7.3-1 1-1 .8-.3 1.5-.8 2-1.5 4-1.4 6.7-.3 8 3.5Z" clip-rule="evenodd"/><path fill="#1F1309" fill-rule="evenodd" d="M300.5 239.5c-2.4 1.6-4.4 1.2-6-1 0-1 .2-1.8 1-2.5 3.4-1.2 5 0 5 3.5Z" clip-rule="evenodd"/><path fill="#A1958C" fill-rule="evenodd" d="M428.5 295.5h1a39.3 39.3 0 0 1 2 16l-3-16Z" clip-rule="evenodd"/><path fill="#170D07" fill-rule="evenodd" d="M419.5 301.5h1v12c-35.3 0-70.7.3-106 1 16-1.5 32-3.4 48-5.5l-15-1c4.7-1.1 9.5-1.6 14.5-1.5l45.5 1.5c2.4 3 5.4 4 9 2.5 1.2-3 2.2-6 3-9Z" clip-rule="evenodd"/><path fill="#765C49" fill-rule="evenodd" d="M124.5 313.5h3c36.3 0 72.7.3 109 1 12.7 0 25 .7 37 2-16.8-.3-33.5 0-50 1-4.3-.3-8.4 0-12.5 1-1-.7-2.2-1.2-3.5-1.5l-87-1c.6-.4.9-.9 1-1.5 1.1 0 2.1-.4 3-1Z" clip-rule="evenodd"/><path fill="#523925" fill-rule="evenodd" d="M223.5 317.5c16.5-1 33.2-1.3 50-1 1 1.3 2 1.3 3 0 6.4-.3 12.7.2 19 1.5-24 .8-48 .6-72-.5Z" clip-rule="evenodd"/><path fill="#815F43" fill-rule="evenodd" d="M426.5 319.5c-1.8.8-3.8 1.3-6 1.5l3 1c-1.9.2-3.6.9-5 2-39 .7-78 1.5-117 2.5-4.8-.8-9.8-1.3-15-1.5 1.3-3.5 3.7-4.3 7-2.5 3.3-.7 6.6-1.2 10-1.5a23 23 0 0 1-5-2c20.5-.5 41-1.6 61.5-3.5 21.1.2 42.3.7 63.5 1.5 1.6.2 2.6 1 3 2.5Z" clip-rule="evenodd"/><path fill="#835F41" fill-rule="evenodd" d="M121.5 314.5c-.1.6-.4 1.1-1 1.5l87 1c1.3.3 2.4.8 3.5 1.5 4-1 8.2-1.3 12.5-1 7 1.8 14.3 3 22 3.5l25 1c1.3.7 1.3 1.3 0 2-4.8 1-9.4 1.8-14 2.5a224 224 0 0 1-38-3c-33 .6-66 1.2-99 2-3.2.5-5.9-.1-8-2 3.1-3.2 6.5-6.2 10-9Z" clip-rule="evenodd"/><path fill="#705743" fill-rule="evenodd" d="M426.5 319.5a6 6 0 0 1 5 2c1.3 3 3.3 5.3 6 7-2.2-.2-4.2-.9-6-2-3.7-.7-7.5-1-11.5-1-28.3.6-56.5 1.2-84.5 2h-116l-100-2c33-.8 66-1.4 99-2 12.6 2 25.2 3 38 3h45c39-1 78-1.8 117-2.5a9.9 9.9 0 0 1 5-2l-3-1c2.2-.2 4.2-.7 6-1.5Z" clip-rule="evenodd"/><path fill="#3C2B20" fill-rule="evenodd" d="M431.5 326.5c-32 .8-64 1.1-96 1 28-.8 56.2-1.4 84.5-2 4 0 7.8.3 11.5 1Z" clip-rule="evenodd"/><path fill="#A38465" fill-rule="evenodd" d="M431.5 311.5c5 7.3 10.3 14.3 16 21-2 7.6-2.6 15.6-2 24h-1c.3-8.2 0-16.2-1-24 0-.7-.3-1-1-1a29.6 29.6 0 0 0-5-3c-2.7-1.7-4.7-4-6-7-.6-2-1.6-3.6-3-5 1 0 1.8.2 2.5 1-.4-1.9-.3-3.9.5-6Z" clip-rule="evenodd"/><path fill="#110704" fill-rule="evenodd" d="M431.5 326.5c1.8 1.1 3.8 1.8 6 2 1.7.8 3.4 1.8 5 3-1 1.6-2.8 2.4-5 2.5-110.3.5-220.7.7-331 .5v-2c2.6-1 5-2.5 7-4.5 35.3-.5 70.7-.7 106-.5h116c32 .1 64-.2 96-1Z" clip-rule="evenodd"/><path fill="#3B2619" fill-rule="evenodd" d="M442.5 331.5c.7 0 1 .3 1 1v3h-338c0-.7.3-1 1-1 110.3.2 220.7 0 331-.5 2.2 0 4-.9 5-2.5Z" clip-rule="evenodd"/><path fill="#69513E" fill-rule="evenodd" d="M105.5 335.5h337c-110.2 1-220.5 1.3-331 1h-5v19c112.5-.3 224.8 0 337 1h-338v-21Z" clip-rule="evenodd"/><path fill="#8B6C4F" fill-rule="evenodd" d="M442.5 335.5h1v4c-9.3.3-18.6 1-28 2h-304c-1.2 3-1.2 1.3 0-5 110.5.3 220.8 0 331-1Z" clip-rule="evenodd"/><path fill="#81654F" fill-rule="evenodd" d="M443.5 332.5c1 7.8 1.3 15.8 1 24h-1c-112.2-1-224.5-1.3-337-1v-19h3c.3 4 0 7.8-1 11.5.7 1.4 1.2 2.9 1.5 4.5 3 .6 6 1 9 1 8-.5 16-.8 24-1 41.5 1 83 1.6 124.5 2l172-.5c.9-1 1.9-1.9 3-2.5 1-4 1.3-8 1-12v-7Z" clip-rule="evenodd"/><path fill="#8C6949" fill-rule="evenodd" d="M109.5 336.5h2c-1.2 6.3-1.2 8 0 5h304c9.4-1 18.8-1.7 28-2 .3 4 0 8-1 12-1.1.6-2.1 1.5-3 2.5-57.5 0-114.8.3-172 .5-41.5-.4-83-1-124.5-2-8 .2-16 .5-24 1-3 0-6-.4-9-1-.3-1.6-.8-3.1-1.5-4.5 1-3.7 1.3-7.6 1-11.5Z" clip-rule="evenodd"/><path fill="#020000" fill-rule="evenodd" d="M104.5 349.5h1v7c7.1 1 14.5 1.3 22 1 55 1.4 110.2 2.4 165.5 3l74.5-1a346 346 0 0 1-8-2c28-.2 56 0 84 .5 1 8.4 1.3 17 1 25.5v2c-.7 0-1 .3-1 1h-12c-10.7.3-21.4 0-32-1a4.5 4.5 0 0 0-2-1.5c-36.5-1-73-.5-109.5 1.5l-32.5-1h-3l-61-1c-28.6 1.6-57.3 2.3-86 2 .3 4.2 0 8.2-1 12v-48Z" clip-rule="evenodd"/><path fill="#3A291E" fill-rule="evenodd" d="M105.5 356.5h340v27h-1c.3-8.6 0-17-1-25.5-28-.5-56-.7-84-.5h-232c-7.5.3-14.9 0-22-1Z" clip-rule="evenodd"/><path fill="#180B07" fill-rule="evenodd" d="M127.5 357.5h232l8 2-74.5 1c-55.3-.6-110.5-1.6-165.5-3Z" clip-rule="evenodd"/><path fill="#A38465" fill-rule="evenodd" d="M447.5 332.5a3 3 0 0 1 2 2c0 1.3.5 2.3 1.5 3 .5 18.3.7 36.7.5 55-5-.8-7-3.8-6-9v-27c-.6-8.4 0-16.4 2-24Z" clip-rule="evenodd"/><path fill="#3A281E" fill-rule="evenodd" d="M252.5 384.5h3a315 315 0 0 0 38 2c32.6-1.8 65.3-2.4 98-2v3h-88c-65.2.3-130.2 0-195-1 48-.4 96-1.1 144-2Z" clip-rule="evenodd"/><path fill="#1E140D" fill-rule="evenodd" d="M431.5 386.5c-13.2 1-26.5 1.3-40 1v-3c-32.7-.4-65.4.2-98 2a315 315 0 0 1-38-2l32.5 1c36.5-2 73-2.5 109.5-1.5.8.3 1.5.8 2 1.5 10.6 1 21.3 1.3 32 1Z" clip-rule="evenodd"/><path fill="#6F5440" fill-rule="evenodd" d="M444.5 385.5a20 20 0 0 0 2 10v1a4.2 4.2 0 0 1-2.5-3c.5 5.2-1.9 7.2-7 6a53.5 53.5 0 0 0-21.5.5c-103 1.3-206 1.8-309 1.5-.6-5.4 0-10.4 2-15 64.8 1 129.8 1.3 195 1 0 .7.3 1 1 1a7 7 0 0 1-2 2.5l-15.5.5c-58.5-.7-117-1.6-175.5-2.5-2.6 3-3.6 6.5-3 10.5l135 1c11-.4 21.9-1.7 32.5-4 7.8 1.7 15.6 2 23.5 1l12 1.5c25 .3 50 .4 75 .5 9.3-.7 18.7-1.5 28-2.5a9 9 0 0 0 1-5.5c-5.3-.3-10.4 0-15.5 1-3.3-.6-6.4-1.4-9.5-2.5-23.8-.2-47.5-.7-71-1.5 41.7.7 83 0 124-2 0-.7.3-1 1-1Z" clip-rule="evenodd"/><path fill="#77563D" fill-rule="evenodd" d="M304.5 388.5h15c23.5.8 47.2 1.3 71 1.5 3 1.1 6.2 2 9.5 2.5 5-1 10.2-1.3 15.5-1a9 9 0 0 1-1 5.5c-9.3 1-18.7 1.8-28 2.5-25 0-50-.2-75-.5l-12-1.5c-7.9 1-15.7.7-23.5-1a180.8 180.8 0 0 1-32.5 4l-135-1c-.6-4 .4-7.5 3-10.5 58.5 1 117 1.8 175.5 2.5l15.5-.5a7 7 0 0 0 2-2.5Z" clip-rule="evenodd"/><path fill="#4E3B2E" fill-rule="evenodd" d="M431.5 386.5h12c-41 2-82.3 2.7-124 2h-15c-.7 0-1-.3-1-1h88c13.5.3 26.8 0 40-1Z" clip-rule="evenodd"/><path fill="#523C2D" fill-rule="evenodd" d="M446.5 396.5c.1 1.7.5 3.4 1 5-13.5-.3-26.8 0-40 1-50 .7-100.2 1-150.5 1-50.5 0-100.7-.7-150.5-2 103 .3 206-.2 309-1.5a53.5 53.5 0 0 1 21.5-.5c5.1 1.2 7.5-.8 7-6a4.2 4.2 0 0 0 2.5 3Z" clip-rule="evenodd"/><path fill="#0C0404" fill-rule="evenodd" d="M252.5 384.5c-48 .9-96 1.6-144 2-2 4.6-2.6 9.6-2 15 49.8 1.3 100 2 150.5 2 50.3 0 100.5-.3 150.5-1 13-.3 26 0 39 1-.7.8-1.6 1.5-2.5 2a73 73 0 0 1-2.5 16h-330c-2.5-3-4.5-6.4-6-10-.7-4.6-1-9.3-1-14 1-3.8 1.3-7.8 1-12 28.7.3 57.4-.4 86-2l61 1Z" clip-rule="evenodd"/></svg>