<svg xmlns="http://www.w3.org/2000/svg" width="512" height="512" fill="none"><path fill="#A6ABA7" fill-rule="evenodd" d="M348.5 27.5a814 814 0 0 1 5 4c3 3 4.7 6.7 5 11 .2 1.4 0 2.7-.5 4a8.8 8.8 0 0 0-1.5-4v-1c-4.2-11.3-11.8-15.3-23-12a18 18 0 0 0-6 4c-.5 0-.9-.4-1-1a6.7 6.7 0 0 0 2-4 22 22 0 0 1 20-1Z" clip-rule="evenodd"/><path fill="#3F403D" fill-rule="evenodd" d="m356.5 41.5-2-1-2-2c-.6-1.6-1.6-3-3-4l-2-1c-1.1-1.7-2.8-2.4-5-2v-3c-3 .2-6 .5-9 1 11.2-3.3 18.8.7 23 12Z" clip-rule="evenodd"/><path fill="#E6F0ED" fill-rule="evenodd" d="m347.5 33.5 2 1v2c-.7 4-3 5.5-7 4.5-2.5-2-2.5-4.2 0-6.5a9.2 9.2 0 0 1 5-1Z" clip-rule="evenodd"/><path fill="#938F89" fill-rule="evenodd" d="M342.5 31.5c2.2-.4 3.9.3 5 2-1.8-.1-3.5.2-5 1h-3c.2 5 .2 10 0 15h-1c1.8-3.3 1-5.6-2.5-7-3.4-7-1.3-10.7 6.5-11Z" clip-rule="evenodd"/><path fill="#4A4436" fill-rule="evenodd" d="M353.5 31.5c3.7 2.3 6.2 5.6 7.5 10 .2-3.4-.3-6.7-1.5-10a5 5 0 0 1 2.5 4c.7 5 .5 10-.5 15 0 2 .6 3.7 2 5-1.4 1.3-2.9 1.3-4.5 0-1.2 1.7-2.7 3-4.5 4 .6-2.6 1.8-5 3.5-7l1.5-7.5c0-1-.4-1.9-1-2.5-.3-4.3-2-8-5-11Z" clip-rule="evenodd"/><path fill="#908A85" fill-rule="evenodd" d="M349.5 34.5c1.4 1 2.4 2.4 3 4-1.1 3.7-2.8 7-5 10v-4c-1.6.2-3-.3-4-1.5 3.6 0 6-1.7 7-5 0-.8-.4-1.3-1-1.5v-2Z" clip-rule="evenodd"/><path fill="#795B52" fill-rule="evenodd" d="m352.5 38.5 2 2c.6 3.6-.4 6.6-3 9a51.3 51.3 0 0 1-14 3c-.2-1.3.1-2.3 1-3h1c2.8.2 5.4-.1 8-1 2.2-3 3.9-6.3 5-10Z" clip-rule="evenodd"/><path fill="#170E0D" fill-rule="evenodd" d="M342.5 31.5c-7.8.3-10 4-6.5 11 3.5 1.4 4.3 3.7 2.5 7-.9.7-1.2 1.7-1 3 4.8-.4 9.5-1.4 14-3a9.6 9.6 0 0 0 3-9l2 1v1c.2 2 0 4-.5 6a52.2 52.2 0 0 1-9.5 11 14.2 14.2 0 0 1-14 0 9.9 9.9 0 0 1-1-6h-3c.3 5.6-1.2 6.3-4.5 2-3-8.2-1.9-15.5 3.5-22a18 18 0 0 1 6-4c3-.5 6-.8 9-1v3Z" clip-rule="evenodd"/><path fill="#722623" fill-rule="evenodd" d="M326.5 39.5h6c.2 1.6-.1 3.1-1 4.5-2 .5-4 .7-6 .5-.1-1.8.2-3.5 1-5Z" clip-rule="evenodd"/><path fill="#BCB9A9" fill-rule="evenodd" d="M342.5 34.5c-2.5 2.3-2.5 4.4 0 6.5 4 1 6.3-.5 7-4.5.6.2 1 .7 1 1.5-1 3.3-3.4 5-7 5 1 1.2 2.4 1.7 4 1.5v4c-2.6.9-5.2 1.2-8 1 .2-5 .2-10 0-15h3Z" clip-rule="evenodd"/><path fill="#3E2817" fill-rule="evenodd" d="M79.5 46.5c3.3.6 6.6.9 10 1a7 7 0 0 1-2 4 4.7 4.7 0 0 0-3 4c-4.3.2-6.3-2-6-6.5 0-1 .4-1.9 1-2.5Z" clip-rule="evenodd"/><path fill="#889494" fill-rule="evenodd" d="M328.5 28.5a6.7 6.7 0 0 1-2 4c.1.6.5 1 1 1a20.9 20.9 0 0 0-3.5 22c3.3 4.3 4.8 3.6 4.5-2h3c-.3 2.1 0 4.1 1 6 4.6 2.5 9.3 2.5 14 0 1 0 2-.4 3-1a3 3 0 0 1 1 3c-3.2 2-6.5 3.2-10 4-5 1.3-10 1-15-1l-5-6c-7.3-12.8-4.6-22.8 8-30Z" clip-rule="evenodd"/><path fill="#4C4D40" fill-rule="evenodd" d="M348.5 27.5a22 22 0 0 0-20 1c-12.6 7.2-15.3 17.2-8 30-1.1-1.4-1.8-1.2-2 .5 1 2.5 1.2 5 .5 7.5-.7.8-1.5 1-2.5 1-.2-6.7-.5-13.3-1-20v-2a19 19 0 0 1 4-13c2.4-1.2 4.4-2.9 6-5 6.6-4 13.6-4.9 21-2.5a7 7 0 0 1 2 2.5Z" clip-rule="evenodd"/><path fill="#75766E" fill-rule="evenodd" d="M356.5 42.5a8.8 8.8 0 0 1 1.5 4c.5-1.3.7-2.6.5-4 .6.6 1 1.4 1 2.5l-1.5 7.5c-1.7 2-2.9 4.4-3.5 7-1.7-.2-2.7.5-3 2a10.6 10.6 0 0 1-11 4c3.5-.8 6.8-2 10-4a3 3 0 0 0-1-3c-1 .6-2 1-3 1 3.6-3.1 6.8-6.8 9.5-11 .5-2 .7-4 .5-6Z" clip-rule="evenodd"/><path fill="#7C705E" fill-rule="evenodd" d="M87.5 51.5c-.2 2.4.1 4.8 1 7 1.2 1 2.5 1.3 4 1 4.2-.6 7.2-2.6 9-6 3-1 4.3.4 4 4-1.3.3-2.3 1-3 2-3 1.8-6.2 3-9.5 4-2.4 0-4.6-.6-6.5-2-1.8-1.5-2.4-3.5-2-6a4.7 4.7 0 0 1 3-4Z" clip-rule="evenodd"/><path fill="#2F140B" fill-rule="evenodd" d="M358.5 73.5c-1.6-3.4-2.6-7-3-11a4.9 4.9 0 0 0-4-1c.3-1.5 1.3-2.2 3-2 1.8-1 3.3-2.3 4.5-4 1.6 1.3 3.1 1.3 4.5 0l2-3c1.1 2 1.3 4 .5 6-2 4-4.2 7.6-7 11a8.4 8.4 0 0 0-.5 4Z" clip-rule="evenodd"/><path fill="#261304" fill-rule="evenodd" d="M105.5 57.5c.3 4 0 7.8-1 11.5-4 .8-8 .4-12-1l7-2.5c2-1.5 3-3.5 3-6 .7-1 1.7-1.7 3-2Z" clip-rule="evenodd"/><path fill="#020102" fill-rule="evenodd" d="M351.5 61.5c1.5-.3 2.8 0 4 1 .4 4 1.4 7.6 3 11 .8 5.2 3.8 7.2 9 6v4c2-.3 3.6 0 5 1 3.7 2.4 7.7 4.6 12 6.5 4.2 0 7.2 1.9 9 5.5a98.5 98.5 0 0 1 25 31c0 2.6 1 4.6 3 6 0 2.8.8 5.5 2 8a7 7 0 0 0 2 2.5c5.7.4 11 2 16 4.5-4.8 1.4-9.5 1-14-1-1.1 2-1.3 4-.5 6 .8 5 2.3 9.7 4.5 14 1.6-.3 3 0 4 1l1 2-5 2v7h4a44 44 0 0 0 3 2 9.9 9.9 0 0 1-6 1h-3a95.3 95.3 0 0 0-4 22c0 4.1.7 8.1 2 12-3 3.6-6.5 6.6-10.5 9a118 118 0 0 0-4.5 14c-4 10.5-7.7 21.2-11.5 32a34 34 0 0 0-1.5 8c-4 8.6-7.4 17.6-10 27-1.6 4.2-2.9 8.5-4 13-4.6 9.9-8.3 20.2-11 31-3.1 8.8-5.8 17.8-8 27-3 10.4-6.5 20.7-10.5 31a615.7 615.7 0 0 1-8.5 32 268.8 268.8 0 0 0-14 42c-.5 2.8-2.2 4.2-5 4-8.9-31-18.9-61.3-30-91-3.6-14.2-8-28.2-13-42l-1-4a740.7 740.7 0 0 0-19.5-54 936 936 0 0 0-16-46c-.7-2-1.9-3.8-3.5-5-5.1-1-10.5-1.3-16-1 3.1-7.3 4.5-15 4-23 .3-5.6 0-11-1-16.5a34 34 0 0 0 4-14c-1.4-1.3-1-2.2 1-2.5 3.4 1.6 7 3 10.5 4a274 274 0 0 1 11.5-2c-.1-2.6.6-4.9 2-7 1 .5 1.8 1.1 2.5 2l1-1c.7 3.2.5 6.4-.5 9.5.4 1.8 1 1.6 1.5-.5l1-5c-.7 7.7 1 14.5 5.5 20.5-1.4 2.1-1 2.6 1 1.5 1 1.9 1.3 3.9 1 6 3 1 5.6 2.3 8 4v3c1.7.1 3.4.5 5 1 1.7 1.8 3.7 3 6 4a16 16 0 0 0 10 6c1.5.8 3.2 1.1 5 1a7 7 0 0 0 2 2.5l9 2.5a43.5 43.5 0 0 0 16 .5c3.6-.9 6.9-2 10-3.5v-1a40 40 0 0 0 17-8c5.4-3 9.4-7.4 12-13 1 0 1.8-.2 2.5-1 4.1-6.9 7-14.2 8.5-22v-18c.7-5.2-.3-9.9-3-14l-2-3v-1a13 13 0 0 0-5-10 9 9 0 0 0-3-4c-.7-2.2-2-4-4-5.5-3.6-3-7.2-6-11-8.5h-1c-2-2.4-4.7-3.7-8-4-1.1-1.7-2.8-2.4-5-2 .2 2 0 4-.5 6a111 111 0 0 1-2.5-8c1-1.7 1.6-3.6 2-5.5l-3-9.5c-2-1.1-4-1.3-6-.5-.8.7-1 1.5-1 2.5 0 2.3-1 4-3 5 .7-5.8-1.8-8.8-7.5-9a6.6 6.6 0 0 0-5.5 3 38.5 38.5 0 0 0-4 6c-.7-1.8-1.7-3.5-3-5-2.6 1.8-2.6 3.7 0 5.5a53 53 0 0 0-17 9.5l-4-3a4.9 4.9 0 0 0-1 4h3c.3 4.1-1.7 6.1-6 6a47.5 47.5 0 0 0-4.5 8c-3.5-2.4-4.7-5.6-3.5-9.5-5.4-1.2-6-.2-2 3-1.8.7-2.6 1.9-2.5 3.5 2.5 1.2 4.7 2.9 6.5 5l-7 9c.4.8.8 1.6 1 2.5a55.4 55.4 0 0 0-3.5 8.5l-5 2c-1.9-.6-3.5 0-5 2-.7 1.6-.6 3.1.5 4.5l-4 1c1.1 2.4 1.3 4.9.5 7.5-.6-3.8-2.1-7.5-4.5-11-3.5-5.4-8.5-7.4-15-6-3.5.2-3.8-.6-1-2.5-2.4-.7-2.4-1.7 0-3-.8-1-1.2-2.2-1-3.5 3.3-.5 4.6-2.5 4-6 2.6-3 4.3-6.7 5-11 3.6-7.8 7.6-15.4 12-23 .9-.7 1.2-1.7 1-3 1.5.3 2.8 0 4-1 1-2 2.3-3.6 4-5-.2-6.3 2.8-10.2 9-11.5a26 26 0 0 0 5-5c2.6-.9 4.9-2.2 7-4a45 45 0 0 0 12-5.5 71.5 71.5 0 0 1 21-3.5c1.6-2.3 3-4.8 4-7.5 1 .6 2 1 3 1 5 2 10 2.3 15 1 4.6.8 8.3-.5 11-4Z" clip-rule="evenodd"/><path fill="#39302A" fill-rule="evenodd" d="m320.5 58.5 5 6c-1 0-2-.4-3-1-1 2.7-2.4 5.2-4 7.5-7.2.1-14.2 1.3-21 3.5 1-1.7 2.7-2.7 5-3a3 3 0 0 0 1-3c2.6 1 5.2 1.2 8 .5l2-4.5a32 32 0 0 0 2.5 4c.4-.2.6-.6.5-1 1 0 1.8-.2 2.5-1 .7-2.5.5-5-.5-7.5.2-1.7.9-1.9 2-.5Z" clip-rule="evenodd"/><path fill="#3B2315" fill-rule="evenodd" d="M105.5 87.5c-1 5.2-1 10.4 0 15.5l-2 13.5c2.5 1.2 4.5 2.9 6 5-2 .2-3.6 1-5 2.5a83 83 0 0 0-13 1.5l-2 18-2.5-9c-1.8-1.8-3.6-2.1-5.5-1l-8-3c-4.1-1.8-7.5-.8-10 3-1.1 0-2.1.4-3 1-2 1.8-3.4 4.2-4 7l3 10c-1 0-1.7.5-2 1.5 1.4 2.8 3 5.5 5 8-.4 1-1 1.6-2 2-5.6.6-6 1.1-1 1.5-6.5.8-13.2 1.5-20 2v-3c6.5.7 12.2-1 17-5a12.7 12.7 0 0 1-2-8c-2.5 0-4.5 1-6 3-.7-3.7 1-5.7 5-6v-9h3c.6-7.3 4.6-11 12-11a61 61 0 0 1 11 .5c2.3 2 5 2.9 8 2.5.3-2.8 1.2-5.5 2.5-8 5.3-1.1 6.5-3.8 3.5-8 .4-2.3 1.1-4.4 2-6.5-.7-5.1-.5-10.3.5-15.5 3-2.1 6.1-3.8 9.5-5Z" clip-rule="evenodd"/><path fill="#9F9382" fill-rule="evenodd" d="M89.5 47.5c5.4-.1 10.8.5 16 2 5 5.1 8 11.1 9 18v51h-3c.4-19.7-.1-39.4-1.5-59l-1-1c.6 14 .6 28 0 42-.4.5-1 .8-1.5 1-1-4.6-1.3-9.3-1-14 .3-10.2 0-20.2-1-30 .3-3.6-1-5-4-4 .2-1.3-.2-2.5-1-3.5a10.5 10.5 0 0 0-7-1c-1 3.4-1.3 6.9-1 10.5-1.5.3-2.8 0-4-1-.9-2.2-1.2-4.6-1-7a7 7 0 0 0 2-4Z" clip-rule="evenodd"/><path fill="#DFE5E5" fill-rule="evenodd" d="M101.5 53.5a11.2 11.2 0 0 1-9 6c-.3-3.6 0-7.1 1-10.5 2.4-.5 4.7-.2 7 1 .8 1 1.2 2.2 1 3.5Z" clip-rule="evenodd"/><path fill="#351D13" fill-rule="evenodd" d="M67.5 67.5c4 .2 5.5 2.2 4.5 6a25 25 0 0 0-11 7c-4-.2-5.6-2.2-5-6 2.4-1 4.9-1.3 7.5-1-.6-3.4.8-5.4 4-6Z" clip-rule="evenodd"/><path fill="#76675B" fill-rule="evenodd" d="M348.5 123.5h-4c0 2.4-.3 4.7-1 7a9.2 9.2 0 0 0-1 5 44 44 0 0 1-2-3c-1.7 1.1-2.4.4-2-2l.5-21c-1.1-3.6-3.3-4.6-6.5-3 0-1 .2-1.8 1-2.5 2-.8 4-.6 6 .5l3 9.5c-.4 2-1 3.8-2 5.5a111 111 0 0 0 2.5 8c.5-2 .7-4 .5-6 2.2-.4 3.9.3 5 2Z" clip-rule="evenodd"/><path fill="#7E6C58" fill-rule="evenodd" d="M329.5 111.5a6.8 6.8 0 0 0-2 5c-.4 3.3.6 6 3 8h-4c-1-5-1.3-10-1-15h-3c.7 5 .9 10 .5 15a4.3 4.3 0 0 1-4.5 2 36 36 0 0 0-3-17l1-4a6.6 6.6 0 0 1 5.5-3c5.7.2 8.2 3.2 7.5 9Z" clip-rule="evenodd"/><path fill="#8D7354" fill-rule="evenodd" d="M338.5 130.5c-1.6.3-2.6 1.3-3 3a4.9 4.9 0 0 1-4 1c.3-3.5 0-6.9-1-10a8.4 8.4 0 0 1-3-8c0-2.1.7-3.8 2-5 2-1 3-2.7 3-5 3.2-1.6 5.4-.6 6.5 3l-.5 21Z" clip-rule="evenodd"/><path fill="#513115" fill-rule="evenodd" d="M105.5 57.5c1 9.8 1.3 19.8 1 30h-1a39.2 39.2 0 0 0-9.5 5c-1 5.2-1.2 10.4-.5 15.5-.9 2-1.6 4.2-2 6.5 3 4.2 1.8 6.9-3.5 8a22.4 22.4 0 0 0-2.5 8c-3 .4-5.7-.5-8-2.5a61 61 0 0 0-11-.5l10-2c-2-3.4-2-6.5 0-9.5a9.4 9.4 0 0 1 10 2.5l2-7.5c-1-4.1-1.3-8.5-1-13a4.9 4.9 0 0 1 5-2.5c-.3-2.1 0-4.1 1-6 2.7-.6 5.2-1.6 7.5-3 1-4.8 1.2-9.5.5-14-1 .1-2 0-3-.5l1-1-9-1a17.8 17.8 0 0 0-5.5-4.5c.4-1.5.2-2.8-.5-4 1.9 1.4 4 2 6.5 2 3.3-1 6.5-2.2 9.5-4 0 2.5-1 4.5-3 6l-7 2.5c4 1.4 8 1.8 12 1 1-3.7 1.3-7.6 1-11.5Z" clip-rule="evenodd"/><path fill="#7A7273" fill-rule="evenodd" d="M312.5 121.5c.5-2 .7-4 .5-6a5.8 5.8 0 0 1-5.5 2c1.5-1.2 3.1-2.2 5-3 .6-.1 1.1-.4 1.5-1 3.7 3.5 3.2 6.2-1.5 8Z" clip-rule="evenodd"/><path fill="#5F5043" fill-rule="evenodd" d="M114.5 68.5c1 16.8 1.3 33.8 1 51-.6.9-1 1.9-1 3a9.2 9.2 0 0 0-5-1 15.5 15.5 0 0 0-6-5l2-13.5c-1-5.1-1-10.3 0-15.5h1c-.3 4.7 0 9.4 1 14 .6-.2 1-.5 1.5-1 .6-14 .6-28 0-42l1 1c1.4 19.6 1.9 39.3 1.5 59h3v-50Z" clip-rule="evenodd"/><path fill="#2A1207" fill-rule="evenodd" d="M79.5 116.5c4.3-.3 6.3 1.7 6 6-6 1.4-8-.6-6-6Z" clip-rule="evenodd"/><path fill="#5F544E" fill-rule="evenodd" d="M253.5 108.5c1-.2 1.7.2 2 1-4.4 7.6-8.4 15.2-12 23-1.6 1.5-3 3.2-4 5 .1-3 .8-5.8 2-8.5a51.6 51.6 0 0 1 9-15.5c1.2-1.6 2.2-3.3 3-5Z" clip-rule="evenodd"/><path fill="#382C2A" fill-rule="evenodd" d="m316.5 105.5-1 4a36 36 0 0 1 3 17c2 .3 3.5-.4 4.5-2 .4-5 .2-10-.5-15h3c-.3 5 0 10 1 15a7.6 7.6 0 0 1-4 4c-3.3-1.7-4.3-1-3 2-2-2.2-4.4-4.2-7-6-1.3-1.1-1.3-2.1 0-3 4.7-1.8 5.2-4.5 1.5-8-.4.6-.9.9-1.5 1v-3c1.2-2.1 2.5-4.1 4-6Z" clip-rule="evenodd"/><path fill="#291417" fill-rule="evenodd" d="M45.5 80.5c5.1.2 7.4 2.9 7 8-1.6.2-3.1-.1-4.5-1a26 26 0 0 0-3.5-5l1-2Z" clip-rule="evenodd"/><path fill="#959BA2" fill-rule="evenodd" d="M348.5 123.5c3.3.3 6 1.6 8 4-3.3-.5-6.7-.7-10-.5a7.5 7.5 0 0 1-3 3.5c.7-2.3 1-4.6 1-7h4Z" clip-rule="evenodd"/><path fill="#C5CDD6" fill-rule="evenodd" d="M312.5 121.5c-1.3.9-1.3 1.9 0 3 2.6 1.8 5 3.8 7 6 .8 3 1.1 6 1 9-3.3 2.2-7 3.7-11 4.5a7 7 0 0 0-2 2.5c-2 0-3 1-3 3a4 4 0 0 0-3.5 2c-2.1 2.6-4 5.3-5.5 8 .4-1.7.9-3.3 1.5-5 3.8-4 7-8.3 9.5-13 1.1-2.6 1-5.2-.5-8a4.6 4.6 0 0 0-4.5-2v3c-1.4 0-2.8-.3-4-1a98.3 98.3 0 0 0-7 5.5 8.8 8.8 0 0 1-5 1.5c-.1 5.2-2.4 8.9-7 11v-4c7-11 15.6-20.3 26-28 .5-1.4 1.5-2 3-2 2.2.3 4-.3 5.5-2 .2 2 0 4-.5 6Z" clip-rule="evenodd"/><path fill="#9695A4" fill-rule="evenodd" d="M357.5 127.5c3.8 2.6 7.4 5.4 11 8.5 2 1.5 3.3 3.3 4 5.5-5.7-4-10.7-8.7-15-14Z" clip-rule="evenodd"/><path fill="#50525A" fill-rule="evenodd" d="M73.5 130.5c-1-.1-2 0-3 .5 3.9 1.5 7.4 3.7 10.5 6.5 2 3 3.2 6.4 3.5 10-.7 0-1 .3-1 1h-1c0-3.1-1-5.8-3-8-.2-2.4-1.5-3.4-4-3a16.7 16.7 0 0 0-12-4c2.5-3.8 5.9-4.8 10-3Z" clip-rule="evenodd"/><path fill="#727A8D" fill-rule="evenodd" d="M304.5 119.5c-10.4 7.7-19 17-26 28-.6 1.6-1.6 3-3 4 1.7-5 4.2-9.7 7.5-14l13.5-13.5c2.3-2.2 5-3.7 8-4.5Z" clip-rule="evenodd"/><path fill="#515563" fill-rule="evenodd" d="M306.5 141.5a26 26 0 0 1-5-7v-3c1.9-.2 3.4.5 4.5 2a8.7 8.7 0 0 1 .5 8Z" clip-rule="evenodd"/><path fill="#160E09" fill-rule="evenodd" d="M139.5 132.5a12 12 0 0 1 1 6c-1.9 1.3-3.9 1.3-6 0-2-5-.4-7 5-6Z" clip-rule="evenodd"/><path fill="#D6DCE0" fill-rule="evenodd" d="M356.5 127.5h1c4.3 5.3 9.3 10 15 14a9 9 0 0 1 3 4l1 4a941 941 0 0 1-4 5h-1c-4.5.9-7.8-.6-10-4.5-3.4-.2-6.7-.7-10-1.5 1.2-1.7 1.2-3.4 0-5l-8-6c-.8-.3-1.2-1-1-2-.1-1.8.2-3.5 1-5 1.3-.8 2.3-2 3-3.5 3.3-.2 6.7 0 10 .5Z" clip-rule="evenodd"/><path fill="#B2B2BA" fill-rule="evenodd" d="M75.5 137.5c2.5-.4 3.8.6 4 3 0 2.7-.6 5-2 7 1.5-8.2-1.5-10.7-9-7.5a4.6 4.6 0 0 0-2 4.5c2.3-.4 4 .2 5 2-5.4 1.8-7.4 0-6-5.5-.6-1.7-1.6-1.9-3-.5-1.7-4.6 0-6.6 5-6v3h8Z" clip-rule="evenodd"/><path fill="#727284" fill-rule="evenodd" d="m73.5 130.5 8 3c5.8 4.7 7.3 10.7 4.5 18a4.4 4.4 0 0 1-1.5-4c-.3-3.6-1.5-7-3.5-10-3.1-2.8-6.6-5-10.5-6.5 1-.5 2-.6 3-.5Z" clip-rule="evenodd"/><path fill="#4B3829" fill-rule="evenodd" d="M131.5 131.5c2.9-.3 5.6 0 8 1-5.4-1-7 1-5 6 2.1 1.3 4.1 1.3 6 0 3.6 1 7.2 1.3 11 1-3.5 1-7.1 1.3-11 1 0 1.7-.7 3-2 4a11.4 11.4 0 0 1-6 2c2.8-1.7 2.5-2.9-1-3.5-4.3-.5-8.7-.7-13-.5v-3c3.7 1 7.3 1 11 0a13 13 0 0 1-5-4c0-1 .5-1.7 1.5-2 3.1 3 5 2.4 5.5-2Z" clip-rule="evenodd"/><path fill="#585149" fill-rule="evenodd" d="M151.5 139.5h13c1.9.8 3.9 1.5 6 2v10c-.6-3-1.4-6-2.5-9a25 25 0 0 0-.5 7l-8-3h7v-5c-6 0-12 .5-18 1.5 1.2.2 2.2.7 3 1.5h-13c1.3-1 2-2.3 2-4 3.9.3 7.5 0 11-1Z" clip-rule="evenodd"/><path fill="#656B6F" fill-rule="evenodd" d="M320.5 139.5c-.8 1.3-1.8 2.5-3 3.5-3.6.7-6.9 1.9-10 3.5a7 7 0 0 1 2-2.5c4-.8 7.7-2.3 11-4.5Z" clip-rule="evenodd"/><path fill="#868384" fill-rule="evenodd" d="M63.5 133.5c4.6-.2 8.6 1.1 12 4h-8v-3c-5-.6-6.7 1.4-5 6 1.4-1.4 2.4-1.2 3 .5-1.4 5.4.6 7.3 6 5.5 1.4.5 2 1.5 2 3-3.6-1-7.2-1.3-11-1a15 15 0 0 1-2-14c.9-.6 1.9-1 3-1Z" clip-rule="evenodd"/><path fill="#EEEFEB" fill-rule="evenodd" d="M77.5 147.5c-.2 2.4-1.5 3.4-4 3v-1c0-1.5-.6-2.5-2-3-1-1.8-2.7-2.4-5-2-.2-1.9.5-3.4 2-4.5 7.5-3.2 10.5-.7 9 7.5Z" clip-rule="evenodd"/><path fill="#0A080D" fill-rule="evenodd" d="M237.5 138.5c-.2 2-1 3.6-2.5 5l-11 9a4 4 0 0 0-2-1c-3.1 1.1-6.3 2.1-9.5 3-13-1.9-26-1.9-39 0-1-.2-2-.5-3-1v-12c22.3-2 44.6-3 67-3Z" clip-rule="evenodd"/><path fill="#DCE6EB" fill-rule="evenodd" d="M301.5 134.5c1.3 2.6 3 5 5 7-2.5 4.7-5.7 9-9.5 13-.6 1.7-1.1 3.3-1.5 5a7 7 0 0 0-2.5 2 21.3 21.3 0 0 0-10.5-2.5 21.8 21.8 0 0 1-5-4 14 14 0 0 0 1-3.5c4.6-2.1 6.9-5.8 7-11 1.8 0 3.5-.5 5-1.5 2.2-2 4.6-3.8 7-5.5 1.2.7 2.6 1 4 1Z" clip-rule="evenodd"/><path fill="#2F2A28" fill-rule="evenodd" d="M159.5 146.5c-2.8-.2-5.5-.9-8-2a5.5 5.5 0 0 0-3-1.5c6-1 12-1.5 18-1.5v5h-7Z" clip-rule="evenodd"/><path fill="#252027" fill-rule="evenodd" d="M89.5 143.5c.2 3.1-.1 6.1-1 9a19 19 0 0 0-5 3v-7c0-.7.3-1 1-1-.2 1.6.3 3 1.5 4 2.8-7.3 1.3-13.3-4.5-18 1.9-1.1 3.7-.8 5.5 1l2.5 9Z" clip-rule="evenodd"/><path fill="#26201E" fill-rule="evenodd" d="M115.5 119.5h3v23c4.3-.2 8.7 0 13 .5 3.5.6 3.8 1.8 1 3.5-4.6.8-9.2 1.8-14 3-.6 1-1 2-1 3a5.5 5.5 0 0 1-1.5-3c-.2-9.2-.7-18.2-1.5-27 0-1.1.4-2.1 1-3Z" clip-rule="evenodd"/><path fill="#6B684E" fill-rule="evenodd" d="M138.5 144.5h13c2.5 1.1 5.2 1.8 8 2l8 3v1c-.7.4-1.2 1-1.5 2a12.6 12.6 0 0 0-12.5-4.5 9 9 0 0 1 3 5.5c.3 1.8 0 3.5-1 5-1.3-3-3.3-5.3-6-7a11.7 11.7 0 0 0-9-1.5 63.7 63.7 0 0 0-10.5 9.5c-.6-3.8 0-7.5 1.5-11-3.1.3-6 1.3-8.5 3-2.1-1.4-4-1-5.5 1 0-1 .4-2 1-3 4.8-1.2 9.4-2.2 14-3 2.2-.1 4.2-.8 6-2Z" clip-rule="evenodd"/><path fill="#9D8B7B" fill-rule="evenodd" d="M79.5 140.5c2 2.2 3 4.9 3 8-2.7 2.6-5.7 3.2-9 2 2.5.4 3.8-.6 4-3 1.4-2 2-4.3 2-7Z" clip-rule="evenodd"/><path fill="#553F35" fill-rule="evenodd" d="M60.5 134.5a15 15 0 0 0 2 14 11 11 0 0 0 10 5c-4.5 1-8.8.3-13-2l-3-10c.6-2.8 2-5.2 4-7Z" clip-rule="evenodd"/><path fill="#6A6968" fill-rule="evenodd" d="m343.5 137.5 8 6c1.2 1.6 1.2 3.3 0 5 3.3.8 6.6 1.3 10 1.5 2.2 3.9 5.5 5.4 10 4.5-.6 1.4-1.8 2.1-3.5 2-2.5-.7-5-1-7.5-1v-5c-3-.3-6 0-9 1a41.4 41.4 0 0 1-6 4c-.7.4-1.2 1-1.5 2a5.9 5.9 0 0 1-1.5-5 97 97 0 0 1 9-7c-2-2-4.4-3.7-7-5-.6-1-1-2-1-3Z" clip-rule="evenodd"/><path fill="#74737E" fill-rule="evenodd" d="M375.5 145.5a13 13 0 0 1 5 10c-.9-.6-1.9-1-3-1 .1-.9-.2-1.5-1-2a6.7 6.7 0 0 1-4 2 941 941 0 0 0 4-5l-1-4Z" clip-rule="evenodd"/><path fill="#ACAAA5" fill-rule="evenodd" d="M98.5 129.5c-1 1.4-1.3 3-1 5l-2 55a6.8 6.8 0 0 1-1.5-3c-.2-5.5-.7-10.8-1.5-16v-45c2.9-.4 5.6.1 8 1.5a7 7 0 0 0-2 2.5Z" clip-rule="evenodd"/><path fill="#715945" fill-rule="evenodd" d="M62.5 148.5c3.8-.3 7.4 0 11 1v1c3.3 1.2 6.3.6 9-2h1v3a21 21 0 0 1-11 2 11 11 0 0 1-10-5Z" clip-rule="evenodd"/><path fill="#2D2E34" fill-rule="evenodd" d="M243.5 132.5c-.7 4.3-2.4 8-5 11-2 1.5-3.8 3.1-5.5 5-2.8 5.2-5.6 10.2-8.5 15 0-3-.5-6-1.5-9-2.8.6-5.5 1.6-8 3-2.2-2-4.5-2.4-7-1l-1-2c-3.4.8-7 1.5-10.5 2-1-.2-2-.5-3-1-1 1-2.1 1.7-3.5 2-5.5-1-11-1-16.5.5-.6 1.6-1.3 3.1-2 4.5-.7-3-1-6-1-9 1 .5 2 .8 3 1 13-1.9 26-1.9 39 0 3.2-.9 6.4-1.9 9.5-3a4 4 0 0 1 2 1l11-9c1.4-1.4 2.3-3 2.5-5 .7 0 1-.3 1-1h1c1-1.8 2.4-3.5 4-5Z" clip-rule="evenodd"/><path fill="#4F3E31" fill-rule="evenodd" d="M91.5 125.5v74c-.8-2.5-1.3-5.1-1.5-8a5.2 5.2 0 0 0-3.5-3c-9 .3-18 0-27-1 10-1.8 20-2 30-1 .6-1.5.6-3.2 0-5-12.8.5-25.4 0-38-1.5l36-1.5c0-1.4.3-2.8 1-4l-4.5-1c-6.8.6-13.7 1-20.5 1-5.7 0-11-.7-16-2 13 0 26-.3 39-1l2-19c.9-2.9 1.2-5.9 1-9l2-18Z" clip-rule="evenodd"/><path fill="#242123" fill-rule="evenodd" d="M342.5 152.5c-.3 2 .2 3.6 1.5 5 .3-1 .8-1.6 1.5-2 .7 3.4-.6 5.1-4 5a3 3 0 0 1-1 3c-.8-5-3.8-7.4-9-7-4.4.7-8.4 2-12 4-1 0-1.8.2-2.5 1-1 3-2.2 6-3.5 9-1.6-9.4 2.4-15 12-17 5.1.5 10.1 1.5 15 3l2-4Z" clip-rule="evenodd"/><path fill="#3B2013" fill-rule="evenodd" d="M59.5 151.5c4.2 2.3 8.5 3 13 2 4 .3 7.6-.4 11-2v4a8 8 0 0 1-5.5 2c-4-.8-8-.8-12 0-3.6-.5-5.8-2.5-6.5-6Z" clip-rule="evenodd"/><path fill="#0D0B10" fill-rule="evenodd" d="M326.5 124.5h4c1 3.1 1.3 6.5 1 10 1.5.3 2.8 0 4-1 .4-1.7 1.4-2.7 3-3-.4 2.4.3 3.1 2 2a44 44 0 0 0 2 3c-.2 1 .2 1.7 1 2 0 1 .4 2 1 3 2.6 1.3 5 3 7 5a97 97 0 0 0-9 7l-2 4a71.3 71.3 0 0 0-15-3c-9.6 2-13.6 7.6-12 17 1.3-3 2.5-6 3.5-9 .7-.8 1.5-1 2.5-1-2 3.3-3.4 7-4 11 2 3.7 4.7 6.7 8 9-.9-.1-1.5.2-2 1 6.5 2.2 11.8.7 16-4.5-.3-1-1-1.5-2-1.5 2-1.3 3.7-.8 5 1.5-1.8 3.6-3.8 7-6 10a23.5 23.5 0 0 1-23-3.5v-4c-2.6 0-4.8-1-6.5-3a8 8 0 0 0-5.5 4c-.6-.2-1-.5-1.5-1-.5 3.3-.7 6.7-.5 10h-1a66.5 66.5 0 0 1 2.5-33c2-2.2 3.9-4.5 5.5-7 0-2 1-3 3-3 3.1-1.6 6.4-2.8 10-3.5 1.2-1 2.2-2.2 3-3.5.1-3-.2-6-1-9-1.3-3-.3-3.7 3-2a7.6 7.6 0 0 0 4-4Z" clip-rule="evenodd"/><path fill="#040205" fill-rule="evenodd" d="M345.5 155.5c3.7-.3 7.4 0 11 1 3.5 2.8 7.4 3.5 11.5 2 .9.6 1.4 1.4 1.5 2.5a13 13 0 0 0-1 5.5c1.8-.3 3.5 0 5 1a25.2 25.2 0 0 1-8 4v3a4 4 0 0 0-3.5 2c-.6 8.3-3.3 16-8 23-4.7 3-9.6 5.6-14.5 8a85 85 0 0 1-26 0c-2.2-.6-4.2-1.6-6-3-2-2.5-4.1-4.8-6.5-7a41 41 0 0 1-3.5-8c-.2-3.3 0-6.7.5-10 .4.5 1 .8 1.5 1a8 8 0 0 1 5.5-4c1.7 2 4 3 6.5 3v4a23.5 23.5 0 0 0 23 3.5c2.2-3 4.2-6.4 6-10-1.3-2.3-3-2.8-5-1.5-3 4-7 5.6-12 5-3.3-2.3-6-5.3-8-9 .6-4 2-7.7 4-11 3.6-2 7.6-3.3 12-4 5.2-.4 8.2 2 9 7a3 3 0 0 0 1-3c3.4.1 4.7-1.6 4-5Z" clip-rule="evenodd"/><path fill="#232124" fill-rule="evenodd" d="M371.5 154.5h1c1.5-.2 2.9-.9 4-2 .8.5 1.1 1.1 1 2 0 .7-.3 1-1 1-1.7.3-3.2 1-4.5 2l-1.5 8h4v4c-4 .7-4 1.3 0 2l1 2c-2.9-.3-5.6 0-8 1h-2v-3c2.9-.8 5.5-2.2 8-4a7.1 7.1 0 0 0-5-1c0-1.9.3-3.7 1-5.5-.1-1-.6-1.9-1.5-2.5-4.1 1.5-8 .8-11.5-2-3.6-1-7.3-1.3-11-1 2.1-1.2 4.1-2.5 6-4 3-1 6-1.3 9-1v5c2.5 0 5 .3 7.5 1 1.7.1 2.9-.6 3.5-2Z" clip-rule="evenodd"/><path fill="#535660" fill-rule="evenodd" d="M224.5 163.5c-.2 4.7.1 9.4 1 14v10c0 1 .4 2 1 3-.5.8-1.1 1.1-2 1 .2-8.9-.5-17.5-2-26-1.4-2-2.1-4.4-2-7a9 9 0 0 0-7.5 2c-.4-1-1-1.6-2-2a54 54 0 0 0-5.5 2 281 281 0 0 0-32 0v5c-.7.4-1.2 1-1.5 2a13 13 0 0 1-.5-5c.7-1.4 1.4-2.9 2-4.5 5.5-1.4 11-1.6 16.5-.5 1.4-.3 2.5-1 3.5-2 1 .5 2 .8 3 1 3.6-.5 7-1.2 10.5-2l1 2c2.5-1.4 4.8-1 7 1 2.5-1.4 5.2-2.4 8-3 1 3 1.5 6 1.5 9Z" clip-rule="evenodd"/><path fill="#BEB89E" fill-rule="evenodd" d="M149.5 151.5v2c-8.4-3.3-14-.7-17 8-1.1 1.4-1.3 3.1-.5 5 1.7 1.5 3.2 3.2 4.5 5 1-.4 1-1.1 0-2l2-1a15 15 0 0 0 11-.5c.8-.7 1-1.5 1-2.5 1.6-2.7 2.3-5.7 2-9 2 5.6.7 10.5-4 14.5a12 12 0 0 0-8 2.5c-2 .2-4 0-6-.5-5.6-6-8.1-13.1-7.5-21.5a37.4 37.4 0 0 0-2.5 24 18 18 0 0 1 5 10c-2.2-1-4.5-1.7-7-2-2-36-3.4-36-4 0-1-7.8-1.3-15.8-1-24v-7c1.5-2 3.4-2.4 5.5-1 2.6-1.7 5.4-2.7 8.5-3-1.6 3.5-2 7.2-1.5 11 3.2-3.6 6.7-6.8 10.5-9.5 3.2-.7 6.2-.2 9 1.5Z" clip-rule="evenodd"/><path fill="#8793A1" fill-rule="evenodd" d="M222.5 165.5c-2.6-2.7-5.6-3.3-9-2-3-.3-5.8-.3-8.5 0-3-2-6-1.7-9 1l-9-3c-4 2-8 2.4-12 1-.3 1-.8 1.6-1.5 2v-4a281 281 0 0 1 32 0 54 54 0 0 1 5.5-2c1 .4 1.6 1 2 2a9 9 0 0 1 7.5-2c-.1 2.6.6 5 2 7Z" clip-rule="evenodd"/><path fill="#858991" fill-rule="evenodd" d="M376.5 155.5c-.3 1.5-1.3 2.2-3 2-.2 2 0 4 .5 6 .4.6.9.9 1.5 1v6h8c-2.8 1-5.8 1.3-9 1-4-.7-4-1.3 0-2v-4h-4c.4-2.7 1-5.3 1.5-8 1.3-1 2.8-1.7 4.5-2Z" clip-rule="evenodd"/><path fill="#DCE3E2" fill-rule="evenodd" d="M377.5 154.5c1.1 0 2.1.4 3 1v1c0 4.4.4 8.7 1 13h-5c.3-2 0-3.6-1-5-.6-.1-1.1-.4-1.5-1-.5-2-.7-4-.5-6 1.7.2 2.7-.5 3-2 .7 0 1-.3 1-1Z" clip-rule="evenodd"/><path fill="#2B2F40" fill-rule="evenodd" d="M274.5 153.5c-.2 1.6.1 3.1 1 4.5l15 5.5c-6 1.1-12 1.1-18 0 0 2-.4 4-1 6h-1l1.5-11c.4-2 1.2-3.7 2.5-5Z" clip-rule="evenodd"/><path fill="#4D3F3E" fill-rule="evenodd" d="M104.5 159.5h-4c-.4 2.3.3 4.1 2 5.5l-2 2c2.5.6 3.4 2.1 2.5 4.5-.3-.8-.8-1.5-1.5-2l-1 4a272.7 272.7 0 0 0 0 43 366.7 366.7 0 0 0-3 37c-.3-40.4.7-80.7 3-121 1.6.5 2.8 1.5 3.5 3 .5 8 .7 16 .5 24Z" clip-rule="evenodd"/><path fill="#B1BAC6" fill-rule="evenodd" d="m213.5 163.5-6 2c-.9 1-2 1.7-3.5 2-5.4-.2-11-.8-16.5-2-4.2 1.4-8.5 2-13 2v8c-1-3.1-1.3-6.5-1-10v-1c.7-.4 1.2-1 1.5-2 4 1.4 8 1 12-1l9 3c3-2.7 6-3 9-1 2.7-.3 5.5-.3 8.5 0Z" clip-rule="evenodd"/><path fill="#A2A9B5" fill-rule="evenodd" d="M278.5 147.5v4a14 14 0 0 1-1 3.5c1.5 1.6 3.1 2.9 5 4 3.8 0 7.3.8 10.5 2.5a7 7 0 0 1 2.5-2c-1.6 8.3-2.2 16.6-2 25h-2v-3h-20v-12c.6-2 1-4 1-6 6 1.1 12 1.1 18 0l-15-5.5a6.5 6.5 0 0 1-1-4.5c-.2-1 .2-1.7 1-2 1.4-1 2.4-2.4 3-4Z" clip-rule="evenodd"/><path fill="#574337" fill-rule="evenodd" d="M59.5 164.5c8-.2 16 0 24 .5-1.5.3-2.9 1-4 2-11 .4-22 1.2-33 2.5-2.1-1-4.4-1.3-7-1v-2c6.8-.5 13.5-1.2 20-2Z" clip-rule="evenodd"/><path fill="#2C160E" fill-rule="evenodd" d="M59.5 151.5c.7 3.5 2.9 5.5 6.5 6 4-.8 8-.8 12 0a8 8 0 0 0 5.5-2 19 19 0 0 1 5-3l-2 19c-13 .7-26 1-39 1-2.3-.1-4.3-1-6-2.5a13 13 0 0 1 5-.5c11-1.3 22-2.1 33-2.5 1.1-1 2.5-1.7 4-2-8-.5-16-.7-24-.5-5-.4-4.6-.9 1-1.5 1-.4 1.6-1 2-2-2-2.5-3.6-5.2-5-8 .3-1 1-1.5 2-1.5Z" clip-rule="evenodd"/><path fill="#817A74" fill-rule="evenodd" d="M109.5 121.5c1.8-.1 3.5.2 5 1 .8 8.8 1.3 17.8 1.5 27 .2 1.2.7 2.2 1.5 3v7a6.6 6.6 0 0 1-3-4c-1 6.6-1.3 13.3-1 20-1-3.5-1.3-7.1-1-11v-39h-4c-.3 16.2 0 32.2 1 48 .2 16.7 0 33.3-.5 50-.2-5.5-.7-10.8-1.5-16 .3-10.7 0-21.4-1-32 .3-16 0-32-1-48-2.4.4-4.8 1-7 2a7 7 0 0 1 2-2.5 12.6 12.6 0 0 0-8-1.5v44h-1v-44a83 83 0 0 1 13-1.5c1.4-1.4 3-2.3 5-2.5Z" clip-rule="evenodd"/><path fill="#58534F" fill-rule="evenodd" d="m112.5 164.5-2-37c-1 15.3-1.3 30.7-1 46-1-15.8-1.3-31.8-1-48h4v39Z" clip-rule="evenodd"/><path fill="#655B51" fill-rule="evenodd" d="M415.5 164.5a20 20 0 0 1-7 4.5 11 11 0 0 1-9-1.5c-1.5-.8-2.2-2.1-2-4-.2-1.9.5-3.2 2-4a4 4 0 0 1 2-3.5c5.6-1.5 10.4-.3 14.5 3.5.8 1.9.6 3.6-.5 5Z" clip-rule="evenodd"/><path fill="#A7A3A0" fill-rule="evenodd" d="M399.5 159.5c2.7-2.8 6-3.6 10-2.5 2.9 1.7 3.5 4 2 7-4 .8-8 1.3-12 1.5v-6Z" clip-rule="evenodd"/><path fill="#D4D3D4" fill-rule="evenodd" d="M404.5 158.5h6v5c-3-.8-5.8-.8-8.5 0 0-2 .9-3.6 2.5-5Z" clip-rule="evenodd"/><path fill="#AEB5B7" fill-rule="evenodd" d="m380.5 156.5 2 3a72 72 0 0 1 1 11h-8v-6c1 1.4 1.3 3 1 5h5c-.6-4.3-1-8.6-1-13Z" clip-rule="evenodd"/><path fill="#3A2C20" fill-rule="evenodd" d="M415.5 164.5c.2 2.5-.8 4.3-3 5.5a36.1 36.1 0 0 1-13 1.5v-4a11 11 0 0 0 9 1.5c2.7-1 5-2.6 7-4.5Z" clip-rule="evenodd"/><path fill="#535459" fill-rule="evenodd" d="M382.5 159.5c2.7 4.1 3.7 8.8 3 14h-10l-1-2c3.2.3 6.2 0 9-1a72 72 0 0 0-1-11Z" clip-rule="evenodd"/><path fill="#DBDBDB" fill-rule="evenodd" d="M206.5 174.5c-4.3-.5-8.1.5-11.5 3-2-.8-4-1.5-6-2a28.9 28.9 0 0 1-14.5 0v-8c4.5 0 8.8-.6 13-2 5.6 1.2 11 1.8 16.5 2 1.5-.3 2.6-1 3.5-2 3.2.2 6.4-.1 9.5-1a4 4 0 0 1 2 1c1.7 8.2-1.6 12.5-10 13a7 7 0 0 0-2.5-4Z" clip-rule="evenodd"/><path fill="#828089" fill-rule="evenodd" d="M367.5 174.5c2.4-1 5.1-1.3 8-1h10v18h-1v-17h-17Z" clip-rule="evenodd"/><path fill="#D6E2E6" fill-rule="evenodd" d="M280.5 166.5h11v13c-6.3.5-12.7.8-19 1-.3-3.7 0-7.4 1-11 2.3-1.4 4.6-2.4 7-3Z" clip-rule="evenodd"/><path fill="#D4CEB5" fill-rule="evenodd" d="M140.5 173.5c13.4 1 19.4-5.4 18-19v-3h4l2 12c.2 4.7 0 9.3-.5 14-.1 4-1.3 7.7-3.5 11a6.7 6.7 0 0 0-5-3c-5.3 1.7-10.5 1-15.5-2-3.5-.4-7 .3-10.5 2a18 18 0 0 0-5-10c-1.8-8.3-1-16.3 2.5-24a27.1 27.1 0 0 0 7.5 21.5c2 .5 4 .7 6 .5Z" clip-rule="evenodd"/><path fill="#8A8968" fill-rule="evenodd" d="M149.5 151.5c2.7 1.7 4.7 4 6 7 1-1.5 1.3-3.2 1-5l2 1c1.4 13.6-4.6 20-18 19a12 12 0 0 1 8-2.5c4.7-4 6-8.9 4-14.5a6.5 6.5 0 0 0-3-3v-2Z" clip-rule="evenodd"/><path fill="#E5E2B6" fill-rule="evenodd" d="M132.5 161.5a17 17 0 0 0 18 4c0 1-.2 1.8-1 2.5a15 15 0 0 1-11 .5l-2 1c1 .9 1 1.6 0 2a28.1 28.1 0 0 0-4.5-5c-.8-1.9-.6-3.6.5-5Z" clip-rule="evenodd"/><path fill="#F6F7F5" fill-rule="evenodd" d="M149.5 153.5c1.3.7 2.3 1.7 3 3 .3 3.3-.4 6.3-2 9a17 17 0 0 1-18-4c3-8.7 8.6-11.3 17-8Z" clip-rule="evenodd"/><path fill="#4A4A51" fill-rule="evenodd" d="M304.5 149.5a53.9 53.9 0 0 1-5.5 7 66.5 66.5 0 0 0-2.5 33h-1c-.3-1.9-1-3.6-2-5-.2-8.4.4-16.7 2-25 1.6-2.7 3.4-5.4 5.5-8a4 4 0 0 1 3.5-2Z" clip-rule="evenodd"/><path fill="#7D6E68" fill-rule="evenodd" d="M170.5 151.5v2c0 3 .3 6 1 9a13 13 0 0 0 .5 5c.3-1 .8-1.6 1.5-2-.3 3.5 0 6.9 1 10v2c-.2 5.3 0 10.7.5 16 .2 1.6.7 2.9 1.5 4v3c10.7-3.3 21.7-5 33-5-2.3 1.6-5 2.4-8 2.5-8.3-.4-16.1 1-23.5 4.5-.9-.2-1.7-.6-2.5-1a13 13 0 0 1-1.5-5l-1 19a33 33 0 0 0-2.5-6v-5c1.2-18 .2-36-3-54v-1a25 25 0 0 1 .5-7c1 3 2 6 2.5 9Z" clip-rule="evenodd"/><path fill="#0A080D" fill-rule="evenodd" d="M312.5 111.5v3c-1.9.8-3.5 1.8-5 3-1.5 0-2.5.6-3 2-3 .8-5.7 2.3-8 4.5L283 137.5c-3.3 4.3-5.8 9-7.5 14-.8.3-1.2 1-1 2a9.6 9.6 0 0 0-2.5 5l-1.5 11a69.7 69.7 0 0 0 17 54c-1.6-.5-3.3-.9-5-1v-3a29 29 0 0 0-8-4c.3-2.1 0-4.1-1-6-2 1.1-2.4.6-1-1.5-4.4-6-6.2-12.8-5.5-20.5l-1 5c-.6 2-1 2.3-1.5.5 1-3.1 1.2-6.3.5-9.5l-1 1a7.2 7.2 0 0 0-2.5-2 11.2 11.2 0 0 0-2 7 274 274 0 0 0-11.5 2 67 67 0 0 1-10.5-4c-2 .3-2.4 1.2-1 2.5a34 34 0 0 1-4 14c1 5.4 1.3 11 1 16.5-1-3.8-1.8-7.8-2.5-12-1.3-.7-2.4-1.5-3.5-2.5l2-17.5a3 3 0 0 0 2-2 46.4 46.4 0 0 1-6-9c-.9-4.6-1.2-9.3-1-14 3-4.8 5.7-9.8 8.5-15 1.7-1.9 3.5-3.5 5.5-5 .6 3.5-.7 5.5-4 6-.2 1.3.2 2.5 1 3.5-2.4 1.3-2.4 2.3 0 3-2.8 2-2.5 2.7 1 2.5-9 5.3-10.3 12.2-4 20.5 5.8 2.2 11.5 2 17-1 2.8-1.6 3.4-3.8 2-6.5-3.7 5.8-9 8-16 6.5-5-4.4-5.3-9.2-1-14.5 6.3-4.4 11.6-3.4 16 3 .8-.5 1.1-1.1 1-2 2.4 3.5 3.9 7.2 4.5 11 .8-2.6.6-5.1-.5-7.5l4-1a4.2 4.2 0 0 1-.5-4.5c1.5-2 3.1-2.6 5-2l5-2c1-3 2.1-5.8 3.5-8.5-.2-.9-.6-1.7-1-2.5l7-9c-1.8-2.1-4-3.8-6.5-5 0-1.6.7-2.8 2.5-3.5-4-3.2-3.4-4.2 2-3-1.2 4 0 7.1 3.5 9.5 1.2-2.8 2.7-5.5 4.5-8 4.3.1 6.3-1.9 6-6h-3c-.3-1.5 0-2.8 1-4l4 3a53 53 0 0 1 17-9.5c-2.6-1.8-2.6-3.7 0-5.5 1.3 1.5 2.3 3.2 3 5Z" clip-rule="evenodd"/><path fill="#C6BEB5" fill-rule="evenodd" d="M222.5 165.5c.8 8.6.8 17 0 25.5a288.7 288.7 0 0 1-43 3.5v3h-3a8.8 8.8 0 0 1-1.5-4c-.5-5.3-.7-10.7-.5-16 .7 5.5 1.5 11.2 2.5 17 4.6-1.8 9.4-3.1 14.5-4 9.7-.7 19.4-1.9 29-3.5 1.2-1.5 1.2-3 0-4.5-1.4-.9-2.8-1.9-4-3-4.5.7-8.8 1.7-13 3 .1 1 0 2-.5 3-2.2-3-1.4-5 2.5-6 1-1.5 1.3-3.2 1-5a7 7 0 0 1 2.5 4c8.4-.5 11.7-4.8 10-13a4 4 0 0 0-2-1c-3.1.9-6.3 1.2-9.5 1l6-2c3.4-1.3 6.4-.7 9 2Z" clip-rule="evenodd"/><path fill="#413C3E" fill-rule="evenodd" d="M236.5 158.5c6.5-1.4 11.5.6 15 6 .1.9-.2 1.5-1 2-4.4-6.4-9.7-7.4-16-3-4.3 5.3-4 10 1 14.5 7 1.4 12.3-.7 16-6.5 1.4 2.7.8 4.9-2 6.5-5.5 3-11.2 3.2-17 1-6.3-8.3-5-15.2 4-20.5Z" clip-rule="evenodd"/><path fill="#3C3C47" fill-rule="evenodd" d="M335.5 175.5c1 0 1.7.5 2 1.5-4.2 5.2-9.5 6.7-16 4.5.5-.8 1.1-1.1 2-1 5 .6 9-1 12-5Z" clip-rule="evenodd"/><path fill="#6A6C7E" fill-rule="evenodd" d="M365.5 174.5h2l-4 5 13 4c-4-1-8-1-12 0 1.9.8 3.5 1.8 5 3a13 13 0 0 1-5.5-1 9.6 9.6 0 0 0-3 3c-.3 2.4-1.1 4.6-2.5 6.5.8 1.8 2.2 3 4 3.5-3-.4-4 .6-3 3a4 4 0 0 1-3.5-2c-4.1 2.3-8 5-11.5 8a16.8 16.8 0 0 1-9 3l4-3c5-2.4 9.8-5 14.5-8 4.7-7 7.4-14.7 8-23a4 4 0 0 1 3.5-2Z" clip-rule="evenodd"/><path fill="#D3CDC7" fill-rule="evenodd" d="M206.5 174.5c.3 1.8 0 3.5-1 5-4 1-4.7 3-2.5 6 .5-1 .6-2 .5-3 4.2-1.3 8.5-2.3 13-3 1.2 1.1 2.6 2.1 4 3 1.2 1.5 1.2 3 0 4.5-9.6 1.6-19.3 2.8-29 3.5-5 .9-10 2.2-14.5 4-1-5.8-1.8-11.5-2.5-17v-2c4.8 1.2 9.7 1.2 14.5 0 2 .5 4 1.2 6 2 3.4-2.5 7.2-3.5 11.5-3Z" clip-rule="evenodd"/><path fill="#1F253C" fill-rule="evenodd" d="M376.5 183.5h1a44 44 0 0 0 3 2c-3.6 1-7.3 1.3-11 1a22.8 22.8 0 0 0-5-3c4-1 8-1 12 0Z" clip-rule="evenodd"/><path fill="#ADA29A" fill-rule="evenodd" d="M117.5 159.5c-.3 8.2 0 16.2 1 24a68.2 68.2 0 0 1 .5 19c-.7 1.3-1.3 1.3-2 0-.5 2-.7 4-.5 6h-2c-.4-11-.8-22-1-33-.3-6.7 0-13.4 1-20a6.6 6.6 0 0 0 3 4Z" clip-rule="evenodd"/><path fill="#1F233C" fill-rule="evenodd" d="M290.5 184.5c-3 .7-6 1-9 1-2.7-.2-5.4.1-8 1-1.2-1.5-.9-2.7 1-3.5l8-.5c3 0 5.8.7 8 2Z" clip-rule="evenodd"/><path fill="#D3C6A6" fill-rule="evenodd" d="M129.5 185.5c3.5-1.7 7-2.4 10.5-2 5 3 10.2 3.7 15.5 2 2.1.2 3.8 1.2 5 3 2.2-3.3 3.4-7 3.5-11 .5-4.7.7-9.3.5-14a93.8 93.8 0 0 1 1 32c-2.8 0-5.4-.2-8-.5-1 1.3-1 2.6 0 4-1.7 1.9-2.7 4-3 6.5h-1c.3-2.3 0-4.5-1-6.5-3-.7-6-.7-9 0-2.5 1.5-2.5 3 0 4.5-1.4 0-2.8.3-4 1-.2-3-.2-6 0-9a9 9 0 0 0-3-4c-1.9 2-4.2 3.4-7 4-1.6-.8-2.3-2.2-2-4h-3c.2 2 0 4-.5 6-1.5 1.2-3 1.2-4.5 0 .1-4.7-.2-9.4-1-14 .6-36 2-36 4 0 2.5.3 4.8 1 7 2Z" clip-rule="evenodd"/><path fill="#BFB091" fill-rule="evenodd" d="M167.5 150.5c3.2 18 4.2 36 3 54v-1c.3-2.3-.4-4.3-2-6-2 1.5-4.4 2.4-7 2.5-1.6 2.8-4 4.6-7 5.5.3-2.5 1.3-4.6 3-6.5-1-1.4-1-2.8 0-4 2.6.3 5.2.4 8 .5a93.8 93.8 0 0 0-1-32l-2-12h-4v3l-2-1a9 9 0 0 0-3-5.5c5-.9 9.2.6 12.5 4.5.3-1 .8-1.6 1.5-2Z" clip-rule="evenodd"/><path fill="#5A5E70" fill-rule="evenodd" d="M377.5 183.5h4c.2 1.6-.1 3.1-1 4.5-3.9.3-7.5-.2-11-1.5 3.7.3 7.4 0 11-1a44 44 0 0 1-3-2Z" clip-rule="evenodd"/><path fill="#332928" fill-rule="evenodd" d="M112.5 164.5c-.3 3.9 0 7.5 1 11 .2 11 .6 22 1 33v1c-.4-2.7-1.4-5-3-7 .3-6.5 0-12.9-1-19 .3-3.5 0-6.9-1-10-.3-15.3 0-30.7 1-46l2 37Z" clip-rule="evenodd"/><path fill="#C9CAD3" fill-rule="evenodd" d="M367.5 174.5h17v17c-.5 1.8-1.2 3.5-2 5 .3-2.3 0-4.5-1-6.5a338 338 0 0 0-19-1 6 6 0 0 0 0 6.5l6 4.5c.8.7 1 1.5 1 2.5-2.6-1-5-2.3-7-4a6.4 6.4 0 0 1-4-3.5c1.4-2 2.2-4 2.5-6.5a9.6 9.6 0 0 1 3-3c1.8.7 3.6 1 5.5 1 3.5 1.3 7.1 1.8 11 1.5a6.5 6.5 0 0 0 1-4.5h-5l-13-4 4-5Z" clip-rule="evenodd"/><path fill="#351C0F" fill-rule="evenodd" d="M39.5 168.5c2.6-.3 4.9 0 7 1a13 13 0 0 0-5 .5 9.3 9.3 0 0 0 6 2.5c5 1.3 10.3 2 16 2 6.8 0 13.7-.4 20.5-1l4.5 1c-.7 1.2-1 2.6-1 4l-36 1.5c12.6 1.5 25.2 2 38 1.5.6 1.8.6 3.5 0 5-10-1-20-.8-30 1 9 1 18 1.3 27 1 0 1 .4 2 1 3l-4 1c-7.7.6-15.4 1.2-23 2-2.9-3.9-5.5-3.9-8 0-.3 2.5-1 4.8-2.5 7-4.4 6.9-8.6 13.9-12.5 21-3.3 1-6.6 1.3-10 1-.3-3.8 1-7 4-9.5-3.2-5.6-1.6-8 5-7.5v-3h3c.8-4.8 2.8-9 6-12.5 1.5-1 3.2-1.5 5-1.5v-5h-3c.1-1 0-2-.5-3a27.4 27.4 0 0 1-7.5-4.5c-2.5-3-2.5-5.8 0-8.5Z" clip-rule="evenodd"/><path fill="#C5AF87" fill-rule="evenodd" d="M143.5 203.5c2.6-.5 4.6.2 6 2h-3c-3.4 1-6 3-8 6a44 44 0 0 0-2-3c0-1-.2-1.8-1-2.5-6.7-1-13-.3-19 2.5-.2-2 0-4 .5-6 .7 1.3 1.3 1.3 2 0 .5-1.6.7-3.3.5-5 1.5 1.2 3 1.2 4.5 0 .5-2 .7-4 .5-6h3c-.3 1.8.4 3.2 2 4 2.8-.6 5.1-2 7-4a9 9 0 0 1 3 4c-.2 3-.2 6 0 9 1.2-.7 2.6-1 4-1Z" clip-rule="evenodd"/><path fill="#E0E3E7" fill-rule="evenodd" d="M382.5 196.5c-.5 3.4-1.9 6.4-4 9-.8.4-1.6.8-2.5 1-2-1.6-4.2-2.9-6.5-4 0-1-.2-1.8-1-2.5l-6-4.5a6 6 0 0 1 0-6.5c6.3.2 12.6.5 19 1 1 2 1.3 4.2 1 6.5Z" clip-rule="evenodd"/><path fill="#453230" fill-rule="evenodd" d="M104.5 159.5c0 5.6.7 10.9 2 16 1 10.6 1.3 21.3 1 32-.1 15 .5 30 2 45 1-23 1.3-46 1-69 1 6.1 1.3 12.5 1 19 .3 17.2 0 34.2-1 51h-3c-.5-15.3-1.4-30.7-2.5-46-1.8 5.2-3.3 10.6-4.5 16a9634 9634 0 0 0-2 32c.2 1-.2 1.7-1 2v-4c.4-12.3 1.4-24.7 3-37a272.8 272.8 0 0 1 0-43l1-4c.7.5 1.2 1.2 1.5 2 .9-2.4 0-3.9-2.5-4.5l2-2a5.6 5.6 0 0 1-2-5.5h4Z" clip-rule="evenodd"/><path fill="#DAE2E5" fill-rule="evenodd" d="M291.5 184.5h2c1 1.4 1.7 3.1 2 5 .3 1.5 0 2.8-1 4a6.5 6.5 0 0 0-3 3 7 7 0 0 1-4 2c-2.6.9-5.3 1.5-8 2a81 81 0 0 1-2-9.5c5-1.6 9.7-3.7 14-6.5Z" clip-rule="evenodd"/><path fill="#C7CDD9" fill-rule="evenodd" d="M290.5 184.5h1c-4.3 2.8-9 5-14 6.5.4 3 1 6.1 2 9.5 2.7-.5 5.4-1.1 8-2a4.7 4.7 0 0 1-4 3 54.2 54.2 0 0 0-6 3.5c-3.2-5-4.4-10.6-3.5-16.5 2.5-1.3 5-2.3 7.5-3 3 0 6-.3 9-1Z" clip-rule="evenodd"/><path fill="#9A897D" fill-rule="evenodd" d="M222.5 165.5c1.5 8.5 2.2 17.1 2 26-.7 0-1 .3-1 1-.8.3-1.5.8-2 1.5-4.2.2-8.2.7-12 1.5-11.3 0-22.3 1.7-33 5v-3h3v-3c14.4 0 28.8-1.3 43-3.5.8-8.4.8-17 0-25.5Z" clip-rule="evenodd"/><path fill="#513933" fill-rule="evenodd" d="M225.5 187.5c1.4.5 2 1.5 2 3-.5 4.4-1.8 8.4-4 12-16 1.7-32 3-48 4v-3a3236 3236 0 0 1 39-4c2.8-.6 5.4-1.4 8-2.5a6.5 6.5 0 0 0 1-4.5c0-.7.3-1 1-1 .9.1 1.5-.2 2-1-.6-1-1-2-1-3Z" clip-rule="evenodd"/><path fill="#AC906A" fill-rule="evenodd" d="M170.5 203.5c-1.8-2.8-2.8-2.5-3 1-5 1.3-10 2.3-15 3-1.5 0-2.5-.6-3-2h5c3-.9 5.4-2.7 7-5.5 2.6-.1 5-1 7-2.5a7.2 7.2 0 0 1 2 6Z" clip-rule="evenodd"/><path fill="#6E554D" fill-rule="evenodd" d="M223.5 192.5c.2 1.6-.1 3.1-1 4.5-2.6 1.1-5.2 2-8 2.5a3236 3236 0 0 0-39 4v-2c.8.4 1.6.8 2.5 1 7.4-3.4 15.2-5 23.5-4.5 3-.1 5.7-1 8-2.5 3.8-.8 7.8-1.3 12-1.5.5-.7 1.2-1.2 2-1.5Z" clip-rule="evenodd"/><path fill="#544F63" fill-rule="evenodd" d="M362.5 198.5c2 1.7 4.4 3 7 4l4 5-1.5 1c-1.4-1-3-1.6-4.5-2-3-1.2-5.7-2.8-8-5-1-2.4 0-3.4 3-3Z" clip-rule="evenodd"/><path fill="#4A3021" fill-rule="evenodd" d="M86.5 188.5c1.6.4 2.8 1.4 3.5 3 .2 2.9.7 5.5 1.5 8 .8 12.3 1.1 24.6 1 37 0 2.7-1 3.7-3 3a4.9 4.9 0 0 0-1 4c0 .7-.3 1-1 1l-3-2.5c-3.3-.5-6.7-.7-10-.5l10-6a7 7 0 0 0 4 1v-4h3c.2-7 0-14-.5-21-.3 1.5-1 2.9-2 4l-1-1c-1.2 1-2.5 1.6-4 2-1.8-.8-3.6-1.5-5.5-2-1.5 0-2.5-.6-3-2v-1a18.7 18.7 0 0 0-5-3c-4 1.1-8 1.8-12 2-.1-1.7-.5-3.4-1-5 1.8-2.3 3.8-4.5 6-6.5a12.5 12.5 0 0 0-11-4.5c2.5-3.9 5.1-3.9 8 0 7.6-.8 15.3-1.4 23-2l4-1c-.6-1-1-2-1-3Z" clip-rule="evenodd"/><path fill="#30130A" fill-rule="evenodd" d="M66.5 195.5c7-.2 14 0 21 .5a7.4 7.4 0 0 0 0 4.5c-6.7.3-13.4 0-20-1-.7-1.2-1-2.6-1-4Z" clip-rule="evenodd"/><path fill="#F2F4E3" fill-rule="evenodd" d="M153.5 205.5h-4c-1.4-1.8-3.4-2.5-6-2-2.5-1.5-2.5-3 0-4.5 3-.7 6-.7 9 0 1 2 1.3 4.2 1 6.5Z" clip-rule="evenodd"/><path fill="#36190D" fill-rule="evenodd" d="M75.5 211.5a11 11 0 0 1 6-3c-4-.6-7.6-2-11-4 .2-.6.5-1 1-1.5 5.3-.7 10.7-.7 16 0 0 3.2.4 6.3 1 9.5a15.1 15.1 0 0 1-13-1Z" clip-rule="evenodd"/><path fill="#40424F" fill-rule="evenodd" d="M290.5 201.5a40.3 40.3 0 0 0-9 6l-1-1.5a21 21 0 0 1 3-4.5 4.7 4.7 0 0 0 4-3 7 7 0 0 0 4-2 4 4 0 0 0 3.5-2c.7.5 1.2 1.2 1.5 2-2.7 1-4.7 2.7-6 5Z" clip-rule="evenodd"/><path fill="#50473A" fill-rule="evenodd" d="M473.5 201.5c1 0 1.8.2 2.5 1 1.3 2.7 2.5 5.3 3.5 8a34.4 34.4 0 0 0-9-5c-4.1-.6-8.1-1.6-12-3 .5-1.4 1.5-2 3-2 4.2.7 8.2 2 12 4 1-1 1-2 0-3Z" clip-rule="evenodd"/><path fill="#685B53" fill-rule="evenodd" d="M91.5 169.5h1v1c1.1 22.2 1.1 44.2 0 66 .1-12.4-.2-24.7-1-37v-30Z" clip-rule="evenodd"/><path fill="#72532B" fill-rule="evenodd" d="M170.5 203.5v4l-2-2c-.9 1.3-1.9 2.4-3 3.5-2.8 0-5.3.9-7.5 2.5-1.7-2.6-2.9-2.3-3.5 1-1.3-1-2.6-.8-4 .5-2 4-5.4 5.6-10 4.5a3 3 0 0 1-2-2c4 .8 7.3-.5 9.5-4 .7-2.3.2-4.3-1.5-6h3c.5 1.4 1.5 2 3 2 5-.7 10-1.7 15-3 .2-3.5 1.2-3.8 3-1Z" clip-rule="evenodd"/><path fill="#E1E8EE" fill-rule="evenodd" d="M303.5 202.5c.4 2 1 3.8 2 5.5-.8.7-1 1.5-1 2.5h-3c-.1 2.3-1 4.3-2.5 6-2.8-1.4-3.3-.7-1.5 2-.5 2.8-1.1 5.5-2 8-5-3-8-7.3-9-13h-3v-4c4.1-3.3 8.4-6.4 13-9.5 3.1-1 5.4-.3 7 2.5Z" clip-rule="evenodd"/><path fill="#646979" fill-rule="evenodd" d="M270.5 169.5h1v12h20v3h-1c-2.2-1.3-5-2-8-2l-8 .5c-1.9.8-2.2 2-1 3.5 2.6-.9 5.3-1.2 8-1-2.5.7-5 1.7-7.5 3-1 6 .3 11.4 3.5 16.5 1.8-1.2 3.8-2.4 6-3.5a21 21 0 0 0-3 4.5l1 1.5c2.7-2.4 5.7-4.4 9-6l-9 10a31 31 0 0 1 2.5 6c3.4 3.2 6.5 6.5 9.5 10-2.3-1-4.3-2.2-6-4a69.7 69.7 0 0 1-17-54Z" clip-rule="evenodd"/><path fill="#9B9BA3" fill-rule="evenodd" d="M369.5 202.5c2.3 1.1 4.4 2.4 6.5 4 .9-.2 1.7-.6 2.5-1-1.6 2.9-3 5.9-4 9l-12 13a40 40 0 0 1-17 8l5-4h1c8.8-4 16-10 21.5-18 .7-1.1.6-2.1-.5-3-2.4-.5-4-1.8-5-4 1.6.4 3 1 4.5 2l1.5-1-4-5Z" clip-rule="evenodd"/><path fill="#4E4C54" fill-rule="evenodd" d="M384.5 191.5h1a68.3 68.3 0 0 1-8.5 22c-.7.8-1.5 1-2.5 1 1-3.1 2.4-6.1 4-9 2.1-2.6 3.5-5.6 4-9 .8-1.5 1.5-3.2 2-5Z" clip-rule="evenodd"/><path fill="#8F837F" fill-rule="evenodd" d="M97.5 134.5c-.3 39.7-.8 79.4-1.5 119-.2 1.8-.7 3.4-1.5 5l-3-12c-1.2-.8-2.2-1.8-3-3-.3-1.5 0-2.8 1-4 2 .7 3-.3 3-3 1.1-21.8 1.1-43.8 0-66 .8 5.2 1.3 10.5 1.5 16 .2 1.1.7 2.1 1.5 3l2-55Z" clip-rule="evenodd"/><path fill="#221C3A" fill-rule="evenodd" d="M313.5 207.5a85 85 0 0 0 26 0l-4 3h-14c-3-.4-5.7-1.4-8-3Z" clip-rule="evenodd"/><path fill="#695646" fill-rule="evenodd" d="M452.5 207.5c4.3-.2 8.7 0 13 .5 3 3.3 5.7 6.8 8 10.5v10h-5c.5 3.2-.2 6-2 8.5-2.5.8-4.1 0-5-2.5a9 9 0 0 0 5.5-1c.5-2.3.7-4.6.5-7h5c0-3.2-.6-6.2-2-9-2 .2-4 0-6-.5-.7-2-1-4-1-6-2.4-.3-4.7-.8-7-1.5.8 4.7.8 9.3 0 14 .2-1.3-.1-2.3-1-3 .2-1.6-.1-3.1-1-4.5-2.9-.3-5.5-1.1-8-2.5-1.3-.2-2.5.2-3.5 1a25 25 0 0 0-.5 7c-2.9-3.4-2.6-6.6 1-9.5l9 1.5a8 8 0 0 1 0-6Z" clip-rule="evenodd"/><path fill="#938FA9" fill-rule="evenodd" d="M321.5 210.5h14l-5 2c-3.5.6-6.5-.1-9-2Z" clip-rule="evenodd"/><path fill="#6F6456" fill-rule="evenodd" d="M455.5 197.5c6.3.1 12.3 1.5 18 4 1 1 1 2 0 3-3.8-2-7.8-3.3-12-4-1.5 0-2.5.6-3 2-4.9.3-9.2 2-13 5a26 26 0 0 0-8 9 3 3 0 0 1-3 1v-2c3-7.7 8.4-13 16-16 0-.7.3-1 1-1l4-1Z" clip-rule="evenodd"/><path fill="#A0A5B3" fill-rule="evenodd" d="M295.5 189.5h2a41 41 0 0 0 3.5 8c2.4 2.2 4.5 4.5 6.5 7a7 7 0 0 1-4-2c-1.6-2.8-3.9-3.6-7-2.5-4.6 3-8.9 6.2-13 9.5v4h3c1 5.7 4 10 9 13l8 7a16 16 0 0 1-10-6c-3-3.5-6.1-6.8-9.5-10a31 31 0 0 0-2.5-6l9-10c1.3-2.3 3.3-4 6-5-.3-.8-.8-1.5-1.5-2a4 4 0 0 1-3.5 2 6.5 6.5 0 0 1 3-3c1-1.2 1.3-2.5 1-4Z" clip-rule="evenodd"/><path fill="#2F120A" fill-rule="evenodd" d="M175.5 201.5v5c16-1 32-2.3 48-4a3 3 0 0 1 3 1 230.5 230.5 0 0 1-52 4c.3 3.4 0 6.7-1 10-4.3.9-8.8.9-13.5 0-2.9-.2-5.4.6-7.5 2.5a55 55 0 0 1-17.5-.5 9.8 9.8 0 0 1-6.5 2c-3.6-.6-7.3-1-11-1v-4h3c6 .7 12 .3 18-1a3 3 0 0 0 2 2c5.7 2 10.7.6 15-4l2 1c2.4-1.6 5-2.4 8-2.5 1.6-2 3.2-2.8 5-2.5a33 33 0 0 1 2.5 6l1-19a13 13 0 0 0 1.5 5Z" clip-rule="evenodd"/><path fill="#7D7264" fill-rule="evenodd" d="M446.5 213.5c2.5 1.4 5.1 2.2 8 2.5a6.5 6.5 0 0 1 1 4.5c-2.2 1.8-4.8 3-8 3.5-1.9.8-3.6.6-5-.5 2 .3 3.5-.4 4.5-2 .6-2.7.4-5.4-.5-8Z" clip-rule="evenodd"/><path fill="#B8AE9C" fill-rule="evenodd" d="M446.5 213.5c1 2.6 1.1 5.3.5 8a4.3 4.3 0 0 1-4.5 2v-2a25 25 0 0 1 .5-7c1-.8 2.2-1.2 3.5-1Z" clip-rule="evenodd"/><path fill="#4A250E" fill-rule="evenodd" d="M136.5 212.5c1.4.5 2 1.5 2 3-6 1.3-12 1.7-18 1v-4c2.4-.9 5-1.6 7.5-2a87 87 0 0 1 8.5 2Z" clip-rule="evenodd"/><path fill="#48260F" fill-rule="evenodd" d="M170.5 207.5v2c-1.8-.3-3.4.6-5 2.5-3 .1-5.6 1-8 2.5l-2-1c-4.3 4.6-9.3 6-15 4 4.6 1 8-.4 10-4.5 1.4-1.3 2.7-1.5 4-.5.6-3.3 1.8-3.6 3.5-1 2.2-1.6 4.7-2.5 7.5-2.5 1.1-1 2.1-2.2 3-3.5l2 2Z" clip-rule="evenodd"/><path fill="#8E7029" fill-rule="evenodd" d="M146.5 205.5a5.4 5.4 0 0 1 1.5 6 8.5 8.5 0 0 1-9.5 4c0-1.5-.6-2.5-2-3v-4a44 44 0 0 1 2 3c2-3 4.6-5 8-6Z" clip-rule="evenodd"/><path fill="#805F3A" fill-rule="evenodd" d="M136.5 208.5v4a87 87 0 0 0-8.5-2c-2.6.4-5 1.1-7.5 2v4h-3v-5c-1.7.2-2.7-.5-3-2v-1h2c6-2.8 12.3-3.6 19-2.5.8.7 1 1.5 1 2.5Z" clip-rule="evenodd"/><path fill="#DCE0E7" fill-rule="evenodd" d="M359.5 201.5c2.3 2.2 5 3.8 8 5 1 2.2 2.6 3.5 5 4 1 .9 1.2 1.9.5 3-5.6 8-12.7 14-21.5 18 1-3.9-.3-6.9-4-9a39.8 39.8 0 0 1-3.5-7 23.3 23.3 0 0 0-11.5-.5 34 34 0 0 1 1.5 7.5c.9-1.4 1.4-1.2 1.5.5-.1 1.7-.6 1.9-1.5.5-.3 2-.8 3.8-1.5 5.5 2.4.3 3 1.3 2 3 1.3 1 2.8 1.5 4.5 1.5 3.8-1 7.6-1.7 11.5-2l-5 4c-4.7.5-9.3.8-14 1 .3-8 0-16-1-24l5-2c3.3-.1 6.3-1.1 9-3 3.6-3 7.4-5.7 11.5-8a4 4 0 0 0 3.5 2Z" clip-rule="evenodd"/><path fill="#E7EEEE" fill-rule="evenodd" d="M351.5 231.5h-1c-3.9.3-7.7 1-11.5 2-1.7 0-3.2-.5-4.5-1.5 1-1.7.4-2.7-2-3 .7-1.7 1.2-3.6 1.5-5.5.9 1.4 1.4 1.2 1.5-.5-.1-1.7-.6-1.9-1.5-.5a34 34 0 0 0-1.5-7.5c4-.8 7.8-.6 11.5.5 1 2.4 2.1 4.8 3.5 7 3.7 2.1 5 5.1 4 9Z" clip-rule="evenodd"/><path fill="#5A5A69" fill-rule="evenodd" d="M344.5 208.5c2.4-.1 4.2.9 5.5 3 2.2 4.6 4 9.3 5.5 14a3 3 0 0 1-3-1c-2.9-5.3-5.5-10.6-8-16Z" clip-rule="evenodd"/><path fill="#4A4C4E" fill-rule="evenodd" d="M374.5 214.5c-2.6 5.6-6.6 10-12 13l12-13Z" clip-rule="evenodd"/><path fill="#C2C7D1" fill-rule="evenodd" d="M303.5 202.5a7 7 0 0 0 4 2c1.8 1.4 3.8 2.4 6 3 2.3 1.6 5 2.6 8 3 2.5 1.9 5.5 2.6 9 2 1 8 1.3 16 1 24 4.7-.2 9.3-.5 14-1v1c-4 .5-8 1.1-12 2a58 58 0 0 1-25-4c-1.8.1-3.5-.2-5-1l-8-7c.9-2.5 1.5-5.2 2-8-1.8-2.7-1.3-3.4 1.5-2a9.3 9.3 0 0 0 2.5-6h3c0-1 .2-1.8 1-2.5-1-1.7-1.6-3.6-2-5.5Z" clip-rule="evenodd"/><path fill="#697182" fill-rule="evenodd" d="M326.5 233.5c-1-6.1-1.3-12.5-1-19h4v20c-1.3.2-2.3-.1-3-1Z" clip-rule="evenodd"/><path fill="#E5EDEF" fill-rule="evenodd" d="M303.5 223.5c1.6-2.7 3.4-5.4 5.5-8 .5-2 .7-4 .5-6a158 158 0 0 1 14 4v23a49 49 0 0 1-20-6.5c-.8-2-.8-4.2 0-6.5Z" clip-rule="evenodd"/><path fill="#3E4559" fill-rule="evenodd" d="M326.5 233.5c-.3-6 0-12 1-18l1 9c0 3.4-.7 6.4-2 9Z" clip-rule="evenodd"/><path fill="#5C616D" fill-rule="evenodd" d="M304.5 210.5h4c-1.9 4.1-3.6 8.5-5 13-2.2 3.9-4.2 3.9-6 0 1.6-4.8 4-9.2 7-13Z" clip-rule="evenodd"/><path fill="#BFAD93" fill-rule="evenodd" d="M461.5 234.5a3 3 0 0 0-2-2c-2.3-2.6-4.4-2.2-6.5 1l-.5-2.5c.6-1.6 1.2-3.1 2-4.5 0-1.5.6-2.5 2-3 .8-4.7.8-9.3 0-14 2.3.7 4.6 1.2 7 1.5 0 2 .3 4 1 6 2 .5 4 .7 6 .5 1.4 2.8 2 5.8 2 9h-5a25 25 0 0 1-.5 7 9 9 0 0 1-5.5 1Z" clip-rule="evenodd"/><path fill="#37201F" fill-rule="evenodd" d="M110.5 253.5c-.1.6-.4 1.1-1 1.5a61 61 0 0 1-11 .5 9634 9634 0 0 1 2-32c1.2-5.4 2.7-10.8 4.5-16 1.1 15.3 2 30.7 2.5 46h3Z" clip-rule="evenodd"/><path fill="#2F1A0D" fill-rule="evenodd" d="M84.5 235.5c-4-1.6-8.4-2.2-13-2v-3a58 58 0 0 0 16 0v-5c-3.7 0-7.4-.3-11-1 0-3.5.7-6.8 2-10 1.9.5 3.7 1.2 5.5 2 1.5-.4 2.8-1 4-2l1 1c1-1.1 1.7-2.5 2-4 .5 7 .7 14 .5 21h-3v4a7 7 0 0 1-4-1Z" clip-rule="evenodd"/><path fill="#787B80" fill-rule="evenodd" d="M308.5 234.5a58 58 0 0 0 25 4c-4.5 1-9.1 1.3-14 1l-9-2.5a7 7 0 0 1-2-2.5Z" clip-rule="evenodd"/><path fill="#3B353F" fill-rule="evenodd" d="M345.5 236.5a50.5 50.5 0 0 1-10 3.5c-5.5.8-10.9.7-16-.5 4.9.3 9.5 0 14-1 4-.9 8-1.5 12-2Z" clip-rule="evenodd"/><path fill="#160908" fill-rule="evenodd" d="M458.5 202.5c3.9 1.4 7.9 2.4 12 3 3.7 5 7.6 10 11.5 15 .7 3 .7 6 0 9a72.1 72.1 0 0 1-5.5 10 27 27 0 0 0-9 8c-6.6.8-13.3 1.2-20 1v-1a8.7 8.7 0 0 0-7-2 134 134 0 0 1-8.5-19c-.6-4-.4-8 .5-12l2 1v2a88 88 0 0 1 5 14 36 36 0 0 0 8 6c.8 1.6 2.1 2.3 4 2l-4 2c.1.6.5 1 1 1a25 25 0 0 0 17 1c3-1 5-3 6.5-6 1.1-4.3 2-8.6 2.5-13 0-2.2-.3-4.2-1-6-2.3-3.7-5-7.2-8-10.5-4.3-.5-8.7-.7-13-.5-1.7.7-2.3 2-2 4-2-.2-4-.7-6-1.5.8-.7 1-1.5 1-2.5 3.8-3 8.1-4.7 13-5Z" clip-rule="evenodd"/><path fill="#413022" fill-rule="evenodd" d="M473.5 218.5c.7 1.8 1 3.8 1 6-.5 4.4-1.4 8.7-2.5 13-1.4 3-3.6 5-6.5 6 1.1-.9 1.1-1.7 0-2.5-2.5-.2-4.9-.7-7-1.5.2-2-.2-4-1-6 .5-.8 1.1-1.1 2-1a3 3 0 0 1 2 2c.9 2.4 2.5 3.3 5 2.5a11 11 0 0 0 2-8.5h5v-10Z" clip-rule="evenodd"/><path fill="#918167" fill-rule="evenodd" d="M454.5 226.5c-.8 1.4-1.4 2.9-2 4.5l.5 2.5c2-3.2 4.2-3.6 6.5-1-.9-.1-1.5.2-2 1 .8 2 1.2 4 1 6h-6c-.8-4.3-1.1-8.6-1-13h3Z" clip-rule="evenodd"/><path fill="#A18E71" fill-rule="evenodd" d="M444.5 226.5h5c.3 4.4 1 8.7 2 13-1.9.3-3.2-.4-4-2-2.1-3.3-3.1-7-3-11Z" clip-rule="evenodd"/><path fill="#6B5A48" fill-rule="evenodd" d="M444.5 226.5c-.1 4 .9 7.7 3 11a36 36 0 0 1-8-6c1-1.5 1.7-3.2 2-5h3Z" clip-rule="evenodd"/><path fill="#67544D" fill-rule="evenodd" d="M109.5 173.5c1 3.1 1.3 6.5 1 10 .3 23 0 46-1 69-1.5-15-2.1-30-2-45 .8 5.2 1.3 10.5 1.5 16 .5-16.7.7-33.3.5-50Z" clip-rule="evenodd"/><path fill="#3E2F24" fill-rule="evenodd" d="M445.5 207.5c0 1-.2 1.8-1 2.5 2 .8 4 1.3 6 1.5-.3-2 .3-3.3 2-4a8 8 0 0 0 0 6l-9-1.5c-3.6 3-3.9 6-1 9.5v2c1.4 1.1 3.1 1.3 5 .5 3.2-.5 5.8-1.7 8-3.5.9.7 1.2 1.7 1 3-1.4.5-2 1.5-2 3h-3c-.1 4.4.2 8.7 1 13a7 7 0 0 1-4 3c-.5 0-.9-.4-1-1l4-2c-1-4.3-1.7-8.6-2-13h-8c-.3 1.8-1 3.5-2 5a88 88 0 0 0-5-14 3 3 0 0 0 3-1 26 26 0 0 1 8-9Z" clip-rule="evenodd"/><path fill="#9A8C82" fill-rule="evenodd" d="M74.5 241.5c3.3-.2 6.7 0 10 .5l3 2.5c0 .5-.4.9-1 1-3.5-2.9-4.5-2.2-3 2 2.7 9.3-1 13.7-11 13-2.1-5.4-3.4-5-4 1l-1-.5a23.3 23.3 0 0 1 1.5-15.5c1.8-1.5 3.6-2.8 5.5-4Z" clip-rule="evenodd"/><path fill="#655239" fill-rule="evenodd" d="M452.5 239.5h6c2.1.8 4.5 1.3 7 1.5 1.1.8 1.1 1.6 0 2.5a25 25 0 0 1-17-1 7 7 0 0 0 4-3Z" clip-rule="evenodd"/><path fill="#D8D6CC" fill-rule="evenodd" d="M83.5 247.5c-.5 3-.8 6-1 9-3.3.7-6.6 1-10 1-2.5-10.5 1.1-13.8 11-10Z" clip-rule="evenodd"/><path fill="#675B5A" fill-rule="evenodd" d="M106.5 175.5c-1.3-5.1-2-10.4-2-16 .2-8 0-16-.5-24a5.3 5.3 0 0 0-3.5-3 1817 1817 0 0 0-3 121v4c-.9 4.1-2.9 4.8-6 2-1-3.3-1.3-6.6-1-10h-3c.2 2.7 0 5.4-.5 8a7.6 7.6 0 0 1-7.5 4c-2.6.3-4.9 0-7-1 10 .7 13.7-3.7 11-13-1.5-4.2-.5-4.9 3-2 .6-.1 1-.5 1-1 .7 0 1-.3 1-1 .8 1.2 1.8 2.2 3 3l3 12c.8-1.6 1.3-3.2 1.5-5 .7-39.6 1.2-79.3 1.5-119-.3-2 0-3.6 1-5 2.2-1 4.6-1.6 7-2 1 16 1.3 32 1 48Z" clip-rule="evenodd"/><path fill="#4F3018" fill-rule="evenodd" d="M75.5 212.5c.5 1.4 1.5 2 3 2-1.3 3.2-2 6.5-2 10 3.6.7 7.3 1 11 1v5a58 58 0 0 1-16 0v3c4.6-.2 9 .4 13 2l-10 6a54.7 54.7 0 0 0-5.5 4c-2.3 5-2.8 10.2-1.5 15.5l1 .5c.6-6 1.9-6.4 4-1 2.1 1 4.4 1.3 7 1-3.5 1-6.8 1.6-10 2 .5 1 1.1 1.8 2 2.5 3 .7 6 1.2 9 1.5 3.5.1 6.5-1 9-3.5 6.3-.5 12.7-.7 19-.5-.2 7 0 14 .5 21 .2-7.8.7-15.5 1.5-23 .3 10.7 0 21.4-1 32a6 6 0 0 0-5-2c-9.2-3.4-15.9-.7-20 8h-1v-2c-.2-2 .2-4 1-6a37.4 37.4 0 0 1 22-4c0-4.4-.6-8.8-2-13 .6-2.4 1.6-4.5 3-6.5l-1-1.5a40 40 0 0 0-15-.5l-4 3c-5.3.7-10.7.7-16 0a10.7 10.7 0 0 1-5-6.5 3 3 0 0 0-3-1c0 3.5-.7 6.8-2 10h-3l5-14c-1.3-1.3-2.7-1.3-4 0a23 23 0 0 1-4 7c-.7-6.2 2-9.2 8-9a16.5 16.5 0 0 1 11-17.5c-2-2-3.7-4.4-5-7 3-2.2 3.7-5 2-8.5l4-6c-.9-1.6-.9-2.9 0-4Z" clip-rule="evenodd"/><path fill="#665244" fill-rule="evenodd" d="M114.5 294.5c2.7 2.4 3.6 5.4 2.5 9-.7.8-1.5 1-2.5 1a4 4 0 0 0 0-5c-3.7-2-7-4.4-10-7v-1a6 6 0 0 1 5 2c1-10.6 1.3-21.3 1-32a3 3 0 0 1 2-2c1.3 11 1.3 22 0 33a3 3 0 0 0 2 2Z" clip-rule="evenodd"/><path fill="#8F8588" fill-rule="evenodd" d="M104.5 291.5v1c.5 1.6.9 3.3 1 5-3-2.2-6.3-3.2-10-3-4.6-.2-8.2 1.4-11 5 4.1-8.7 10.8-11.4 20-8Z" clip-rule="evenodd"/><path fill="#E4E7E5" fill-rule="evenodd" d="M95.5 294.5c3.7-.2 7 .8 10 3 0 .7.3 1 1 1 0 1.3-.7 2-2 2.5-3 .5-6 .7-9 .5v4c-4.7-1-5.9-3.8-3.5-8 1.1-1.1 2.3-2.1 3.5-3Z" clip-rule="evenodd"/><path fill="#B1A8A3" fill-rule="evenodd" d="M95.5 294.5c-1.2.9-2.4 1.9-3.5 3-2.4 4.2-1.2 7 3.5 8v-4c3 .2 6 0 9-.5 1.3-.4 2-1.3 2-2.5l2 1c-.1 1.6-.8 3-2 4-3 1.3-6 2.3-9 3a6 6 0 0 1-3.5 3 13 13 0 0 1-6-6 8.4 8.4 0 0 0-.5 4h-3v-8c2.8-3.6 6.4-5.2 11-5Z" clip-rule="evenodd"/><path fill="#94806B" fill-rule="evenodd" d="M83.5 299.5h1v8h3c-.2-1.4 0-2.7.5-4a13 13 0 0 0 6 6 6 6 0 0 0 3.5-3c.3 2.7-.9 4.4-3.5 5-2-1.1-4.2-1.8-6.5-2v3h-3a15.3 15.3 0 0 1-1-13Z" clip-rule="evenodd"/><path fill="#72594A" fill-rule="evenodd" d="M108.5 299.5c2.3 6.2 0 9.4-7 9.5-1.9 1-3.5 2.4-5 4a34 34 0 0 0-11 2.5c-.6-.9-1-1.9-1-3h3v-3c2.3.2 4.4.9 6.5 2 2.6-.6 3.8-2.3 3.5-5 3-.7 6-1.7 9-3 1.2-1 1.9-2.4 2-4Z" clip-rule="evenodd"/><path fill="#402924" fill-rule="evenodd" d="M104.5 292.5c3 2.6 6.3 5 10 7a4 4 0 0 1 0 5l-2-1c-.6 4-2.6 7.2-6 9.5-3 1.2-5.6 3-8 5l-7 1c-1.3.4-2 1.3-2 2.5-.9.1-1.5-.2-2-1 .6-1.9-.1-3.6-2-5a34 34 0 0 1 11-2.5c1.5-1.6 3.1-3 5-4 7-.1 9.3-3.3 7-9.5l-2-1c-.7 0-1-.3-1-1-.1-1.7-.5-3.4-1-5Z" clip-rule="evenodd"/><path fill="#160808" fill-rule="evenodd" d="M114.5 304.5a8.3 8.3 0 0 1 3 6 53 53 0 0 1-1.5 7 27 27 0 0 1-11.5 8c-5.7.8-10.7-.5-15-4 0-1.3.7-2 2-2.5l7-1c2.4-2 5-3.8 8-5 3.4-2.3 5.4-5.4 6-9.5l2 1Z" clip-rule="evenodd"/><path fill="#52423D" fill-rule="evenodd" d="M323.5 440.5v1a9.6 9.6 0 0 0-1 6h6c-.3-1.5 0-2.8 1-4 2-.3 3.3-1.3 4-3 1 1 1.3 2.4 1 4-2.8-.2-4.5 1.1-5 4-4.8 2.3-7.8 1-9-4 0-2.2 1-3.5 3-4Z" clip-rule="evenodd"/><path fill="#84776D" fill-rule="evenodd" d="M333.5 440.5c-.7 1.7-2 2.7-4 3a4.9 4.9 0 0 0-1 4h-6c-.3-2.2 0-4.2 1-6v-1c1.1-1.3 2.6-2 4.5-2 2 .5 3.8 1.1 5.5 2Z" clip-rule="evenodd"/><path fill="#D7CCC5" fill-rule="evenodd" d="M323.5 441.5c2.4-1.7 4.7-1.8 7-.5-2.4.5-4.4 1.7-6 3.5a3 3 0 0 1-1-3Z" clip-rule="evenodd"/><path fill="#232423" fill-rule="evenodd" d="M413.5 489.5c2 .4 2.3 1.4 1 3a3 3 0 0 1-1-3Z" clip-rule="evenodd"/></svg>